<?xml version="1.0" encoding="UTF-8" standalone="no"?>
<svg
   xmlns:dc="http://purl.org/dc/elements/1.1/"
   xmlns:cc="http://creativecommons.org/ns#"
   xmlns:rdf="http://www.w3.org/1999/02/22-rdf-syntax-ns#"
   xmlns:svg="http://www.w3.org/2000/svg"
   xmlns="http://www.w3.org/2000/svg"
   width="7.1517315mm"
   height="11.262095mm"
   viewBox="0 0 7.1517316 11.262095"
   version="1.1"
   id="svg647">
  <defs
     id="defs641" />
  <metadata
     id="metadata644">
    <rdf:RDF>
      <cc:Work
         rdf:about="">
        <dc:format>image/svg+xml</dc:format>
        <dc:type
           rdf:resource="http://purl.org/dc/dcmitype/StillImage" />
        <dc:title></dc:title>
      </cc:Work>
    </rdf:RDF>
  </metadata>
  <path
     id="path4191"
     d="M 2.948152,11.232233 C 2.7937253,11.206109 2.0672163,11.182514 1.333688,11.17981 L 0,11.174895 0,5.5874482 0,0 1.7909612,0 c 1.5813187,0 1.7949502,0.01040623 1.8250451,0.08882657 0.018743,0.04885239 0.034083,0.96813233 0.034083,2.04283973 l 0,1.9540153 0.4175462,0.062102 c 1.4027305,0.2086294 2.4643692,1.1025933 2.936993,2.4731236 0.1254442,0.3637688 0.1471026,0.5216619 0.1471026,1.0723616 0,0.5584602 -0.020898,0.7064619 -0.1545301,1.0944895 -0.5034654,1.4618807 -1.741794,2.4029087 -3.2492691,2.4691727 -0.2854538,0.01256 -0.6453568,0.0014 -0.7997833,-0.02469 z m 1.3700129,-0.48061 C 5.9853808,10.358624 7.0461005,8.6396727 6.6522965,6.9690363 6.0907287,4.5866947 3.1066675,3.7401982 1.3695849,5.4704752 0.35446696,6.4816184 0.14023603,7.8732796 0.79879069,9.178442 c 0.35706341,0.707652 1.22603401,1.38541 2.02425511,1.578827 0.4048034,0.09809 1.0656265,0.09559 1.4951191,-0.0056 z m -2.7800636,-0.016 C 1.5538001,10.710228 1.4132781,10.554454 1.2258376,10.389462 1.038397,10.224469 0.79592736,9.9654415 0.68701669,9.8138458 0.54252292,9.6127216 0.47626575,9.5582938 0.44190074,9.612493 c -0.074345,0.1172603 -0.0590583,1.024287 0.0185658,1.101919 0.0768266,0.07683 1.03164336,0.09562 1.07762866,0.02121 z M 1.1065219,5.12622 C 1.5522145,4.6834957 2.1669668,4.3411231 2.7516082,4.2100283 2.9214773,4.1719369 3.0920488,4.1157177 3.1306563,4.0850955 3.18417,4.0426486 3.2008504,3.6054696 3.2008504,2.2453339 c 0,-1.57504894 -0.010402,-1.78807791 -0.088826,-1.81817089 C 2.9345703,0.35906761 0.53169261,0.38924421 0.4604733,0.46046351 0.4100269,0.51090971 0.3930886,1.1732388 0.3930886,3.0951674 c 0,1.4120264 0.0172311,2.6122476 0.0383137,2.6671605 0.033453,0.087183 0.0528315,0.078867 0.15282672,-0.065602 C 0.64721241,5.6057323 0.88224427,5.3490044 1.1065219,5.12622 Z"
     style="fill:#3661db" />
</svg>
