<?xml version="1.0" encoding="UTF-8" standalone="no"?>
<svg
   xmlns:dc="http://purl.org/dc/elements/1.1/"
   xmlns:cc="http://creativecommons.org/ns#"
   xmlns:rdf="http://www.w3.org/1999/02/22-rdf-syntax-ns#"
   xmlns:svg="http://www.w3.org/2000/svg"
   xmlns="http://www.w3.org/2000/svg"
   id="svg2969"
   version="1.1"
   viewBox="0 0 30.0001 30"
   height="30mm"
   width="30.000101mm">
  <defs
     id="defs2963" />
  <metadata
     id="metadata2966">
    <rdf:RDF>
      <cc:Work
         rdf:about="">
        <dc:format>image/svg+xml</dc:format>
        <dc:type
           rdf:resource="http://purl.org/dc/dcmitype/StillImage" />
        <dc:title></dc:title>
      </cc:Work>
    </rdf:RDF>
  </metadata>
  <g
     transform="translate(63.042288,-162.72023)"
     id="layer1">
    <path
       style="fill:#5b4282;stroke-width:0.24000011"
       d="m -45.113988,177.98493 c -0.5602,-0.1843 -1.3666,-0.1446 -2.4192,-0.1446 h -4.229 v 5.5199 h 4.5225 c 0.7066,0 1.2029,-0.075 1.4887,-0.1284 0.5038,-0.091 0.925,-0.265 1.2633,-0.4757 0.3382,-0.2102 0.6164,-0.5292 0.8348,-0.9314 0.2179,-0.4023 0.3271,-0.8729 0.3271,-1.3992 0,-0.6163 -0.1579,-1.0896 -0.474,-1.5446 -0.3159,-0.455 -0.7538,-0.7116 -1.3142,-0.896 z m -0.5806,-2.5238 c 0.5561,-0.1651 0.9754,-0.4536 1.2574,-0.8368 0.2822,-0.3835 0.4231,-0.8715 0.4231,-1.4506 0,-0.5487 -0.1318,-1.0354 -0.395,-1.453 -0.2633,-0.4176 -0.639,-0.5791 -1.1278,-0.7334 -0.4889,-0.1538 -1.3272,-0.107 -2.5152,-0.107 h -3.7101 v 4.7999 h 3.9808 c 0.9701,0 1.6653,-0.091 2.0868,-0.2191 z m 12.652401,-8.7509 c 0,-2.2037 -1.7863,-3.99 -3.990001,-3.99 h -22.0201 c -2.2037,0 -3.99,1.7863 -3.99,3.99 v 22.02 c 0,2.2038 1.7863,3.99 3.99,3.99 h 22.0201 c 2.203701,0 3.990001,-1.7862 3.990001,-3.99 z m -8.507301,15.8689 c -0.3269,0.6655 -0.7313,1.1785 -1.2125,1.5396 -0.4815,0.3609 -1.0851,0.6671 -1.8106,0.8514 -0.7253,0.1846 -1.6147,0.3102 -2.6671,0.3102 h -6.6826 v -16.5601 h 6.5809 c 1.2633,0 2.2763,0.1461 3.0395,0.4805 0.7635,0.3348 1.3611,0.8393 1.7938,1.5348 0.4322,0.6955 0.6485,1.4177 0.6485,2.1771 0,0.7068 -0.192,1.3699 -0.5753,1.9939 -0.3835,0.6245 -0.9626,1.1266 -1.7369,1.5101 0.9999,0.2932 1.7688,0.793 2.3064,1.4995 0.5376,0.7068 0.8064,1.5412 0.8064,2.5036 0,0.7745 -0.1634,1.4941 -0.4905,2.1594 z"
       id="path1342" />
  </g>
</svg>
