<?xml version="1.0" encoding="UTF-8" standalone="no"?>
<svg
   xmlns:dc="http://purl.org/dc/elements/1.1/"
   xmlns:cc="http://creativecommons.org/ns#"
   xmlns:rdf="http://www.w3.org/1999/02/22-rdf-syntax-ns#"
   xmlns:svg="http://www.w3.org/2000/svg"
   xmlns="http://www.w3.org/2000/svg"
   id="svg2969"
   version="1.1"
   viewBox="0 0 26.451429 30"
   height="30mm"
   width="26.451429mm">
  <defs
     id="defs2963" />
  <metadata
     id="metadata2966">
    <rdf:RDF>
      <cc:Work
         rdf:about="">
        <dc:format>image/svg+xml</dc:format>
        <dc:type
           rdf:resource="http://purl.org/dc/dcmitype/StillImage" />
        <dc:title></dc:title>
      </cc:Work>
    </rdf:RDF>
  </metadata>
  <g
     transform="translate(77.918916,-190.92858)"
     id="layer1">
    <g
       transform="matrix(1.0714286,0,0,1.0714286,-81.836059,188.78572)"
       id="g1419">
      <polygon
         points="28.344,2 26.095,27.197 15.985,30 5.902,27.201 3.656,2 "
         style="fill:#1572b6"
         id="polygon1390" />
      <polygon
         points="16,4.061 16,27.858 24.17,25.593 26.092,4.061 "
         style="fill:#33a9dc"
         id="polygon1392" />
      <polygon
         points="23.676,7.764 22.917,16.282 16,16.282 16,13.191 20.09,13.191 20.372,10.026 16,10.026 16,6.935 16.011,6.935 23.75,6.935 "
         style="fill:#ffffff"
         id="polygon1394" />
      <polygon
         points="9.24,17.827 9.673,22.68 16.004,24.438 16.019,24.434 16.019,21.218 16.005,21.222 12.563,20.292 12.343,17.827 10.67,17.827 "
         style="fill:#ebebeb"
         id="polygon1396" />
      <polygon
         points="22.928,16.151 19.827,16.151 19.455,20.29 16.008,21.22 16.008,24.436 22.344,22.68 22.391,22.158 "
         style="fill:#ffffff"
         id="polygon1398" />
      <polygon
         points="8.555,10.026 8.545,10.026 8.483,9.331 8.342,7.764 8.268,6.935 16.011,6.935 16.011,8.855 16.011,10.018 16.011,10.026 "
         style="fill:#ebebeb"
         id="polygon1400" />
      <polygon
         points="12.611,16.282 12.601,16.282 12.539,15.587 12.399,14.02 12.325,13.191 16,13.191 16,15.111 16,16.274 16,16.282 "
         style="fill:#ebebeb"
         id="polygon1402" />
    </g>
  </g>
</svg>
