<?xml version="1.0" encoding="UTF-8" standalone="no"?>
<svg
   xmlns:serif="http://www.serif.com/"
   xmlns:dc="http://purl.org/dc/elements/1.1/"
   xmlns:cc="http://creativecommons.org/ns#"
   xmlns:rdf="http://www.w3.org/1999/02/22-rdf-syntax-ns#"
   xmlns:svg="http://www.w3.org/2000/svg"
   xmlns="http://www.w3.org/2000/svg"
   id="svg2969"
   version="1.1"
   viewBox="0 0 30.758871 30"
   height="30mm"
   width="30.758873mm">
  <defs
     id="defs2963" />
  <metadata
     id="metadata2966">
    <rdf:RDF>
      <cc:Work
         rdf:about="">
        <dc:format>image/svg+xml</dc:format>
        <dc:type
           rdf:resource="http://purl.org/dc/dcmitype/StillImage" />
        <dc:title></dc:title>
      </cc:Work>
    </rdf:RDF>
  </metadata>
  <g
     transform="translate(179.10197,4.4226273)"
     id="layer1">
    <g
       transform="matrix(0.63996991,0,0,0.63996991,-184.22173,-9.7631762)"
       serif:id="Icons"
       id="Icons1"
       style="clip-rule:evenodd;fill:#000000;fill-rule:evenodd;stroke-linejoin:round;stroke-miterlimit:2">
      <g
         id="Strike"
         style="fill:#000000" />
      <g
         id="H1"
         style="fill:#000000" />
      <g
         id="H2"
         style="fill:#000000" />
      <g
         id="H3"
         style="fill:#000000" />
      <g
         id="list-ul"
         style="fill:#000000" />
      <g
         id="hamburger-1"
         style="fill:#000000" />
      <g
         id="hamburger-2"
         style="fill:#000000" />
      <g
         id="list-ol"
         style="fill:#000000" />
      <g
         id="list-task"
         style="fill:#000000" />
      <g
         id="trash"
         style="fill:#000000" />
      <g
         id="vertical-menu"
         style="fill:#000000" />
      <g
         id="horizontal-menu"
         style="fill:#000000" />
      <g
         id="sidebar-2"
         style="fill:#000000" />
      <g
         id="Pen"
         style="fill:#000000" />
      <g
         serif:id="Pen"
         id="Pen1"
         style="fill:#000000" />
      <g
         id="clock"
         style="fill:#000000" />
      <g
         id="external-link"
         style="fill:#000000" />
      <g
         id="hr"
         style="fill:#000000" />
      <g
         id="info"
         style="fill:#000000" />
      <g
         id="warning"
         style="fill:#000000" />
      <g
         id="plus-circle"
         style="fill:#000000" />
      <g
         id="minus-circle"
         style="fill:#000000" />
      <g
         id="vue"
         style="fill:#000000" />
      <g
         id="cog"
         style="fill:#000000" />
      <path
         style="fill:#000000"
         d="M 32.029,8.345 C 18.759,8.345 8,19.104 8,32.378 c 0,10.617 6.885,19.624 16.435,22.803 1.202,0.22 1.64,-0.522 1.64,-1.16 0,-0.569 -0.02,-2.081 -0.032,-4.086 -6.685,1.452 -8.095,-3.222 -8.095,-3.222 -1.093,-2.775 -2.669,-3.514 -2.669,-3.514 -2.182,-1.492 0.165,-1.462 0.165,-1.462 2.412,0.171 3.681,2.477 3.681,2.477 2.144,3.672 5.625,2.611 6.994,1.997 0.219,-1.553 0.838,-2.612 1.526,-3.213 -5.336,-0.606 -10.947,-2.669 -10.947,-11.877 0,-2.623 0.937,-4.769 2.474,-6.449 -0.247,-0.608 -1.072,-3.051 0.235,-6.36 0,0 2.018,-0.646 6.609,2.464 1.917,-0.533 3.973,-0.8 6.016,-0.809 2.041,0.009 4.097,0.276 6.017,0.809 4.588,-3.11 6.602,-2.464 6.602,-2.464 1.311,3.309 0.486,5.752 0.239,6.36 1.54,1.68 2.471,3.826 2.471,6.449 0,9.232 -5.62,11.263 -10.974,11.858 0.864,0.742 1.632,2.208 1.632,4.451 0,3.212 -0.029,5.804 -0.029,6.591 0,0.644 0.432,1.392 1.652,1.157 9.542,-3.185 16.421,-12.186 16.421,-22.8 0,-13.274 -10.76,-24.033 -24.034,-24.033"
         id="github" />
      <g
         id="logo"
         style="fill:#000000" />
      <g
         id="eye-slash"
         style="fill:#000000" />
      <g
         id="eye"
         style="fill:#000000" />
      <g
         id="toggle-off"
         style="fill:#000000" />
      <g
         id="shredder"
         style="fill:#000000" />
      <g
         serif:id="spinner [loading, dots]"
         id="spinner--loading--dots-"
         style="fill:#000000" />
      <g
         id="react"
         style="fill:#000000" />
    </g>
  </g>
</svg>
