<?xml version="1.0" encoding="UTF-8" standalone="no"?>
<svg
   xmlns:dc="http://purl.org/dc/elements/1.1/"
   xmlns:cc="http://creativecommons.org/ns#"
   xmlns:rdf="http://www.w3.org/1999/02/22-rdf-syntax-ns#"
   xmlns:svg="http://www.w3.org/2000/svg"
   xmlns="http://www.w3.org/2000/svg"
   id="svg2969"
   version="1.1"
   viewBox="0 0 29.999999 30"
   height="30mm"
   width="30mm">
  <defs
     id="defs2963" />
  <metadata
     id="metadata2966">
    <rdf:RDF>
      <cc:Work
         rdf:about="">
        <dc:format>image/svg+xml</dc:format>
        <dc:type
           rdf:resource="http://purl.org/dc/dcmitype/StillImage" />
        <dc:title></dc:title>
      </cc:Work>
    </rdf:RDF>
  </metadata>
  <g
     transform="translate(100.13181,-104.2738)"
     id="layer1">
    <g
       transform="matrix(1.0714286,0,0,1.0714286,-102.27467,102.13094)"
       id="g1386">
      <rect
         x="2"
         y="2"
         width="28"
         height="28"
         style="fill:#f5de19"
         id="rect1372" />
      <path
         d="m 20.809,23.875 a 2.866,2.866 0 0 0 2.6,1.6 c 1.09,0 1.787,-0.545 1.787,-1.3 0,-0.9 -0.716,-1.222 -1.916,-1.747 l -0.658,-0.282 c -1.9,-0.809 -3.16,-1.822 -3.16,-3.964 0,-1.973 1.5,-3.476 3.853,-3.476 a 3.889,3.889 0 0 1 3.742,2.107 L 25,18.128 A 1.789,1.789 0 0 0 23.311,17 1.145,1.145 0 0 0 22.052,18.128 c 0,0.789 0.489,1.109 1.618,1.6 l 0.658,0.282 c 2.236,0.959 3.5,1.936 3.5,4.133 0,2.369 -1.861,3.667 -4.36,3.667 a 5.055,5.055 0 0 1 -4.795,-2.691 z m -9.295,0.228 c 0.413,0.733 0.789,1.353 1.693,1.353 0.864,0 1.41,-0.338 1.41,-1.653 v -8.947 h 2.631 v 8.982 c 0,2.724 -1.6,3.964 -3.929,3.964 a 4.085,4.085 0 0 1 -3.947,-2.4 z"
         id="path1374" />
    </g>
  </g>
</svg>
