<?xml version="1.0" encoding="UTF-8" standalone="no"?>
<svg
   xmlns:dc="http://purl.org/dc/elements/1.1/"
   xmlns:cc="http://creativecommons.org/ns#"
   xmlns:rdf="http://www.w3.org/1999/02/22-rdf-syntax-ns#"
   xmlns:svg="http://www.w3.org/2000/svg"
   xmlns="http://www.w3.org/2000/svg"
   id="svg225"
   version="1.1"
   viewBox="0 0 29.414179 29.897916"
   height="29.897917mm"
   width="29.414179mm">
  <defs
     id="defs219" />
  <metadata
     id="metadata222">
    <rdf:RDF>
      <cc:Work
         rdf:about="">
        <dc:format>image/svg+xml</dc:format>
        <dc:type
           rdf:resource="http://purl.org/dc/dcmitype/StillImage" />
        <dc:title></dc:title>
      </cc:Work>
    </rdf:RDF>
  </metadata>
  <g
     transform="translate(162.6438,-35.074155)"
     id="layer1">
    <g
       transform="matrix(0.24563439,0,0,0.24563439,-163.65741,34.302617)"
       id="g123">
      <path
         style="clip-rule:evenodd;fill:#94795d;fill-rule:evenodd"
         d="m 87.259,100.139 c 0.169,-0.325 0.331,-0.612 0.469,-0.909 0.087,-0.19 0.221,-0.228 0.41,-0.223 1.133,0.032 2.266,0.067 3.4,0.078 0.963,0.01 1.928,-0.008 2.892,-0.019 1.086,-0.013 2.172,-0.07 3.257,-0.039 1.445,0.042 2.853,0.325 4.16,0.968 1.561,0.769 2.742,1.94 3.547,3.483 0.514,0.985 0.812,2.03 0.931,3.14 0.172,1.608 0.059,3.179 -0.451,4.717 -0.632,1.906 -1.832,3.365 -3.499,4.458 -1.283,0.841 -2.69,1.338 -4.198,1.622 -1.596,0.301 -3.197,0.204 -4.798,0.209 -1.756,0.007 -3.511,-0.031 -5.267,-0.051 -0.307,-0.003 -0.351,-0.061 -0.27,-0.354 l 0.075,-0.27 c 0.171,-0.538 0.263,-0.562 0.809,-0.652 0.378,-0.061 0.77,-0.203 1.087,-0.413 0.184,-0.122 0.26,-0.44 0.332,-0.685 0.062,-0.214 0.065,-0.449 0.067,-0.675 0.025,-3.425 0.051,-6.849 0.065,-10.272 0.003,-0.865 -0.017,-1.732 -0.065,-2.596 -0.034,-0.605 -0.357,-1.019 -1.077,-1.162 -0.56,-0.111 -1.124,-0.197 -1.687,-0.296 z m 16.076,8.293 c -0.076,-0.682 -0.113,-1.37 -0.235,-2.042 -0.292,-1.613 -0.998,-3.018 -2.238,-4.119 -2.005,-1.779 -4.419,-2.053 -6.949,-1.841 -0.576,0.048 -0.7,0.245 -0.709,0.837 -0.014,0.84 -0.028,1.68 -0.029,2.52 -0.004,2.664 -0.004,5.328 0,7.992 0.001,0.758 0.009,1.516 0.031,2.272 0.024,0.774 0.305,1.429 1.063,1.729 1.195,0.473 2.452,0.529 3.706,0.336 2.003,-0.307 3.404,-1.474 4.344,-3.223 0.744,-1.388 0.954,-2.903 1.016,-4.461 z m 4.869,9.071 c -0.024,-0.415 0.146,-0.758 0.356,-1.073 0.057,-0.085 0.253,-0.081 0.388,-0.108 l 1.146,-0.227 c 0.405,-0.086 0.618,-0.358 0.675,-0.755 0.038,-0.262 0.074,-0.527 0.077,-0.792 0.025,-2.097 0.049,-4.194 0.059,-6.291 0.01,-2.1 0.002,-4.2 0.002,-6.3 l -0.009,-0.401 c -0.041,-0.675 -0.367,-1.025 -1.037,-1.124 l -1.453,-0.221 c -0.179,-0.024 -0.244,-0.11 -0.179,-0.269 0.112,-0.271 0.219,-0.552 0.377,-0.796 0.059,-0.09 0.258,-0.125 0.392,-0.122 0.694,0.01 1.388,0.062 2.082,0.061 l 6.041,-0.036 c 1.164,-0.001 2.288,0.202 3.332,0.759 1.149,0.612 1.792,1.559 1.976,2.849 0.192,1.355 -0.219,2.497 -1.209,3.404 -0.407,0.374 -0.934,0.618 -1.406,0.922 l -0.154,0.096 c 0.438,0.161 0.855,0.3 1.261,0.466 1.188,0.487 2.133,1.248 2.633,2.463 0.395,0.959 0.395,1.959 0.161,2.953 -0.364,1.556 -1.389,2.591 -2.722,3.374 -1.251,0.735 -2.605,1.163 -4.047,1.235 -1.33,0.067 -2.666,0.042 -3.999,0.057 l -0.772,0.004 c -1.284,-0.029 -2.569,-0.062 -3.854,-0.096 z m 5.537,-6.089 h 0.013 c 0,0.658 -0.009,1.316 0.003,1.974 0.008,0.426 -0.007,0.864 0.085,1.274 0.138,0.613 0.418,1.166 1.106,1.342 0.929,0.239 1.878,0.287 2.818,0.124 1.177,-0.205 2.116,-0.795 2.631,-1.916 0.382,-0.833 0.439,-1.716 0.308,-2.618 -0.174,-1.188 -0.805,-2.05 -1.854,-2.615 -0.688,-0.371 -1.422,-0.598 -2.204,-0.628 -0.876,-0.033 -1.753,-0.035 -2.629,-0.062 -0.246,-0.007 -0.28,0.118 -0.279,0.32 0.005,0.934 0.002,1.869 0.002,2.805 z m 1.865,-4.475 c 0.479,-0.024 1.021,-0.031 1.56,-0.085 1.032,-0.103 1.759,-0.622 2.138,-1.609 0.193,-0.501 0.185,-1.017 0.19,-1.538 0.015,-1.357 -0.777,-2.469 -2.066,-2.929 -0.995,-0.355 -2.021,-0.361 -3.053,-0.333 -0.418,0.011 -0.605,0.194 -0.611,0.615 l -0.062,5.489 c -0.003,0.218 0.091,0.312 0.303,0.319 z"
         id="path49" />
      <path
         style="clip-rule:evenodd;fill:#50382b;fill-rule:evenodd"
         d="m 10.543,116.448 -0.073,0.944 c -0.68,0 -1.307,-0.005 -1.934,0.002 -1.181,0.012 -2.362,0.031 -3.544,0.048 l -0.114,0.007 c -0.169,-0.02 -0.476,-0.02 -0.484,-0.07 -0.05,-0.281 -0.034,-0.576 -0.021,-0.867 10e-4,-0.033 0.116,-0.075 0.183,-0.091 l 0.919,-0.205 c 0.573,-0.149 0.775,-0.396 0.802,-0.988 0.031,-0.667 0.062,-1.335 0.065,-2.002 0.009,-1.642 -10e-4,-3.282 0.006,-4.924 0.001,-0.384 -0.132,-0.67 -0.49,-0.826 -0.426,-0.188 -0.854,-0.372 -1.285,-0.546 -0.204,-0.082 -0.469,-0.127 -0.445,-0.401 0.024,-0.279 0.281,-0.352 0.523,-0.407 1.002,-0.229 2.005,-0.452 3.004,-0.696 0.322,-0.079 0.63,-0.212 1.015,-0.346 0.02,0.208 0.057,0.406 0.053,0.604 l -0.059,0.941 c -10e-4,0.106 0.054,0.248 0.133,0.307 0.048,0.037 0.209,-0.03 0.289,-0.092 0.854,-0.65 1.758,-1.211 2.789,-1.538 1.597,-0.507 2.968,-0.037 3.928,1.34 0.338,0.485 0.339,0.485 0.808,0.146 0.805,-0.585 1.647,-1.101 2.589,-1.441 2.068,-0.747 4.055,0.201 4.774,2.284 0.262,0.756 0.362,1.537 0.36,2.335 l -0.019,5.298 c -0.001,0.437 0.144,0.686 0.56,0.822 0.467,0.153 0.951,0.258 1.477,0.396 l -0.122,0.911 c -0.598,0 -1.148,-0.004 -1.698,0.001 -1.344,0.012 -2.688,0.019 -4.031,0.05 -0.234,0.006 -0.295,-0.052 -0.307,-0.271 -0.039,-0.701 -0.045,-0.7 0.615,-0.858 l 0.222,-0.057 c 0.645,-0.176 0.86,-0.374 0.865,-1.028 0.015,-1.878 0.054,-3.761 -0.041,-5.635 -0.099,-1.944 -1.642,-2.979 -3.526,-2.481 -0.615,0.162 -1.172,0.446 -1.69,0.814 -0.175,0.125 -0.208,0.269 -0.194,0.488 0.053,0.828 0.086,1.657 0.093,2.486 0.012,1.451 -0.006,2.902 0,4.354 0.002,0.588 0.203,0.813 0.784,0.949 l 0.863,0.199 0.16,0.036 c 0.012,0.276 0.023,0.552 0.01,0.828 -0.008,0.173 -0.142,0.188 -0.292,0.185 -0.839,-0.021 -1.679,-0.049 -2.518,-0.047 -1.021,0.002 -2.041,0.031 -3.061,0.049 h -0.24 c 0,-0.293 -0.014,-0.573 0.01,-0.852 0.005,-0.067 0.123,-0.161 0.204,-0.182 l 1.006,-0.213 c 0.427,-0.105 0.631,-0.324 0.655,-0.758 0.114,-2.01 0.196,-4.021 0.007,-6.03 -0.037,-0.39 -0.164,-0.786 -0.326,-1.145 -0.515,-1.138 -1.674,-1.613 -3.011,-1.271 -0.635,0.162 -1.208,0.453 -1.75,0.82 -0.256,0.174 -0.378,0.404 -0.378,0.695 0,2.005 0.007,4.01 0.013,6.014 l 0.011,0.773 c 0.012,0.539 0.241,0.823 0.776,0.939 0.344,0.078 0.692,0.131 1.082,0.203 z"
         id="path51" />
      <path
         style="clip-rule:evenodd;fill:#4f382b;fill-rule:evenodd"
         d="m 71.001,105.285 c 0.155,0.754 0.152,1.432 -0.402,1.946 -0.55,0.511 -1.246,0.339 -1.925,0.225 0.063,0.358 0.133,0.662 0.167,0.97 0.247,2.289 -0.738,3.988 -2.861,4.959 -0.802,0.366 -1.653,0.502 -2.522,0.572 -0.432,0.034 -0.81,0.364 -0.851,0.719 -0.042,0.36 0.184,0.73 0.636,0.838 0.533,0.127 1.089,0.163 1.636,0.226 1.174,0.134 2.361,0.195 3.521,0.405 1.754,0.316 2.733,1.847 2.424,3.609 -0.275,1.568 -1.183,2.709 -2.449,3.584 -2.133,1.478 -4.473,1.91 -6.965,1.156 -1.425,-0.432 -2.43,-1.369 -2.777,-2.885 -0.174,-0.759 0.011,-1.446 0.582,-1.961 0.679,-0.61 1.418,-1.154 2.129,-1.73 l 0.23,-0.231 -0.264,-0.185 c -0.725,-0.344 -1.305,-0.815 -1.53,-1.633 -0.077,-0.277 0.003,-0.459 0.238,-0.601 0.4,-0.241 0.798,-0.486 1.193,-0.735 0.186,-0.116 0.37,-0.236 0.543,-0.37 0.236,-0.18 0.215,-0.314 -0.067,-0.418 -0.656,-0.242 -1.239,-0.593 -1.691,-1.133 -0.755,-0.901 -0.969,-1.974 -0.907,-3.107 0.097,-1.77 1.058,-2.936 2.62,-3.686 1.857,-0.891 3.72,-0.947 5.613,-0.135 0.7,0.3 1.438,0.364 2.189,0.312 0.561,-0.04 1.051,-0.252 1.49,-0.711 z m -6.843,12.681 c -1.394,-0.012 -1.831,0.16 -2.649,0.993 -0.916,0.934 -0.911,2.229 0.003,3.167 0.694,0.711 1.56,1.044 2.523,1.144 1.125,0.116 2.233,0.069 3.255,-0.494 1.09,-0.603 1.632,-1.723 1.387,-2.851 -0.203,-0.931 -0.889,-1.357 -1.724,-1.602 -0.95,-0.278 -1.932,-0.331 -2.795,-0.357 z m -2.738,-8.908 c 0.051,0.387 0.072,0.779 0.158,1.158 0.223,0.982 0.65,1.845 1.627,2.282 1.147,0.515 2.612,0.294 3.114,-1.316 0.344,-1.103 0.302,-2.198 -0.113,-3.274 -0.185,-0.48 -0.483,-0.886 -0.91,-1.184 -0.996,-0.695 -2.793,-0.787 -3.525,0.749 -0.238,0.499 -0.331,1.03 -0.351,1.585 z"
         id="path53" />
      <path
         style="clip-rule:evenodd;fill:#4f372b;fill-rule:evenodd"
         d="m 47.35,105.038 c 0.037,0.171 0.111,0.365 0.113,0.56 0.003,0.371 -0.037,0.742 -0.058,1.113 v 0.322 l 0.314,-0.24 c 0.86,-0.708 1.784,-1.311 2.86,-1.636 1.942,-0.585 3.882,0.478 4.515,2.456 0.24,0.752 0.335,1.525 0.344,2.311 0.02,1.746 0.032,3.492 0.05,5.238 0.006,0.627 0.078,0.739 0.671,0.92 0.336,0.103 0.683,0.175 1.03,0.229 0.191,0.03 0.273,0.105 0.263,0.292 l 0.002,0.172 c -0.007,0.723 -0.057,0.756 -0.758,0.754 -1.678,-0.003 -3.355,0.007 -5.033,0.021 -0.5,0.004 -0.501,0.019 -0.551,-0.475 l -0.01,-0.284 c 0.031,-0.426 0.041,-0.422 0.46,-0.484 0.282,-0.042 0.562,-0.107 0.837,-0.179 0.283,-0.073 0.419,-0.282 0.457,-0.562 0.019,-0.142 0.044,-0.284 0.043,-0.426 -0.024,-1.908 0.007,-3.818 -0.097,-5.723 -0.084,-1.541 -1.26,-2.459 -2.807,-2.354 -0.759,0.053 -1.445,0.306 -2.071,0.743 -0.413,0.289 -0.496,0.706 -0.494,1.155 0.008,1.784 0.025,3.568 0.044,5.353 0.004,0.391 0.015,0.782 0.052,1.17 0.039,0.424 0.188,0.595 0.604,0.687 0.398,0.088 0.804,0.139 1.229,0.21 l 0.036,0.328 c 0.014,0.765 -0.066,0.822 -0.809,0.819 -1.735,-0.007 -3.47,0.004 -5.204,0.023 -0.273,0.004 -0.389,-0.082 -0.382,-0.348 l -0.004,-0.114 c -0.045,-0.689 -0.025,-0.715 0.627,-0.827 l 0.308,-0.062 c 0.706,-0.159 0.887,-0.347 0.897,-1.064 0.033,-2.271 0.045,-4.541 0.068,-6.812 0.003,-0.326 -0.12,-0.579 -0.424,-0.714 -0.426,-0.188 -0.856,-0.367 -1.287,-0.544 -0.238,-0.098 -0.51,-0.16 -0.519,-0.489 -0.006,-0.232 0.242,-0.437 0.581,-0.506 0.681,-0.138 1.368,-0.253 2.041,-0.422 0.67,-0.167 1.328,-0.391 2.062,-0.611 z"
         id="path55" />
      <path
         style="clip-rule:evenodd;fill:#4f382b;fill-rule:evenodd"
         d="m 84.865,110.97 c -0.032,2.121 -0.583,3.836 -2.083,5.123 -1.9,1.633 -4.864,2.188 -7.287,0.967 -1.034,-0.521 -1.794,-1.32 -2.289,-2.357 -0.759,-1.595 -0.949,-3.272 -0.553,-4.99 0.392,-1.699 1.421,-2.93 2.961,-3.727 1.584,-0.819 3.252,-1.139 5.011,-0.709 2.225,0.543 3.824,2.357 4.142,4.667 0.057,0.405 0.079,0.815 0.098,1.026 z m -2.577,1.149 -0.086,-0.01 c 0,-0.2 0.011,-0.4 -0.002,-0.6 -0.073,-1.246 -0.353,-2.433 -1.075,-3.476 -0.685,-0.988 -1.618,-1.571 -2.832,-1.656 -1.359,-0.096 -2.501,0.664 -2.902,2.052 -0.602,2.084 -0.398,4.115 0.66,6.024 0.461,0.832 1.144,1.446 2.059,1.769 1.793,0.631 3.383,-0.186 3.85,-2.022 0.172,-0.678 0.222,-1.387 0.328,-2.081 z"
         id="path57" />
      <path
         style="clip-rule:evenodd;fill:#4f372b;fill-rule:evenodd"
         d="m 40.819,111.134 c -0.037,1.522 -0.396,2.929 -1.336,4.152 -1.007,1.31 -2.391,2.01 -3.965,2.305 -1.861,0.348 -3.609,0.032 -5.104,-1.217 -0.71,-0.594 -1.195,-1.355 -1.515,-2.221 -0.525,-1.42 -0.656,-2.875 -0.333,-4.358 0.345,-1.587 1.241,-2.8 2.63,-3.614 1.606,-0.939 3.339,-1.358 5.19,-0.936 2.38,0.544 3.754,2.095 4.262,4.443 0.102,0.474 0.116,0.964 0.171,1.446 z m -2.606,1.004 -0.069,-0.01 v -0.286 c -0.039,-1.396 -0.312,-2.726 -1.145,-3.886 -0.617,-0.861 -1.443,-1.401 -2.502,-1.552 -1.726,-0.246 -2.854,0.778 -3.228,2.169 -0.488,1.817 -0.335,3.612 0.42,5.335 0.471,1.074 1.215,1.911 2.358,2.317 1.782,0.633 3.396,-0.205 3.847,-2.034 0.166,-0.669 0.216,-1.367 0.319,-2.053 z"
         id="path59" />
      <path
         style="clip-rule:evenodd;fill:#439934;fill-rule:evenodd"
         d="m 82.362,33.544 c 1.227,3.547 2.109,7.168 2.4,10.92 0.36,4.656 0.196,9.28 -0.786,13.859 l -0.126,0.366 c -0.308,10e-4 -0.622,-0.038 -0.923,0.009 -2.543,0.4 -5.083,0.814 -7.624,1.226 -2.627,0.426 -5.256,0.835 -7.878,1.289 -0.929,0.16 -2.079,-0.031 -2.454,1.253 l -0.18,0.061 0.127,-7.678 -0.129,-18.526 1.224,-0.21 c 2.001,-0.327 4.002,-0.66 6.006,-0.979 2.39,-0.379 4.782,-0.749 7.174,-1.119 1.056,-0.162 2.113,-0.313 3.169,-0.471 z"
         id="path61" />
      <path
         style="clip-rule:evenodd;fill:#45a538;fill-rule:evenodd"
         d="M 62.265,84.911 C 60.974,83.801 59.638,82.74 58.401,81.572 51.743,75.292 46.872,67.899 44.473,58.986 43.812,56.534 43.372,54.041 43.23,51.507 c -0.1,-1.774 -0.243,-3.563 -0.117,-5.328 0.333,-4.693 1.012,-9.341 2.388,-13.862 l 0.076,-0.105 c 0.134,0.178 0.326,0.336 0.394,0.537 1.344,3.956 2.677,7.916 4.004,11.879 4.169,12.451 8.333,24.905 12.509,37.354 0.082,0.243 0.293,0.442 0.445,0.661 z"
         id="path63" />
      <path
         style="clip-rule:evenodd;fill:#46a037;fill-rule:evenodd"
         d="m 82.362,33.544 c -1.057,0.157 -2.114,0.309 -3.169,0.471 -2.392,0.37 -4.784,0.74 -7.174,1.119 -2.003,0.318 -4.004,0.651 -6.006,0.979 l -1.224,0.21 -0.01,-0.798 C 64.738,34.869 64.67,34.213 64.661,33.557 L 64.524,21.003 C 64.492,18.384 64.444,15.765 64.391,13.147 64.358,11.52 64.323,9.892 64.25,8.267 64.21,7.394 64.069,6.525 64.013,5.652 63.98,5.15 64.024,4.644 64.035,4.14 c 0.624,1.209 1.235,2.427 1.876,3.627 1.013,1.897 2.628,3.295 4.083,4.82 5.746,6.031 9.825,13.039 12.368,20.957 z"
         id="path65" />
      <path
         style="clip-rule:evenodd;fill:#409433;fill-rule:evenodd"
         d="m 64.792,62.527 0.18,-0.061 c 0.375,-1.284 1.525,-1.093 2.454,-1.253 2.622,-0.454 5.251,-0.863 7.878,-1.289 2.541,-0.411 5.081,-0.825 7.624,-1.226 0.301,-0.047 0.615,-0.008 0.923,-0.009 -0.475,1.696 -0.849,3.429 -1.452,5.078 -0.685,1.87 -1.513,3.696 -2.392,5.486 -1.314,2.675 -2.951,5.171 -4.853,7.458 -1.466,1.762 -3.1,3.393 -4.737,5.002 -0.906,0.889 -1.972,1.614 -2.966,2.414 L 67.193,83.951 66.266,83.159 65.307,81.055 C 64.646,78.593 64.3,76.087 64.242,73.539 l 0.018,-0.428 0.131,-1.854 c 0.043,-0.633 0.101,-1.265 0.128,-1.898 0.096,-2.276 0.182,-4.554 0.273,-6.832 z"
         id="path67" />
      <path
         style="clip-rule:evenodd;fill:#4faa41;fill-rule:evenodd"
         d="m 64.792,62.527 c -0.09,2.278 -0.176,4.557 -0.273,6.835 -0.027,0.634 -0.084,1.266 -0.128,1.898 l -0.584,0.221 C 62.509,67.66 61.21,63.879 59.94,60.089 57.839,53.818 55.764,47.538 53.666,41.265 51.973,36.203 50.265,31.144 48.548,26.089 48.467,25.853 48.237,25.667 48.077,25.458 l 3.74,-6.877 c 0.129,0.223 0.298,0.432 0.379,0.672 1.73,5.12 3.457,10.241 5.169,15.367 2.228,6.67 4.441,13.343 6.667,20.014 0.089,0.266 0.235,0.512 0.375,0.811 l 0.512,-0.596 c -0.043,2.56 -0.085,5.118 -0.127,7.678 z"
         id="path69" />
      <path
         style="clip-rule:evenodd;fill:#4aa73c;fill-rule:evenodd"
         d="m 48.076,25.458 c 0.161,0.209 0.391,0.395 0.471,0.631 1.717,5.055 3.425,10.113 5.118,15.176 2.098,6.273 4.173,12.553 6.274,18.824 1.27,3.79 2.569,7.57 3.867,11.392 l 0.584,-0.221 -0.131,1.854 -0.119,0.427 c -0.203,2.029 -0.374,4.062 -0.622,6.087 -0.124,1.015 -0.389,2.011 -0.59,3.015 C 62.777,82.424 62.565,82.225 62.483,81.982 58.306,69.533 54.143,57.079 49.974,44.628 48.647,40.665 47.313,36.705 45.97,32.749 45.902,32.548 45.71,32.39 45.576,32.212 Z"
         id="path71" />
      <path
         style="clip-rule:evenodd;fill:#57ae47;fill-rule:evenodd"
         d="m 64.918,54.849 -0.512,0.596 C 64.266,55.146 64.12,54.9 64.031,54.634 61.805,47.963 59.592,41.29 57.364,34.62 55.652,29.494 53.925,24.373 52.195,19.253 c -0.081,-0.24 -0.25,-0.449 -0.379,-0.672 l 4.625,-6.084 c 0.146,0.194 0.354,0.367 0.429,0.586 1.284,3.76 2.556,7.523 3.822,11.289 1.182,3.518 2.346,7.04 3.542,10.552 0.08,0.235 0.359,0.401 0.545,0.601 l 0.01,0.798 z"
         id="path73" />
      <path
         style="clip-rule:evenodd;fill:#60b24f;fill-rule:evenodd"
         d="M 64.779,35.525 C 64.592,35.326 64.314,35.16 64.234,34.924 63.039,31.412 61.874,27.89 60.692,24.372 59.426,20.606 58.154,16.843 56.87,13.083 56.795,12.864 56.587,12.691 56.441,12.497 57.945,11.024 59.402,9.498 60.967,8.093 62.358,6.845 63.476,5.507 63.528,3.534 l 0.11,-0.393 0.396,0.998 c -0.01,0.504 -0.055,1.01 -0.022,1.512 0.057,0.873 0.198,1.742 0.237,2.615 0.073,1.625 0.108,3.253 0.141,4.88 0.053,2.618 0.101,5.237 0.133,7.856 l 0.137,12.554 c 0.01,0.657 0.079,1.313 0.119,1.969 z"
         id="path75" />
      <path
         style="clip-rule:evenodd;fill:#a9aa88;fill-rule:evenodd"
         d="m 62.929,82.642 c 0.201,-1.004 0.466,-2 0.59,-3.015 0.248,-2.024 0.419,-4.058 0.622,-6.087 l 0.051,-0.008 0.05,0.009 c 0.058,2.548 0.404,5.054 1.065,7.516 -0.135,0.178 -0.324,0.335 -0.396,0.535 -0.555,1.566 -1.079,3.145 -1.637,4.71 -0.076,0.214 -0.29,0.381 -0.439,0.568 l -0.571,-1.96 z"
         id="path77" />
      <path
         style="clip-rule:evenodd;fill:#b6b598;fill-rule:evenodd"
         d="m 62.835,86.871 c 0.149,-0.188 0.363,-0.354 0.439,-0.568 0.558,-1.565 1.082,-3.144 1.637,-4.71 0.071,-0.2 0.261,-0.357 0.396,-0.535 l 0.959,2.104 c -0.189,0.268 -0.451,0.511 -0.556,0.81 l -1.836,5.392 c -0.076,0.217 -0.333,0.369 -0.507,0.552 z"
         id="path79" />
      <path
         style="clip-rule:evenodd;fill:#c2c1a7;fill-rule:evenodd"
         d="m 63.367,89.915 c 0.173,-0.183 0.431,-0.335 0.507,-0.552 l 1.836,-5.392 c 0.104,-0.299 0.367,-0.542 0.556,-0.81 l 0.928,0.791 c -0.448,0.443 -0.697,0.955 -0.547,1.602 l -0.282,0.923 c -0.128,0.158 -0.314,0.296 -0.377,0.477 -0.641,1.836 -1.252,3.682 -1.898,5.517 -0.082,0.232 -0.309,0.415 -0.468,0.621 z"
         id="path81" />
      <path
         style="clip-rule:evenodd;fill:#cecdb7;fill-rule:evenodd"
         d="m 63.621,93.091 c 0.16,-0.206 0.387,-0.389 0.468,-0.621 0.646,-1.835 1.258,-3.681 1.898,-5.517 0.063,-0.181 0.249,-0.318 0.377,-0.477 l -0.389,4.236 c -0.104,0.12 -0.254,0.225 -0.304,0.364 l -1.294,3.708 c -0.091,0.253 -0.265,0.479 -0.401,0.716 -0.121,-0.158 -0.337,-0.311 -0.347,-0.475 -0.038,-0.642 -0.011,-1.289 -0.008,-1.934 z"
         id="path83" />
      <path
         style="clip-rule:evenodd;fill:#dbdac7;fill-rule:evenodd"
         d="m 63.977,95.501 c 0.136,-0.237 0.31,-0.463 0.401,-0.716 l 1.294,-3.708 c 0.05,-0.14 0.201,-0.244 0.304,-0.364 l 0.01,2.78 -0.931,2.387 z"
         id="path85" />
      <path
         style="clip-rule:evenodd;fill:#ebe9dc;fill-rule:evenodd"
         d="m 65.055,95.88 0.931,-2.387 0.192,2.824 z"
         id="path87" />
      <path
         style="clip-rule:evenodd;fill:#cecdb7;fill-rule:evenodd"
         d="m 66.646,85.554 c -0.149,-0.646 0.099,-1.158 0.547,-1.602 l 0.258,0.176 z"
         id="path89" />
      <path
         style="clip-rule:evenodd;fill:#4faa41;fill-rule:evenodd"
         d="m 64.242,73.542 -0.05,-0.009 -0.051,0.008 0.119,-0.427 z"
         id="path91" />
    </g>
  </g>
</svg>
