<?xml version="1.0" encoding="UTF-8" standalone="no"?>
<svg
   xmlns:dc="http://purl.org/dc/elements/1.1/"
   xmlns:cc="http://creativecommons.org/ns#"
   xmlns:rdf="http://www.w3.org/1999/02/22-rdf-syntax-ns#"
   xmlns:svg="http://www.w3.org/2000/svg"
   xmlns="http://www.w3.org/2000/svg"
   id="svg2969"
   version="1.1"
   viewBox="0 0 59.197399 30"
   height="30mm"
   width="59.197399mm">
  <defs
     id="defs2963" />
  <metadata
     id="metadata2966">
    <rdf:RDF>
      <cc:Work
         rdf:about="">
        <dc:format>image/svg+xml</dc:format>
        <dc:type
           rdf:resource="http://purl.org/dc/dcmitype/StillImage" />
        <dc:title></dc:title>
      </cc:Work>
    </rdf:RDF>
  </metadata>
  <g
     transform="translate(63.561653,-194.94643)"
     id="layer1">
    <path
       style="fill:#6181b6;stroke-width:0.48447835"
       d="m -33.963053,194.94643 c -16.3462,0 -29.5986,6.7159 -29.5986,15 0,8.2841 13.2524,15 29.5986,15 16.346402,0 29.5988006,-6.7159 29.5988006,-15 0,-8.2841 -13.2523986,-15 -29.5988006,-15 z m -7.7016,17.9224 c -0.7064,0.6609 -1.4909,0.9335 -2.3546,1.2146 -0.8639,0.2814 -1.9631,0.2232 -3.2998,0.2232 h -3.0294 l -0.8397,4.8449 h -3.5372 l 3.1565,-16.4724 h 6.802 c 2.0464,0 3.5391,0.5887 4.4776,1.6629 0.9384,1.0741 1.2204,2.5987 0.8463,4.5235 -0.1538,0.7931 -0.4146,1.5304 -0.7819,2.1874 -0.3677,0.6574 -0.8478,1.2714 -1.4398,1.8159 z m 10.324699,1.4378 1.395802,-6.986 c 0.1593,-0.8179 0.1007,-1.4253 -0.1758,-1.7223 -0.276101,-0.2976 -0.8631,-0.4966 -1.7609,-0.4966 h -2.805301 l -1.8075,9.2049 h -3.5096 l 3.1564,-15.9877 h 3.5095 l -0.839,4.3602 h 3.1262 c 1.9676,0 3.324201,0.395 4.0708,1.0809 0.7465,0.6861 0.970301,1.626 0.672002,3.1627 l -1.468602,7.3839 z m 19.504703,-5.4155 c -0.153901,0.7933 -0.414801,1.518 -0.781601,2.1745 -0.3673,0.6573 -0.846801,1.2587 -1.439399,1.8032 -0.706401,0.6609 -1.491203,0.9335 -2.354601,1.2146 -0.863399,0.2814 -1.9635,0.2232 -3.300201,0.2232 h -3.029501 l -0.838999,4.8449 h -3.537198 l 3.155899,-16.4724 h 6.802599 c 2.046401,0 3.539101,0.5887 4.477002,1.6629 0.937498,1.0741 1.219898,2.6248 0.846,4.5491 z m -6.663601,-3.7894 h -2.4229 l -1.321102,6.7826 h 2.152002 c 1.4254,0 2.4883,-0.141 3.185999,-0.6783 0.6985,-0.5367 1.169,-1.37 1.4136,-2.6263 0.2346,-1.2069 0.128201,-2.1483 -0.319699,-2.6443 -0.4483,-0.4961 -1.344001,-0.8337 -2.6879,-0.8337 z m -27.608001,0 h -2.4235 l -1.3211,6.7826 h 2.1515 c 1.4259,0 2.4883,-0.141 3.1865,-0.6783 0.6982,-0.5367 1.169,-1.37 1.4132,-2.6263 0.2346,-1.2069 0.1282,-2.1483 -0.3197,-2.6443 -0.4477,-0.4961 -1.3431,-0.8337 -2.6869,-0.8337 z"
       id="path1197" />
  </g>
</svg>
