<?xml version="1.0" encoding="UTF-8" standalone="no"?>
<svg
   xmlns:dc="http://purl.org/dc/elements/1.1/"
   xmlns:cc="http://creativecommons.org/ns#"
   xmlns:rdf="http://www.w3.org/1999/02/22-rdf-syntax-ns#"
   xmlns:svg="http://www.w3.org/2000/svg"
   xmlns="http://www.w3.org/2000/svg"
   id="svg225"
   version="1.1"
   viewBox="0 0 29.64752 29.897917"
   height="29.897917mm"
   width="29.64752mm">
  <defs
     id="defs219" />
  <metadata
     id="metadata222">
    <rdf:RDF>
      <cc:Work
         rdf:about="">
        <dc:format>image/svg+xml</dc:format>
        <dc:type
           rdf:resource="http://purl.org/dc/dcmitype/StillImage" />
        <dc:title></dc:title>
      </cc:Work>
    </rdf:RDF>
  </metadata>
  <g
     transform="translate(214.39519,-72.65223)"
     id="layer1">
    <g
       transform="matrix(0.40597937,0,0,0.40597937,-213.43849,140.70832)"
       id="g189">
      <path
         id="path209"
         d="m 12.692246,-94.158868 c -8.0185556,-0.84927 -13.34007203,-5.851872 -14.808076,-13.920632 -0.1948141,-1.07078 -0.240687,-5.44116 -0.240687,-22.93056 v -21.60763 l 0.4066718,-1.85209 c 0.7756416,-3.53246 2.03858389,-5.88647 4.4477871,-8.29028 2.3848245,-2.37947 4.7140597,-3.61854 8.1715731,-4.34697 2.660311,-0.56047 40.31071,-0.73936 45.083938,-0.2142 4.229495,0.46533 7.406806,1.92 10.016113,4.58567 2.398192,2.45 3.630023,4.80584 4.368159,8.35398 0.392816,1.88822 0.428161,3.40716 0.51099,21.96041 0.07677,17.19725 -0.03787,22.8868 -0.506077,25.1158 -0.734584,3.49711 -2.251246,6.36014 -4.588964,8.662675 -2.727718,2.686664 -5.704512,3.998839 -10.179976,4.487346 -2.034402,0.22206 -40.581606,0.218881 -42.681452,-0.0035 z m 3.913043,-13.703822 c 0,-0.0748 -0.714271,-0.84693 -1.587269,-1.71588 l -1.587269,-1.57992 -1.406046,1.3978 c -0.773325,0.76879 -1.362888,1.44172 -1.310139,1.4954 0.07655,0.0779 2.598242,0.3126 5.493848,0.51133 0.218281,0.015 0.396875,-0.0339 0.396875,-0.10873 z m 1.510994,-1.86102 c -0.459627,-2.19019 -0.471133,-2.16634 1.575811,-3.2669 6.511445,-3.50095 11.454534,-6.67622 14.552083,-9.34775 l 0.617361,-0.53246 -1.229991,-1.24739 c -0.731723,-0.74208 -1.374817,-1.2458 -1.5875,-1.24345 -0.196629,0.002 -1.52706,0.26015 -2.956511,0.57327 l -2.599003,0.56931 -6.093298,6.07749 -6.0933,6.07749 1.980745,1.98638 c 1.089408,1.09251 2.017087,1.95004 2.061507,1.90562 0.04442,-0.0444 -0.05814,-0.74264 -0.227904,-1.55161 z m 21.186407,-17.3813 c 4.755867,-4.7319 7.281273,-7.83432 8.535737,-10.48601 0.501747,-1.06059 0.62839,-1.53292 0.411012,-1.53292 -0.05822,0 -3.213371,2.72533 -7.011458,6.0563 -3.798085,3.33097 -7.140094,6.25784 -7.426687,6.50416 l -0.521075,0.44785 1.122299,1.16876 c 0.617264,0.64282 1.217727,1.16876 1.33436,1.16876 0.116634,0 1.716749,-1.49711 3.555812,-3.3269 z m -9.247749,0.84454 c 0.55783,-0.12078 1.014236,-0.27151 1.014236,-0.33493 0,-0.0634 -0.240192,-0.34544 -0.533761,-0.6267 l -0.533762,-0.51137 -0.921447,0.93979 c -0.790672,0.80641 -0.858862,0.92652 -0.480474,0.84631 0.242535,-0.0514 0.897378,-0.19231 1.455208,-0.3131 z m 10.349407,-7.64823 c 8.523871,-7.46632 8.466587,-7.40269 7.832675,-8.69997 -0.390431,-0.79901 -1.340779,-1.20589 -2.130957,-0.91236 -0.496385,0.1844 -15.036889,14.57705 -15.036889,14.88399 0,0.20847 1.250372,1.50754 1.451034,1.50754 0.07959,0 3.627453,-3.05064 7.884137,-6.7792 z m -13.259823,5.2752 c 0.800364,-0.171 1.455208,-0.36623 1.455208,-0.43383 0,-0.0676 -0.521947,-0.62412 -1.159882,-1.2367 l -1.159882,-1.11377 -1.750535,1.74397 c -0.962794,0.95918 -1.750534,1.79713 -1.750534,1.86211 0,0.065 0.654843,-0.0234 1.455208,-0.19636 0.800365,-0.17297 2.110052,-0.45441 2.910417,-0.62542 z m 10.360092,-8.36414 c 4.178861,-4.17187 7.641875,-7.48927 7.940255,-7.60638 l 0.529166,-0.2077 -0.705555,-0.33692 c -2.43743,-1.16392 -6.552188,1.56861 -15.579983,10.34637 l -2.581957,2.51044 1.30557,1.34644 c 0.718065,0.74055 1.390137,1.34645 1.493494,1.34645 0.103357,0 3.522911,-3.32942 7.59901,-7.3987 z m 16.377563,-6.39158 c 0.284253,-0.15173 0.08666,-0.41494 -1.631597,-2.17335 -1.07526,-1.1004 -1.955017,-2.10711 -1.955017,-2.23715 0,-0.13003 1.150938,-1.38531 2.557639,-2.7895 1.406702,-1.40419 2.557639,-2.65772 2.557639,-2.7856 0,-0.30847 -1.64268,-1.03922 -2.668893,-1.18726 -1.841371,-0.26564 -4.109728,0.71355 -5.295944,2.2861 -2.995519,3.97113 0.185898,9.63378 5.142615,9.15342 0.533576,-0.0517 1.115677,-0.17171 1.293558,-0.26666 z m 2.214995,-1.30186 c 0.295354,-0.24853 0.796495,-0.97896 1.113644,-1.62318 0.500044,-1.01573 0.575786,-1.34814 0.570249,-2.50265 -0.0065,-1.36594 -0.423455,-2.67046 -1.088171,-3.40497 -0.278335,-0.30755 -0.397489,-0.21734 -2.550901,1.93129 -1.242411,1.23966 -2.25893,2.33302 -2.25893,2.42969 0,0.19604 3.362606,3.62168 3.555032,3.62168 0.06714,0 0.363723,-0.20334 0.659077,-0.45186 z m -0.503947,-2.27495 c -0.143137,-0.17247 -0.166197,-0.44882 -0.06991,-0.83784 0.07902,-0.31927 0.145572,-0.88814 0.147893,-1.26416 0.0057,-0.93143 0.495208,-1.26114 0.985409,-0.6638 0.609339,0.74251 0.313471,2.61681 -0.459925,2.91359 -0.375462,0.14408 -0.357606,0.14845 -0.603464,-0.14779 z"
         style="fill:#fac8b0;stroke-width:0.17638889" />
      <path
         id="path207"
         d="m 13.227815,-94.506913 c -4.4003557,-0.375569 -7.7365612,-1.790901 -10.5220797,-4.463824 -1.2207161,-1.171373 -2.78297767,-3.379813 -3.38783845,-4.789103 -0.65830905,-1.53383 -1.20604125,-3.69845 -1.38990195,-5.49285 -0.2248542,-2.19448 -0.3523417,-24.73285 -0.1998955,-35.33931 0.1063597,-7.39998 0.1462671,-8.16975 0.5118756,-9.87342 0.4825832,-2.24875 1.19357175,-4.00361 2.32309582,-5.73387 2.05392818,-3.1463 5.32856178,-5.46246 9.07494478,-6.41873 2.7652574,-0.70583 4.5366024,-0.75265 25.9290784,-0.6854 19.940586,0.0627 20.501555,0.0736 22.050901,0.42943 3.252888,0.74705 5.720928,2.03964 7.855057,4.11393 2.749504,2.67243 4.248799,5.88512 4.765148,10.21077 0.314378,2.63366 0.32663,41.40456 0.01378,43.58785 -0.633804,4.42304 -2.104425,7.40814 -5.008822,10.167037 -2.250477,2.137733 -4.919587,3.446462 -8.294359,4.066928 -1.460197,0.268462 -3.687188,0.302382 -21.822671,0.332391 -11.108091,0.01838 -20.962328,-0.03194 -21.898307,-0.111829 z m 3.553862,-13.260597 c 0,-0.24587 -3.17165,-3.48699 -3.412259,-3.48699 -0.25447,0 -2.937741,2.68625 -2.937741,2.941 0,0.1287 0.01984,0.24192 0.0441,0.2516 0.03616,0.0144 1.534745,0.13619 5.997222,0.48728 0.169774,0.0134 0.30868,-0.0734 0.30868,-0.19289 z m 1.527967,-1.80969 c -0.513364,-2.3363 -0.570007,-2.21736 1.602936,-3.36599 5.082388,-2.68657 9.398723,-5.37465 12.754772,-7.94328 2.662406,-2.03773 2.583921,-1.78603 1.041199,-3.33912 -0.719195,-0.72402 -1.443178,-1.31641 -1.608852,-1.31641 -0.165675,0 -1.552285,0.27381 -3.081358,0.60847 l -2.780132,0.60848 -5.885768,5.87382 c -3.237172,3.2306 -5.967615,6.02135 -6.067652,6.20168 -0.155604,0.28048 0.113599,0.62334 1.862867,2.37261 2.403512,2.40351 2.631195,2.43508 2.161988,0.29974 z m 20.087754,-16.37971 c 4.634874,-4.43493 8.124607,-8.61366 9.405645,-11.26264 0.895747,-1.85226 1.032851,-2.31039 0.667145,-2.22929 -0.287859,0.0638 -15.284344,13.15976 -15.284344,13.3473 0,0.19235 2.363936,2.49982 2.56099,2.49982 0.104061,0 1.296813,-1.05983 2.650564,-2.35519 z m -8.716872,-0.0482 c 0.715252,-0.15769 1.375708,-0.35597 1.467682,-0.44063 0.177899,-0.16376 -0.889486,-1.38935 -1.210004,-1.38935 -0.263391,0 -1.867638,1.62307 -1.867638,1.88955 0,0.28737 0.04353,0.28576 1.60996,-0.0596 z m 10.508941,-7.50183 c 4.054639,-3.55609 7.600396,-6.70623 7.879459,-7.00031 0.995873,-1.04948 0.558772,-2.68807 -0.842198,-3.15723 -0.534744,-0.17907 -0.760984,-0.17423 -1.241596,0.0266 -0.356867,0.1491 -3.477403,3.13591 -7.944843,7.60436 l -7.357142,7.35882 0.852577,0.86559 c 0.468918,0.47607 0.949124,0.84359 1.067125,0.81669 0.118,-0.0269 3.531979,-2.95843 7.586618,-6.51451 z m -14.323762,5.31041 c 1.455209,-0.30771 2.722882,-0.63172 2.817052,-0.72002 0.107427,-0.10074 -0.303034,-0.63481 -1.101686,-1.43346 l -1.272903,-1.27291 -1.931751,1.92577 c -1.795708,1.79013 -2.176812,2.35367 -1.450381,2.14464 0.161609,-0.0465 1.484461,-0.33631 2.939669,-0.64402 z m 11.635153,-8.6047 c 4.539932,-4.51776 7.637115,-7.46684 7.988111,-7.60612 0.697779,-0.27689 0.715887,-0.43589 0.0959,-0.84207 -0.838244,-0.54918 -2.391978,-0.40616 -3.94982,0.36359 -2.505597,1.23803 -6.385368,4.44312 -11.7124,9.67562 l -2.998611,2.9454 1.406973,1.42112 c 0.773835,0.7816 1.485279,1.4211 1.580985,1.4211 0.09571,0 3.510693,-3.32038 7.588862,-7.37864 z m 16.4433,-6.39209 c 0.224594,-0.0854 0.408353,-0.25779 0.408353,-0.38312 0,-0.12532 -0.873125,-1.09827 -1.940278,-2.16212 -1.067153,-1.06384 -1.940278,-2.01602 -1.940278,-2.11594 0,-0.0999 1.150938,-1.33056 2.557639,-2.73475 1.406701,-1.40419 2.557639,-2.67894 2.557639,-2.83277 0,-0.3543 -1.231112,-0.97508 -2.45373,-1.23728 -2.485847,-0.53312 -5.328135,0.91276 -6.448099,3.28017 -1.360067,2.87495 -0.193562,6.34835 2.614456,7.78484 0.471008,0.24095 1.185383,0.5065 1.5875,0.5901 0.785271,0.16326 2.391288,0.0639 3.056798,-0.18913 z m 2.43344,-1.59458 c 1.392678,-1.54153 1.919801,-3.53023 1.436132,-5.41818 -0.266009,-1.03833 -1.029033,-2.49984 -1.305119,-2.49984 -0.197169,0 -4.801934,4.6509 -4.801934,4.85005 0,0.24352 3.567991,3.79301 3.812782,3.79301 0.111712,0 0.497875,-0.32627 0.858139,-0.72504 z m -0.588733,-2.25167 c -0.175631,-0.11317 -0.20023,-0.31269 -0.09241,-0.74952 0.08081,-0.32742 0.148825,-0.90522 0.151146,-1.28402 0.0047,-0.76893 0.26066,-0.96992 0.689301,-0.54128 0.438087,0.43809 0.374896,1.72567 -0.111818,2.27836 -0.271716,0.30855 -0.472353,0.40204 -0.636215,0.29646 z"
         style="fill:#edb49d;stroke-width:0.17638889" />
      <path
         id="path205"
         d="m 15.194177,-94.849739 c -3.444564,-0.145316 -5.2949224,-0.444837 -7.2166423,-1.168171 -4.2296235,-1.592024 -7.57077002,-4.99433 -9.0293343,-9.19462 -1.16348,-3.35052 -1.2732967,-6.00501 -1.162114,-28.09058 0.093144,-18.50226 0.1305489,-19.51278 0.8226797,-22.225 1.4500782,-5.68235 5.8505998,-9.86216 11.7347169,-11.14617 1.357083,-0.29613 2.739582,-0.37204 9.525,-0.52295 9.327093,-0.20745 33.833326,-0.0545 36.159077,0.22569 7.182419,0.86524 12.235116,5.38945 13.765159,12.32537 0.522686,2.36942 0.632672,7.44336 0.569708,26.28195 -0.06867,20.54663 -0.04867,20.16127 -1.212882,23.36139 -1.600203,4.39853 -5.252916,7.860503 -9.769951,9.259764 -2.969226,0.919789 -3.233995,0.931226 -22.754167,0.982897 -9.99243,0.02645 -19.636493,-0.01386 -21.43125,-0.08957 z m 1.763889,-12.917771 c 0,-0.317 -3.207434,-3.48699 -3.528188,-3.48699 -0.405764,0 -3.286685,2.95746 -3.080045,3.16188 0.09352,0.0925 1.162226,0.24095 2.3749,0.32985 3.364121,0.24665 4.233333,0.24567 4.233333,-0.005 z m 1.665875,-0.2961 c 0.05456,-0.0883 -0.06745,-0.88428 -0.271125,-1.76889 -0.203678,-0.88461 -0.329243,-1.71544 -0.279032,-1.84629 0.05021,-0.13084 1.377956,-0.92703 2.950549,-1.76931 1.572593,-0.84228 3.662422,-2.01403 4.644065,-2.60388 4.226365,-2.53954 9.281335,-6.25942 9.281335,-6.83 0,-0.16904 -0.595642,-0.88491 -1.323649,-1.59082 -1.058356,-1.02623 -1.403045,-1.26358 -1.719791,-1.18423 -0.217879,0.0546 -1.547081,0.34344 -2.953782,0.64193 l -2.557639,0.5427 -6.129514,6.12293 c -3.371233,3.36762 -6.129514,6.2015 -6.129514,6.29752 0,0.25208 3.922213,4.14884 4.175949,4.14884 0.117124,0 0.257591,-0.0722 0.312148,-0.1605 z m 21.448658,-19.5356 c 4.953545,-5.02116 6.677311,-7.16421 8.025751,-9.97793 0.598764,-1.24942 0.774384,-2.07597 0.441085,-2.07597 -0.311737,0 -15.264781,13.24498 -15.318779,13.56893 -0.07895,0.47366 2.393031,2.69423 2.771018,2.48919 0.154537,-0.0838 1.990953,-1.88572 4.080925,-4.00422 z m -10.107798,1.60978 c 0.70228,-0.15703 1.319185,-0.35398 1.370898,-0.43765 0.138443,-0.22401 -0.958982,-1.40798 -1.305055,-1.40798 -0.404848,0 -2.211525,1.85252 -2.054485,2.10662 0.06825,0.11043 0.256322,0.16113 0.417933,0.11266 0.161609,-0.0485 0.868429,-0.21661 1.570709,-0.37365 z m 10.53897,-7.67634 c 4.369507,-3.82596 7.942578,-7.08583 8.036027,-7.33162 0.593127,-1.56004 -0.556556,-3.05121 -2.184146,-2.83291 -0.657082,0.0881 -1.239551,0.62684 -8.173377,7.55922 -4.106232,4.10538 -7.465875,7.54133 -7.465875,7.63544 0,0.19862 1.599653,1.85892 1.791021,1.85892 0.07072,0 3.669081,-3.10007 7.99635,-6.88905 z m -14.660317,5.57937 c 1.539984,-0.33205 2.886313,-0.69008 2.991843,-0.79561 0.138239,-0.13824 -0.150056,-0.53644 -1.031351,-1.42454 -0.672772,-0.67797 -1.343061,-1.23267 -1.489527,-1.23267 -0.321731,0 -3.888297,3.51612 -3.888297,3.8333 0,0.32376 0.312792,0.28893 3.417332,-0.38048 z m 11.576521,-8.49862 c 5.293785,-5.3079 7.529681,-7.43486 8.079406,-7.68578 0.872416,-0.3982 0.877442,-0.63244 0.02318,-1.08039 -0.445934,-0.23383 -0.895734,-0.302 -1.696247,-0.25705 -2.537816,0.14248 -6.034169,2.69618 -13.50679,9.86524 -1.819011,1.74511 -3.307292,3.30563 -3.307292,3.46783 0,0.25209 2.747054,3.02539 2.999408,3.02806 0.04894,5.3e-4 3.382695,-3.30154 7.408335,-7.33791 z m 16.244757,-6.44355 c 0.329771,-0.11026 0.674779,-0.2688 0.766681,-0.35231 0.100092,-0.091 -0.624905,-0.95458 -1.807986,-2.1537 -1.086295,-1.10103 -1.975083,-2.11231 -1.975083,-2.2473 0,-0.13499 1.170148,-1.41754 2.600329,-2.8501 2.918015,-2.92289 2.902398,-2.8808 1.358305,-3.6609 -1.261985,-0.63758 -3.300807,-0.70771 -4.751084,-0.16344 -1.432156,0.53747 -2.884974,1.98082 -3.412197,3.38995 -0.456893,1.22115 -0.506917,3.04515 -0.115022,4.19399 0.560062,1.64182 2.371309,3.36486 4.055086,3.8576 0.771174,0.22567 2.587559,0.21804 3.280971,-0.0138 z m 3.185348,-2.18017 c 1.365541,-1.79047 1.59529,-4.38475 0.566464,-6.39646 -0.298372,-0.58342 -0.654699,-1.03622 -0.844153,-1.07271 -0.228681,-0.044 -1.040768,0.64833 -2.68497,2.28914 -1.296423,1.29376 -2.357133,2.43734 -2.357133,2.54129 0,0.10395 0.871908,1.0482 1.937574,2.09833 2.213065,2.1808 2.14004,2.16914 3.382218,0.54041 z m -1.1724,-2.02545 c -0.05872,-0.095 -0.01752,-0.3395 0.09157,-0.54332 0.109081,-0.20382 0.172282,-0.70155 0.14045,-1.10608 -0.05014,-0.63719 -0.01073,-0.73549 0.294897,-0.73549 0.531028,0 0.740519,1.03948 0.382282,1.89687 -0.263983,0.6318 -0.681748,0.85604 -0.909196,0.48802 z"
         style="fill:#f99462;stroke-width:0.17638889" />
      <path
         id="path203"
         d="m 12.195566,-95.047462 c -5.5513814,-0.635155 -10.0909396,-3.738984 -12.43578359,-8.502708 -0.99650141,-2.02447 -1.43092201,-3.73204 -1.68737751,-6.63254 -0.2684207,-3.03582 -0.1154423,-40.54951 0.1737663,-42.61137 0.80061011,-5.70781 3.5394925,-9.79112 8.1723501,-12.1839 1.9727247,-1.01887 4.2526007,-1.60048 7.2389577,-1.8467 1.572086,-0.12961 8.787906,-0.1688 22.174198,-0.12044 21.836869,0.0789 21.054014,0.0405 24.192155,1.18579 2.238625,0.817 3.753518,1.80297 5.529373,3.59879 1.77289,1.79282 2.787885,3.41228 3.523652,5.62211 1.025961,3.08141 1.015339,2.84179 1.100439,24.82282 0.08164,21.08704 0.04228,22.58275 -0.666695,25.33612 -0.502962,1.95328 -1.72907,4.33039 -3.028964,5.87238 -2.647733,3.140868 -6.121792,4.916231 -10.713389,5.474913 -1.828713,0.222507 -41.616324,0.208571 -43.572682,-0.01526 z m 4.935067,-12.546968 c -0.0057,-0.32854 -3.392622,-3.83665 -3.704022,-3.83655 -0.147544,5e-5 -0.978172,0.71331 -1.845841,1.58501 -1.270621,1.27654 -1.534284,1.62833 -1.355062,1.80799 0.139984,0.14033 1.21717,0.29544 2.904174,0.41819 3.814043,0.27752 4.005143,0.27873 4.000751,0.0254 z m 1.493216,-0.9299 c -0.0054,-0.38593 -0.117965,-1.18527 -0.250033,-1.77631 -0.132065,-0.59104 -0.190644,-1.20355 -0.130175,-1.36113 0.06047,-0.15758 0.768298,-0.61652 1.57295,-1.01986 5.801148,-2.9079 15.075632,-9.04207 15.280654,-10.10667 0.09825,-0.51015 -2.378565,-2.93009 -2.998958,-2.93009 -0.263464,0 -1.654512,0.24564 -3.091219,0.54587 l -2.612196,0.54587 -6.217708,6.20007 c -3.41974,3.41005 -6.217709,6.27868 -6.217709,6.37475 0,0.31623 4.138671,4.33411 4.409722,4.28102 0.184288,-0.0361 0.261576,-0.26477 0.254672,-0.75352 z m 20.964167,-18.34706 c 4.780974,-4.75773 7.161961,-7.65534 8.546155,-10.40047 0.906577,-1.79792 1.07382,-3.04102 0.352792,-2.62226 -0.709357,0.41198 -15.477508,13.58445 -15.477508,13.80518 0,0.39075 2.356942,2.66361 2.762148,2.66361 0.223545,0 1.626727,-1.26702 3.816413,-3.44606 z m -10.106339,1.14072 c 1.596092,-0.36203 2.116667,-0.53408 2.116667,-0.69956 0,-0.29774 -1.265297,-1.58121 -1.558812,-1.58121 -0.336682,0 -2.321743,1.91811 -2.321743,2.24343 0,0.27149 0.669147,0.28566 1.763888,0.0373 z m 11.021639,-7.7564 c 4.173065,-3.65107 7.735683,-6.80665 7.916929,-7.01238 0.181249,-0.20574 0.364192,-0.71463 0.406543,-1.13088 0.144941,-1.42455 -1.043899,-2.56779 -2.471146,-2.37636 -0.657268,0.0882 -1.243974,0.63125 -8.261571,7.64743 -4.154734,4.15389 -7.55406,7.64058 -7.55406,7.7482 0,0.34971 1.924732,2.04115 2.158368,1.89676 0.119652,-0.074 3.631874,-3.1217 7.804937,-6.77277 z m -14.590873,5.52653 c 1.956682,-0.41593 3.11368,-0.74305 3.172779,-0.89706 0.112208,-0.29241 -2.380795,-2.85801 -2.777139,-2.85801 -0.44481,0 -4.126927,3.8002 -4.000738,4.12905 0.142233,0.37065 0.06373,0.37879 3.605098,-0.37398 z m 11.674484,-8.58381 c 5.833918,-5.81013 7.652461,-7.52178 8.166625,-7.68659 0.930348,-0.29822 0.87847,-0.7537 -0.142114,-1.24776 -2.234946,-1.08192 -5.188906,0.37599 -10.79245,5.32653 -3.132065,2.76707 -7.983144,7.5654 -7.983144,7.89633 0,0.29466 2.813946,3.18606 3.10071,3.18606 0.07986,0 3.522531,-3.36356 7.650373,-7.47457 z m 16.204402,-6.37879 c 0.643783,-0.19118 0.913959,-0.36153 0.913959,-0.57627 0,-0.16767 -0.873125,-1.17527 -1.940277,-2.23912 -1.067153,-1.06384 -1.940278,-2.01602 -1.940278,-2.11594 0,-0.0999 1.15322,-1.33159 2.562714,-2.73703 1.812131,-1.80694 2.548309,-2.65725 2.513541,-2.90324 -0.03169,-0.22423 -0.420809,-0.53773 -1.094657,-0.88195 -1.440051,-0.73561 -3.401601,-0.83704 -4.951737,-0.25604 -1.449156,0.54315 -3.054174,2.13821 -3.587311,3.56505 -1.795528,4.80541 2.631461,9.59748 7.524046,8.14454 z m 2.561478,-1.48533 c 2.031398,-1.87248 2.475494,-5.32238 0.987227,-7.66913 -0.289786,-0.45695 -0.644393,-0.80468 -0.820591,-0.80468 -0.321074,0 -5.165543,4.70981 -5.165543,5.02196 0,0.20685 3.897661,4.15026 4.102105,4.15026 0.07651,0 0.48007,-0.31428 0.896802,-0.69841 z m -0.48946,-3.11398 c 0.08577,-0.18301 0.157358,-0.70978 0.159088,-1.17059 0.0037,-0.99096 0.372103,-1.1505 0.54376,-0.23549 0.123352,0.65752 -0.194871,1.522 -0.610195,1.65764 -0.187831,0.0614 -0.210477,-1.4e-4 -0.09265,-0.25156 z"
         style="fill:#fc8236;stroke-width:0.17638889" />
      <path
         id="path201"
         d="m 12.195566,-95.047462 c -5.5513814,-0.635155 -10.0909396,-3.738984 -12.43578359,-8.502708 -1.86286091,-3.78455 -1.90541941,-4.44273 -1.77558221,-27.45989 0.057734,-10.23496 0.1428905,-19.12496 0.1892361,-19.75555 0.2031854,-2.7646 0.97654979,-5.86309 1.68966731,-6.76967 0.28922363,-0.36769 0.51814783,-0.47117 1.0170825,-0.45975 0.35411889,0.008 1.23916489,0.001 1.96676909,-0.0156 0.7276042,-0.0167 1.9976042,-0.0226 2.8222222,-0.0132 0.8246181,0.009 3.6821181,0.0224 6.3499996,0.0289 2.667882,0.007 5.009445,0.0136 5.203473,0.0158 0.621208,0.007 10.922464,0.008 11.288889,0.001 0.194027,-0.004 9.160233,-0.0174 19.924902,-0.0306 l 19.572124,-0.024 0.302348,0.37339 c 0.60068,0.74181 1.464386,4.027 1.673296,6.36455 0.196024,2.19339 0.263392,39.79884 0.07462,41.65209 -0.382866,3.7587 -1.543753,6.72343 -3.577189,9.13559 -2.647733,3.14086 -6.121792,4.916223 -10.713389,5.474905 -1.828713,0.222435 -41.616324,0.208499 -43.572682,-0.01534 z m 4.935067,-12.546968 c -0.0057,-0.32854 -3.392622,-3.83665 -3.704022,-3.83655 -0.147544,5e-5 -0.978172,0.71331 -1.845841,1.58501 -1.270621,1.27654 -1.534284,1.62833 -1.355062,1.80799 0.139984,0.14033 1.21717,0.29544 2.904174,0.41819 3.814043,0.27752 4.005143,0.27873 4.000751,0.0254 z m 1.493216,-0.9299 c -0.0054,-0.38593 -0.117965,-1.18527 -0.250033,-1.77631 -0.132065,-0.59104 -0.190644,-1.20355 -0.130175,-1.36113 0.06047,-0.15758 0.768298,-0.61652 1.57295,-1.01986 5.801148,-2.9079 15.075632,-9.04207 15.280654,-10.10667 0.09825,-0.51015 -2.378565,-2.93009 -2.998958,-2.93009 -0.263464,0 -1.654512,0.24564 -3.091219,0.54587 l -2.612196,0.54587 -6.217708,6.20007 c -3.41974,3.41005 -6.217709,6.27868 -6.217709,6.37475 0,0.31623 4.138671,4.33411 4.409722,4.28102 0.184288,-0.0361 0.261576,-0.26477 0.254672,-0.75352 z m 19.474738,-16.85995 c 2.611649,-2.49004 5.696177,-5.76314 7.181539,-7.62059 0.635447,-0.79462 1.269813,-1.58458 1.409704,-1.75547 0.13989,-0.17088 0.254347,-0.38916 0.254347,-0.48507 0,-0.0959 0.06055,-0.17437 0.134562,-0.17437 0.07401,0 0.212916,-0.15232 0.308681,-0.33849 0.09577,-0.18617 0.426056,-0.81168 0.733982,-1.39001 0.679718,-1.27664 1.026472,-2.37639 0.874307,-2.77293 -0.104242,-0.27165 -0.152608,-0.26925 -0.621344,0.0309 -0.279566,0.17899 -1.164609,0.92075 -1.966764,1.64835 -0.802154,0.7276 -1.814897,1.64042 -2.250539,2.02847 -0.435642,0.38806 -1.007895,0.904 -1.271672,1.14653 -0.263779,0.24253 -0.891893,0.79816 -1.395808,1.23472 -0.503917,0.43656 -1.182536,1.03635 -1.508044,1.33285 -0.32551,0.29651 -2.027391,1.80295 -3.781959,3.34765 -1.754569,1.5447 -3.190124,2.92314 -3.190124,3.06319 0,0.36537 2.348191,2.66326 2.721568,2.66326 0.17212,0 1.237525,-0.88153 2.367564,-1.95895 z m -8.61691,-0.34639 c 1.596092,-0.36203 2.116667,-0.53408 2.116667,-0.69956 0,-0.29774 -1.265297,-1.58121 -1.558812,-1.58121 -0.336682,0 -2.321743,1.91811 -2.321743,2.24343 0,0.27149 0.669147,0.28566 1.763888,0.0373 z m 6.913319,-4.14996 c 2.067015,-1.80416 4.04114,-3.53056 4.386944,-3.83645 0.345805,-0.3059 1.012945,-0.87367 1.482534,-1.26173 0.872882,-0.72132 1.884809,-1.59578 2.755592,-2.38125 0.268878,-0.24253 0.867983,-0.75847 1.331344,-1.14652 2.545075,-2.13145 2.893706,-2.71709 2.427757,-4.07824 -0.272413,-0.79578 -0.739645,-1.22612 -1.584521,-1.4594 -1.248117,-0.34462 -1.315411,-0.28813 -9.202205,7.72584 -4.098837,4.16493 -7.45243,7.64694 -7.45243,7.73779 0,0.16526 1.840396,1.98026 2.007969,1.98026 0.04884,0 1.780002,-1.47613 3.847016,-3.2803 z m -10.482553,1.92009 c 1.956682,-0.41593 3.11368,-0.74305 3.172779,-0.89706 0.112208,-0.29241 -2.380795,-2.85801 -2.777139,-2.85801 -0.44481,0 -4.126927,3.8002 -4.000738,4.12905 0.142233,0.37065 0.06373,0.37879 3.605098,-0.37398 z m 8.155345,-4.99165 c 1.988785,-1.95055 5.322563,-5.241 7.408396,-7.3121 2.896695,-2.87623 3.938224,-3.80323 4.409722,-3.92481 1.566624,-0.40395 0.148927,-1.71582 -1.861293,-1.72235 -0.883941,-0.003 -1.299774,0.11134 -2.418512,0.66425 -2.101474,1.0386 -5.605364,3.76516 -8.773035,6.82674 -0.63059,0.60947 -2.074998,1.97738 -3.209794,3.0398 -1.134798,1.06241 -2.274681,2.20884 -2.533073,2.54761 l -0.469809,0.61595 1.589338,1.58934 c 1.353332,1.35333 1.637803,1.56206 1.915712,1.40568 0.179508,-0.10101 1.953564,-1.77956 3.942348,-3.73011 z m 18.973508,-9.71306 c 1.097789,-0.1992 1.840381,-0.56245 1.840381,-0.90023 0,-0.11005 -0.913826,-1.1253 -2.030726,-2.25613 l -2.030727,-2.05605 0.468664,-0.42974 0.468663,-0.42974 -0.318607,0.49774 -0.318608,0.49774 2.010085,2.0158 c 1.201108,1.20452 2.149604,2.0158 2.356752,2.0158 0.190666,0 0.723872,-0.40177 1.184903,-0.89283 1.469249,-1.56495 2.056057,-3.9096 1.479338,-5.91082 -0.406617,-1.41096 -1.130713,-2.54424 -1.625872,-2.54464 -0.262406,-1.8e-4 -0.402515,-0.12449 -0.440972,-0.39113 -0.137142,-0.95089 -2.444663,-1.81707 -4.490863,-1.68576 -2.399726,0.15401 -4.216617,1.40547 -5.310011,3.6575 -0.405283,0.83475 -0.47507,1.20799 -0.480127,2.56792 -0.0054,1.44869 0.04601,1.69669 0.573827,2.76884 0.901534,1.83128 2.655736,3.15564 4.621581,3.48913 0.437742,0.0743 0.840848,0.14436 0.895791,0.15577 0.05494,0.0114 0.570881,-0.0647 1.146528,-0.16917 z m 3.009111,-5.01356 c 0.07656,-0.19402 0.138887,-0.64513 0.13851,-1.00245 -3.53e-4,-0.35732 0.06253,-0.6106 0.139786,-0.56285 0.245295,0.1516 0.151389,1.2199 -0.138509,1.57569 -0.274918,0.33741 -0.276956,0.33725 -0.139787,-0.0104 z"
         style="fill:#ea724b;stroke-width:0.17638889" />
      <path
         id="path199"
         d="m 13.236439,-95.212193 c -5.0417572,-0.429823 -9.0328111,-2.418029 -11.7022177,-5.829647 -1.85472441,-2.37042 -2.8641543,-5.01129 -3.2721832,-8.5607 -0.2917931,-2.53828 -0.1493591,-41.62113 0.1583408,-43.44753 0.2956854,-1.7551 0.98934512,-3.90884 1.44583763,-4.48917 0.28607085,-0.36368 0.51632308,-0.46718 1.01396958,-0.45579 0.35411889,0.008 1.23916489,0.001 1.96676909,-0.0156 0.7276042,-0.0167 1.9976042,-0.0226 2.8222222,-0.0132 0.8246181,0.009 3.6821181,0.0224 6.3499996,0.0289 2.667882,0.007 5.009445,0.0136 5.203473,0.0158 0.621208,0.007 10.922464,0.008 11.288889,0.001 0.194027,-0.004 9.14573,-0.0174 19.892671,-0.0306 14.885001,-0.0183 19.600189,0.026 19.792992,0.18603 0.353614,0.29348 0.942658,1.91809 1.375567,3.79389 0.354413,1.53566 0.369643,2.18072 0.466461,19.75555 0.110851,20.12227 0.03957,24.66545 -0.420663,26.81111 -0.899033,4.19141 -3.585946,7.989372 -7.113505,10.054967 -1.476683,0.864685 -3.943965,1.726373 -5.859496,2.046402 -1.551887,0.259278 -40.545143,0.392741 -43.409127,0.14858 z m 4.074405,-12.379357 c 0,-0.24714 -3.701614,-4.01573 -3.944357,-4.01573 -0.310466,0 -3.287587,3.06882 -3.287587,3.38885 0,0.43571 0.117958,0.46641 2.469444,0.6427 3.215887,0.24109 4.7625,0.23595 4.7625,-0.0158 z m 1.524242,-0.40113 c 0.05613,-0.14628 -0.0745,-0.98049 -0.290285,-1.85381 -0.309603,-1.25299 -0.347592,-1.64177 -0.180141,-1.84354 0.116713,-0.14063 1.285247,-0.82019 2.596743,-1.51012 3.022952,-1.59029 5.762589,-3.21164 8.343886,-4.93803 2.357596,-1.57677 5.650028,-4.10627 5.880256,-4.51766 0.124018,-0.2216 -0.170338,-0.6133 -1.339458,-1.78242 l -1.498404,-1.49841 -2.27085,0.47339 c -4.266313,0.88936 -3.242963,0.17365 -10.164253,7.10866 -3.371232,3.37792 -6.129514,6.21106 -6.129514,6.29587 0,0.0848 0.928434,1.09421 2.063186,2.24311 2.0587,2.08438 2.731135,2.49451 2.988834,1.82296 z m 21.132712,-19.18183 c 4.150467,-4.18886 6.372627,-6.82512 7.730585,-9.17116 0.932619,-1.61122 1.476766,-3.10793 1.298666,-3.57205 -0.109188,-0.28453 -0.145305,-0.28374 -0.599461,0.0131 -0.265798,0.17376 -1.832647,1.51583 -3.481883,2.98239 -1.649236,1.46655 -5.00283,4.4321 -7.45243,6.59011 -2.501311,2.20357 -4.45382,4.05376 -4.45382,4.22043 0,0.36596 2.449721,2.86271 2.80879,2.86271 0.142988,0 2.010287,-1.76651 4.149553,-3.92557 z m -9.724458,1.33523 c 0.711878,-0.15723 1.244015,-0.37347 1.304042,-0.52989 0.06332,-0.165 -0.197519,-0.5632 -0.694394,-1.06007 -0.940611,-0.94061 -1.004748,-0.9258 -2.40589,0.5557 -0.785468,0.83052 -0.902149,1.03509 -0.717373,1.25773 0.232733,0.28042 0.231939,0.2805 2.513615,-0.22347 z m 3.751337,-1.86757 c 0.687395,-0.60409 4.240054,-3.70427 7.894798,-6.88928 3.654746,-3.18502 6.728772,-5.94749 6.83117,-6.13882 0.280726,-0.52454 0.240239,-1.6101 -0.08339,-2.23593 -0.4253,-0.82244 -1.291747,-1.19979 -2.570247,-1.11939 -0.594861,0.0374 -15.526999,14.92306 -15.526999,15.47866 0,0.4041 1.585725,2.01419 1.976818,2.00719 0.125423,-0.002 0.790455,-0.49833 1.477848,-1.10243 z m -8.035951,-0.20672 c 3.008095,-0.64827 3.170174,-0.70184 3.170174,-1.04783 0,-0.23456 -2.683092,-2.9306 -2.916522,-2.9306 -0.07415,0 -0.996073,0.84871 -2.048727,1.88602 -1.3365,1.31702 -1.913918,2.00882 -1.913918,2.29305 0,0.5514 0.292899,0.53556 3.708993,-0.20064 z m 11.80459,-8.63829 c 5.962643,-5.9443 7.632052,-7.51438 8.122528,-7.63924 1.56959,-0.39958 0.147717,-1.71383 -1.861231,-1.72035 -0.883941,-0.003 -1.299774,0.11134 -2.418512,0.66425 -1.42818,0.70584 -3.463847,2.1377 -5.50984,3.87552 -1.864731,1.58387 -9.07881,8.43479 -9.282316,8.81504 -0.151301,0.28271 0.05492,0.57129 1.364866,1.90995 0.848704,0.8673 1.663751,1.57691 1.811217,1.57691 0.147465,0 3.645445,-3.36693 7.773288,-7.48208 z m 15.27798,-6.11339 c 1.097789,-0.1992 1.840381,-0.56245 1.840381,-0.90023 0,-0.11005 -0.913826,-1.1253 -2.030726,-2.25613 l -2.030727,-2.05605 0.468664,-0.42974 0.468663,-0.42974 -0.318607,0.49774 -0.318608,0.49774 2.010085,2.0158 c 1.201108,1.20452 2.149604,2.0158 2.356752,2.0158 0.190666,0 0.723872,-0.40177 1.184903,-0.89283 1.469249,-1.56495 2.056057,-3.9096 1.479338,-5.91082 -0.406617,-1.41096 -1.130713,-2.54424 -1.625872,-2.54464 -0.262406,-1.8e-4 -0.402515,-0.12449 -0.440972,-0.39113 -0.137142,-0.95089 -2.444663,-1.81707 -4.490863,-1.68576 -2.399726,0.15401 -4.216617,1.40547 -5.310011,3.6575 -0.405283,0.83475 -0.47507,1.20799 -0.480127,2.56792 -0.0054,1.44869 0.04601,1.69669 0.573827,2.76884 0.901534,1.83128 2.655736,3.15564 4.621581,3.48913 0.437742,0.0743 0.840848,0.14436 0.895791,0.15577 0.05494,0.0114 0.570881,-0.0647 1.146528,-0.16917 z m 3.009111,-5.01356 c 0.07656,-0.19402 0.138887,-0.64513 0.13851,-1.00245 -3.53e-4,-0.35732 0.06253,-0.6106 0.139786,-0.56285 0.245295,0.1516 0.151389,1.2199 -0.138509,1.57569 -0.274918,0.33741 -0.276956,0.33725 -0.139787,-0.0104 z"
         style="fill:#fc7832;stroke-width:0.17638889" />
      <path
         id="path197"
         d="m 13.236439,-95.212193 c -5.0417572,-0.429823 -9.0328111,-2.418029 -11.7022177,-5.829647 -1.81546624,-2.32024 -2.8350053,-4.93958 -3.2542318,-8.36058 -0.2141864,-1.74781 -0.2808495,-29.82711 -0.08072,-34.00003 0.1076942,-2.24554 0.1344738,-2.38173 0.4318127,-2.19604 0.228669,0.1428 0.56739421,0.14667 1.21562549,0.0139 0.49424502,-0.10125 0.93646396,-0.12286 0.98270889,-0.048 0.0462448,0.0748 1.80895292,0.13586 3.91712922,0.13562 2.1081762,-1.8e-4 3.9521104,0.009 4.0976312,0.0203 0.1455209,0.0114 0.8598959,-0.0229 1.5875,-0.0763 0.727605,-0.0534 1.44198,-0.089 1.5875,-0.0793 0.145521,0.01 1.971146,0.0386 4.056945,0.064 2.085798,0.0254 3.871736,0.0665 3.96875,0.0912 0.09701,0.0247 0.255764,0.0272 0.352778,0.006 0.187268,-0.0418 2.463773,-0.15202 2.910416,-0.14086 0.145521,0.004 1.971146,0.0267 4.056945,0.0512 2.085798,0.0245 3.871736,0.0636 3.96875,0.0868 0.09701,0.0232 0.255764,0.022 0.352778,-0.003 0.330498,-0.0844 9.295726,-0.0202 9.383112,0.0672 0.04786,0.0479 -0.25782,0.30257 -0.679295,0.56601 -1.197511,0.7485 -3.596775,2.65182 -5.528818,4.38596 -2.90384,2.60639 -8.202083,7.90773 -8.202083,8.20687 0,0.40399 2.849409,3.18142 3.263867,3.18142 0.201457,0 1.116342,-0.75554 2.189286,-1.80798 1.827533,-1.79262 1.832574,-1.79599 0.592936,-0.39688 -0.687648,0.77611 -1.49589,1.64424 -1.796096,1.92918 -0.300205,0.28494 -0.545826,0.60515 -0.545826,0.71158 0,0.10643 0.419214,0.60752 0.931589,1.11353 0.868211,0.85743 1.550554,1.15119 1.786647,0.76918 0.131145,-0.2122 5.042875,-4.46991 5.042875,-4.3714 0,0.0444 -1.190625,1.12954 -2.645833,2.41139 -1.455209,1.28185 -2.645834,2.45708 -2.645834,2.61162 0,0.39055 2.545706,2.85062 2.949856,2.85062 0.38473,0 7.391583,-6.95691 9.149251,-9.08403 2.143271,-2.59379 3.676191,-5.11059 4.122706,-6.76882 0.175586,-0.65208 0.16329,-0.80919 -0.08478,-1.08331 -0.235675,-0.26041 -0.25134,-0.39313 -0.08344,-0.70686 0.213596,-0.39911 0.166223,-1.6021 -0.08557,-2.17307 -0.129998,-0.29478 -0.07109,-0.28782 0.631455,0.0746 1.498293,0.77282 5.183186,0.58066 5.516399,-0.28768 0.05393,-0.14053 0.265186,-0.25552 0.46946,-0.25552 0.208681,0 0.810835,-0.41914 1.374352,-0.95664 l 1.002944,-0.95665 3.770021,-0.0199 c 2.073511,-0.0109 3.89963,-0.0893 4.058042,-0.17404 0.17992,-0.0963 0.443745,-0.0708 0.702936,0.0679 0.292444,0.15651 0.653528,0.17748 1.223301,0.071 0.444613,-0.0831 1.078883,-0.10028 1.409486,-0.0383 0.385274,0.0723 0.647579,0.0376 0.730543,-0.0967 0.261832,-0.42365 0.36029,5.02162 0.361747,20.00669 0.0016,16.40995 -0.04033,17.34352 -0.892545,19.87328 -1.576102,4.67858 -5.004495,8.133449 -9.564583,9.638429 -3.003212,0.991159 -2.633162,0.975813 -24.468524,1.014682 -11.10809,0.01977 -20.958447,-0.029 -21.889683,-0.108394 z m 4.074405,-12.379357 c 0,-0.25843 -3.707266,-4.01573 -3.962252,-4.01573 -0.314835,0 -3.269692,3.07022 -3.269692,3.39735 0,0.42639 0.124707,0.45841 2.469444,0.6342 3.215887,0.24109 4.7625,0.23595 4.7625,-0.0158 z m 1.521123,-0.39301 c 0.05442,-0.1418 -0.07111,-0.98216 -0.278955,-1.86745 -0.287221,-1.22341 -0.329539,-1.6679 -0.176365,-1.85246 0.110843,-0.13356 1.348488,-0.84007 2.750321,-1.57001 4.645988,-2.41921 9.322931,-5.40783 12.720334,-8.12843 0.800365,-0.64092 1.455209,-1.29688 1.455209,-1.45768 0,-0.4244 -2.651693,-3.03423 -3.082668,-3.034 -0.196303,1.1e-4 -1.621433,0.27285 -3.166953,0.6061 l -2.810039,0.60591 -6.229891,6.22804 c -3.426443,3.42542 -6.229894,6.30048 -6.229894,6.38901 0,0.0885 0.928434,1.10099 2.063186,2.24989 2.051792,2.07738 2.73129,2.49411 2.985715,1.83108 z m 11.037889,-17.71252 c 1.604843,-0.35071 1.904877,-0.46745 1.904877,-0.74122 0,-0.30135 -1.446373,-1.74953 -1.747352,-1.74953 -0.449535,0 -2.556696,2.20713 -2.427814,2.54299 0.13734,0.3579 0.423581,0.35132 2.270289,-0.0522 z m -4.311106,-2.05545 c 3.177564,-0.67045 3.746539,-0.84621 3.746539,-1.15733 0,-0.31037 -2.671959,-2.98214 -2.982343,-2.98214 -0.305499,0 -4.249602,3.85266 -4.249602,4.15108 0,0.17035 0.344807,0.61142 0.477975,0.61142 0.03005,0 1.383397,-0.28036 3.007431,-0.62303 z m 13.359733,-4.13947 c 0.175593,-0.19403 0.358948,-0.35278 0.407455,-0.35278 0.04851,0 -0.05547,0.15875 -0.231066,0.35278 -0.175594,0.19403 -0.358948,0.35278 -0.407455,0.35278 -0.04851,0 0.05547,-0.15875 0.231066,-0.35278 z m 7.961907,-12.61181 c 0.05584,-0.14552 0.123006,-0.26458 0.149255,-0.26458 0.02625,0 0.146538,0.11906 0.26731,0.26458 0.183281,0.22084 0.158604,0.26459 -0.149255,0.26459 -0.25539,0 -0.33761,-0.0814 -0.26731,-0.26459 z"
         style="fill:#fb672a;stroke-width:0.17638889" />
      <path
         id="path195"
         d="m 13.236439,-95.212193 c -5.0417572,-0.429823 -9.0328111,-2.418029 -11.7022177,-5.829647 -1.93308993,-2.47057 -2.9002558,-5.15421 -3.2673809,-9.06613 -0.327122,-3.48567 -0.1688436,-21.02355 0.1877475,-20.80316 0.076061,0.047 5.2031159,0.0767 11.3934557,0.0659 12.1201234,-0.0211 14.3857544,-0.003 14.5023914,0.11322 0.04135,0.0414 -0.493769,0.66194 -1.189151,1.37909 -0.695381,0.71715 -1.264329,1.38525 -1.264329,1.48467 0,0.50624 0.249165,0.73878 0.791604,0.73878 0.920208,0 6.510434,-1.23641 6.704924,-1.48295 0.232862,-0.29518 0.79375,-0.28596 0.79375,0.013 0,0.12935 -0.149648,0.23519 -0.332553,0.23519 -0.374105,0 -2.489669,2.16996 -2.489669,2.55368 0,0.13625 0.08067,0.29758 0.179266,0.35851 0.300531,0.18574 0.03577,0.39296 -0.662387,0.51843 -0.579349,0.10411 -1.451234,0.90553 -6.881115,6.32496 -4.1193,4.11138 -6.217709,6.32739 -6.217709,6.56616 0,0.23287 0.780011,1.09583 2.204046,2.43843 1.745005,1.64521 2.277693,2.05463 2.557639,1.96578 0.428772,-0.13609 0.450547,-0.63423 0.09254,-2.11692 -0.469692,-1.94523 -0.4832,-1.91706 1.363486,-2.84324 2.196218,-1.10148 5.628895,-3.04989 7.925248,-4.49841 3.417584,-2.15579 7.289244,-5.07018 7.463054,-5.61781 0.05074,-0.15986 0.291853,-0.36532 0.53581,-0.45657 0.243958,-0.0913 2.203227,-1.87248 4.353934,-3.95828 2.150706,-2.0858 3.9866,-3.76852 4.079763,-3.73939 0.09316,0.0291 1.804441,0.0447 3.802839,0.0345 1.998396,-0.0101 5.141574,-0.0143 6.984838,-0.009 1.843264,0.005 4.502326,-0.003 5.909027,-0.019 1.406702,-0.0156 3.954653,-0.0353 5.662116,-0.0438 l 3.104476,-0.0155 0.114123,3.2632 c 0.182175,5.20906 0.133112,16.22388 -0.08109,18.20523 -0.462317,4.27641 -2.052327,7.60484 -4.868505,10.191441 -2.161182,1.984999 -5.100701,3.359883 -8.340843,3.901219 -1.551887,0.259278 -40.545143,0.39274 -43.409127,0.148579 z m 4.210611,-12.302597 c 0.109758,-0.33392 -3.649253,-4.09249 -4.092977,-4.09249 -0.226761,0 -0.93475,0.60706 -1.902863,1.6316 -0.847956,0.89738 -1.54209,1.67128 -1.5425186,1.71979 -0.00425,0.48137 0.4661286,0.59611 3.2846826,0.8012 3.507703,0.25524 4.153027,0.24612 4.253676,-0.0601 z m 14.432805,-18.80147 c 0.05438,-0.1417 0.238062,-0.20743 0.435436,-0.15581 0.486773,0.12729 0.422585,0.4009 -0.09405,0.4009 -0.299194,0 -0.406008,-0.0767 -0.341385,-0.24509 z"
         style="fill:#fb5723;stroke-width:0.17638889" />
      <path
         id="path193"
         d="m 14.224039,-95.208027 c -2.587483,-0.15989 -4.5521197,-0.52545 -6.2508029,-1.163089 -3.6245073,-1.360537 -6.8353779,-4.458484 -8.34501105,-8.051514 -0.84016215,-1.99965 -1.18863835,-4.05112 -1.31031875,-7.71381 l -0.1084083,-3.2632 h 9.0901707 9.0901693 l -0.319756,0.44097 c -0.175866,0.24254 -0.802077,0.91474 -1.391581,1.49379 -0.589502,0.57904 -1.071824,1.1942 -1.071824,1.36701 0,0.18857 -0.131,0.3142 -0.32763,0.3142 -0.507548,0 -3.3765362,3.06438 -3.3765362,3.60649 0,0.54631 0.079408,0.56638 3.1661612,0.80004 3.19457,0.24182 4.371853,0.23151 4.462046,-0.0391 0.04502,-0.13507 0.317839,-0.19755 0.713645,-0.16345 0.546419,0.0471 0.655955,-0.005 0.74395,-0.35593 0.05675,-0.22612 -0.05934,-1.10814 -0.257974,-1.96005 -0.198639,-0.85191 -0.361162,-1.57869 -0.361162,-1.61508 0,-0.0364 1.647032,-0.91888 3.66007,-1.9611 l 3.660069,-1.89495 22.115801,-0.0164 22.1158,-0.0164 -0.102743,3.43959 c -0.162541,5.4414 -1.033814,8.19905 -3.566702,11.28889 -2.342335,2.85738 -5.502624,4.5417 -9.958684,5.307611 -1.381805,0.237507 -38.520179,0.374801 -42.068749,0.155522 z"
         style="fill:#fb471b;stroke-width:0.17638889" />
      <path
         id="path191"
         d="m 12.655028,-95.396883 c -2.197776,-0.231749 -4.1024426,-0.784709 -6.1039061,-1.772077 -1.6160666,-0.797243 -2.0543836,-1.118085 -3.4395834,-2.517724 -0.873125,-0.882226 -1.7308673,-1.861476 -1.9060939,-2.176106 l -0.31859399,-0.57207 0.58317729,0.3244 c 0.5606131,0.31184 1.8300889,0.32357 32.8099021,0.30307 l 32.226724,-0.0213 0.473257,-0.43546 c 0.44157,-0.4063 0.459853,-0.40968 0.273067,-0.0504 -0.347636,0.6686 -1.895309,2.508664 -2.69474,3.203837 -2.556341,2.222953 -5.317631,3.329377 -9.298374,3.725774 -2.198638,0.218938 -40.517226,0.208257 -42.604836,-0.01187 z"
         style="fill:#fb3d16;stroke-width:0.17638889" />
    </g>
  </g>
</svg>
