<?xml version="1.0" encoding="UTF-8" standalone="no"?>
<svg
   xmlns:dc="http://purl.org/dc/elements/1.1/"
   xmlns:cc="http://creativecommons.org/ns#"
   xmlns:rdf="http://www.w3.org/1999/02/22-rdf-syntax-ns#"
   xmlns:svg="http://www.w3.org/2000/svg"
   xmlns="http://www.w3.org/2000/svg"
   id="svg225"
   version="1.1"
   viewBox="0 0 29.897917 29.897916"
   height="29.897917mm"
   width="29.897917mm">
  <defs
     id="defs219" />
  <metadata
     id="metadata222">
    <rdf:RDF>
      <cc:Work
         rdf:about="">
        <dc:format>image/svg+xml</dc:format>
        <dc:type
           rdf:resource="http://purl.org/dc/dcmitype/StillImage" />
        <dc:title></dc:title>
      </cc:Work>
    </rdf:RDF>
  </metadata>
  <g
     transform="translate(122.40823,-102.18383)"
     id="layer1">
    <g
       transform="matrix(0.23357747,0,0,0.23357747,-122.40823,102.18383)"
       id="g47">
      <path
         style="fill:none"
         d="M 0,0 H 128 V 128 H 0 Z"
         id="path33" />
      <path
         style="fill:#764abc"
         d="m 88.69,88.11 c -9,18.4 -24.76,30.78 -45.61,34.85 a 39.73,39.73 0 0 1 -9.77,1.14 c -12,0 -23,-5 -28.34,-13.19 C -2.2,100 -4.64,76.87 19,59.76 c 0.48,2.61 1.46,6.19 2.11,8.31 A 38.24,38.24 0 0 0 10,81.1 c -4.4,8.64 -3.91,17.27 1.3,25.25 3.6,5.38 9.3,8.65 16.63,9.65 a 44,44 0 0 0 26.55,-5 C 67.19,104.32 75.66,96.34 81.2,85.43 a 9.32,9.32 0 0 1 -2.61,-6 9.12,9.12 0 0 1 8.78,-9.43 h 0.34 a 9.15,9.15 0 0 1 1,18.25 z m 28.67,-20.2 c 12.21,13.84 12.54,30.13 7.82,39.58 -4.4,8.63 -16,17.27 -31.6,17.27 a 50.48,50.48 0 0 1 -21,-5.05 c 2.29,-1.63 5.54,-4.24 7.33,-5.87 a 41.54,41.54 0 0 0 16,3.42 c 10.1,0 17.75,-4.72 22.31,-13.35 2.93,-5.7 3.1,-12.38 0.33,-19.22 A 43.61,43.61 0 0 0 101.28,63.84 62,62 0 0 0 66.54,53.25 h -2.93 a 9.21,9.21 0 0 1 -8,5.54 H 55.3 A 9.13,9.13 0 0 1 55,40.54 h 0.33 a 9,9 0 0 1 8,4.89 h 2.61 c 20.8,0 39.06,7.98 51.42,22.48 z m -82.75,23 a 7.31,7.31 0 0 1 1.14,-4.73 C 26.63,70.38 21.75,50.35 29.24,29.5 34.61,13.83 48.13,3.24 62.79,3.24 c 15.64,0 31.93,13.69 33.88,40.07 -2.44,-0.81 -6,-2 -8.14,-2.44 C 88,32.24 80.71,10.74 63.44,11.06 c -6.19,0.17 -15.31,3.1 -20,9.12 a 43.69,43.69 0 0 0 -9.64,25.25 59.61,59.61 0 0 0 8.47,36.16 2.75,2.75 0 0 1 1.14,-0.16 h 0.32 a 9.1214925,9.1214925 0 0 1 0.33,18.24 h -0.33 a 9.16,9.16 0 0 1 -9.12,-8.79 z"
         id="path35" />
    </g>
  </g>
</svg>
