<?xml version="1.0" encoding="UTF-8" standalone="no"?>
<svg
   xmlns:dc="http://purl.org/dc/elements/1.1/"
   xmlns:cc="http://creativecommons.org/ns#"
   xmlns:rdf="http://www.w3.org/1999/02/22-rdf-syntax-ns#"
   xmlns:svg="http://www.w3.org/2000/svg"
   xmlns="http://www.w3.org/2000/svg"
   id="svg2969"
   version="1.1"
   viewBox="0 0 40.032363 29.999958"
   height="29.999958mm"
   width="40.032364mm">
  <defs
     id="defs2963" />
  <metadata
     id="metadata2966">
    <rdf:RDF>
      <cc:Work
         rdf:about="">
        <dc:format>image/svg+xml</dc:format>
        <dc:type
           rdf:resource="http://purl.org/dc/dcmitype/StillImage" />
        <dc:title></dc:title>
      </cc:Work>
    </rdf:RDF>
  </metadata>
  <g
     transform="translate(128.17319,-101.60718)"
     id="layer1">
    <path
       d="m -93.661809,118.87683 a 8.2937779,8.2937779 0 0 0 -3.628001,0.8409 7.6431452,7.6431452 0 0 1 -0.812499,-1.8792 5.0477648,5.0477648 0 0 1 -0.07,-1.5726 14.029354,14.029354 0 0 1 0.4758,-1.7048 c 0,-0.076 -0.086,-0.4162 -0.8924,-0.427 -0.805201,0 -1.498801,0.1521 -1.572801,0.3675 a 8.8242934,8.8242934 0 0 0 -0.3351,1.193 28.150227,28.150227 0 0 1 -2.4498,4.71 4.555858,4.555858 0 0 1 -0.6291,-2.9542 14.029354,14.029354 0 0 1 0.4756,-1.7046 c 0,-0.076 -0.086,-0.4161 -0.8924,-0.4269 -0.8052,0 -1.4986,0.1521 -1.5733,0.3675 -0.076,0.2108 -0.1681,0.715 -0.335,1.1928 -0.1682,0.4755 -2.1202,4.8413 -2.632,5.9672 -0.2648,0.5717 -0.4918,1.0383 -0.6507,1.3527 v 0 a 0.33318109,0.33318109 0 0 1 -0.054,0.06 c -0.1402,0.2702 -0.2216,0.4161 -0.2216,0.4161 v 0 c -0.1081,0.2002 -0.227,0.3783 -0.2865,0.3783 a 2.4466644,2.4466644 0 0 1 0,-1.243 c 0.2865,-1.5138 0.9868,-3.8679 0.9798,-3.9492 0,-0.054 0.1301,-0.454 -0.4539,-0.6652 a 0.72642053,0.72642053 0 0 0 -0.8263,0.1402 c -0.054,0 -0.086,0.1241 -0.086,0.1241 0,0 0.6365,-2.6468 -1.214,-2.6468 a 5.5125022,5.5125022 0 0 0 -3.5394,2.4068 c -0.4973,0.2702 -1.5571,0.8479 -2.6908,1.47 -0.4272,0.2432 -0.8784,0.481 -1.2939,0.7149 -0.054,0 -0.06,-0.064 -0.086,-0.098 -2.2522,-2.3996 -6.392,-4.0928 -6.2132,-7.3032 0.064,-1.1695 0.4647,-4.241 7.949,-7.9717 6.1575,-3.0347 11.0579,-2.1938 11.9058,-0.3297 1.2145,2.6622 -2.625,7.6058 -8.9872,8.3224 a 4.7918018,4.7918018 0 0 1 -4.0221,-1.017 c -0.335,-0.3675 -0.3891,-0.3891 -0.5134,-0.3135 -0.2053,0.1081 -0.076,0.4378 0,0.6296 a 3.7550796,3.7550796 0 0 0 2.2969,1.8056 12.226172,12.226172 0 0 0 7.4599,-0.7392 c 3.8611,-1.4912 6.8638,-5.6382 5.9829,-9.1116 -0.8854,-3.5249 -6.7351,-4.6874 -12.2716,-2.7168 a 27.884255,27.884255 0 0 0 -9.4311,5.4094 c -3.0497,2.8529 -3.5319,5.3309 -3.3345,6.3704 0.7149,3.6864 5.7925,6.0843 7.8247,7.8646 -0.1021,0.06 -0.2001,0.1081 -0.2756,0.1521 -1.0166,0.5026 -4.8922,2.5317 -5.863,4.6734 -1.0965,2.431 0.1782,4.1686 1.0167,4.4032 a 6.2546524,6.2546524 0 0 0 6.7352,-2.7288 6.7565688,6.7565688 0 0 0 0.6047,-6.2245 0.15300591,0.15300591 0 0 0 -0.054,-0.054 l 0.7966,-0.4702 c 0.5189,-0.3081 1.0313,-0.5919 1.47,-0.8265 a 9.6379422,9.6379422 0 0 0 -0.5188,2.6624 5.556831,5.556831 0 0 0 1.1928,3.8609 1.3169947,1.3169947 0 0 0 0.9652,0.3137 c 0.8583,0 1.2512,-0.7152 1.6819,-1.5643 0.5243,-1.038 1.0011,-2.245 1.0011,-2.245 0,0 -0.5925,3.2616 1.0166,3.2616 0.5847,0 1.1766,-0.7608 1.4414,-1.1441 v 0 c 0,0 0,0 0.054,-0.076 l 0.092,-0.1522 v 0 c 0.2324,-0.4107 0.7608,-1.3381 1.5428,-2.8811 1.0097,-1.9894 1.9821,-4.4761 1.9821,-4.4761 a 12.7095,12.7095 0 0 0 0.3891,1.6159 15.219082,15.219082 0 0 0 0.8339,1.8718 c -0.2324,0.3296 -0.3784,0.5134 -0.3784,0.5134 v 0 c -0.1901,0.2486 -0.3945,0.5188 -0.6221,0.7824 a 23.308376,23.308376 0 0 0 -1.8785,2.355 0.63919288,0.63919288 0 0 0 0.1782,0.8581 1.5958372,1.5958372 0 0 0 0.9798,0.1621 4.5000894,4.5000894 0 0 0 1.47,-0.3351 4.9333679,4.9333679 0 0 0 1.2652,-0.6647 2.8313242,2.8313242 0 0 0 1.2138,-2.4943 5.0348952,5.0348952 0 0 0 -0.4594,-1.7628 c 0.07,-0.1021 0.1401,-0.2054 0.2108,-0.3081 a 33.501142,33.501142 0 0 0 2.1938,-3.788 12.7095,12.7095 0 0 0 0.389101,1.6159 10.82481,10.82481 0 0 0 0.714999,1.6089 6.9510439,6.9510439 0 0 0 -2.1408,2.7482 c -0.4594,1.3311 -0.1021,1.9306 0.5719,2.0689 a 2.0376955,2.0376955 0 0 0 1.068401,-0.2216 4.8618698,4.8618698 0 0 0 1.352799,-0.6945 3.0400985,3.0400985 0 0 0 1.491202,-2.4726 4.6731148,4.6731148 0 0 0 -0.3351,-1.463 7.6588747,7.6588747 0 0 1 3.8838,-0.4432 c 3.480398,0.4107 4.168,2.5813 4.036698,3.4962 a 2.313678,2.313678 0 0 1 -1.104299,1.5647 c -0.2432,0.1521 -0.3189,0.2054 -0.297299,0.3135 0.054,0.1621 0.140099,0.1521 0.3513,0.1241 a 2.7169271,2.7169271 0 0 0 1.9045,-2.417 c 0.108098,-2.1445 -1.9373,-4.4971 -5.557901,-4.4754 z m -26.854701,9.0488 c -1.1556,1.2582 -2.7639,1.7332 -3.4591,1.3312 -0.7464,-0.4271 -0.4539,-2.2878 0.9654,-3.6205 a 18.423627,18.423627 0 0 1 2.7168,-2.0263 c 0.1682,-0.102 0.4162,-0.2486 0.715,-0.4269 l 0.082,-0.054 v 0 l 0.1721,-0.108 a 4.9948563,4.9948563 0 0 1 -1.1937,4.8992 z m 8.4094,-5.7197 c -0.3999,0.9794 -1.2424,3.4892 -1.7542,3.3487 -0.4378,-0.1181 -0.7152,-2.0192 -0.086,-3.8978 a 8.8557531,8.8557531 0 0 1 1.3673,-2.5082 c 0.6291,-0.7022 1.3241,-0.9366 1.491,-0.6507 a 12.958313,12.958313 0 0 1 -1.0164,3.708 z m 6.9395,3.3201 c -0.1682,0.086 -0.3297,0.1401 -0.4,0.1021 -0.054,0 0.076,-0.1461 0.076,-0.1461 0,0 0.8707,-0.9366 1.214,-1.3599 0.1942,-0.2486 0.4269,-0.5405 0.681,-0.8706 v 0.098 c 0,1.1181 -1.0827,1.8716 -1.5647,2.179 z m 5.353701,-1.221 c -0.1241,-0.086 -0.101999,-0.3783 0.3135,-1.2942 a 4.8733096,4.8733096 0 0 1 1.1928,-1.5355 2.0705845,2.0705845 0 0 1 0.118099,0.6734 2.2121507,2.2121507 0 0 1 -1.622999,2.1575 z"
       style="fill:#cd6799;stroke-width:1.42996156"
       id="path1331" />
  </g>
</svg>
