<?xml version="1.0" encoding="UTF-8" standalone="no"?>
<svg
   xmlns:dc="http://purl.org/dc/elements/1.1/"
   xmlns:cc="http://creativecommons.org/ns#"
   xmlns:rdf="http://www.w3.org/1999/02/22-rdf-syntax-ns#"
   xmlns:svg="http://www.w3.org/2000/svg"
   xmlns="http://www.w3.org/2000/svg"
   id="svg127"
   version="1.1"
   viewBox="0 0 29.900621 29.897917"
   height="29.897917mm"
   width="29.900621mm">
  <defs
     id="defs121" />
  <metadata
     id="metadata124">
    <rdf:RDF>
      <cc:Work
         rdf:about="">
        <dc:format>image/svg+xml</dc:format>
        <dc:type
           rdf:resource="http://purl.org/dc/dcmitype/StillImage" />
        <dc:title></dc:title>
      </cc:Work>
    </rdf:RDF>
  </metadata>
  <g
     transform="translate(-135.48421,-122.54509)"
     id="layer1">
    <g
       transform="matrix(1.0677527,0,0,1.0677527,133.34573,120.41034)"
       id="g101">
      <path
         d="m 18.05,29.6 c 0.042,-0.095 0.148,-0.161 0.225,-0.241 1.175,-1.232 2.36,-2.453 3.519,-3.7 A 3.2,3.2 0 0 0 22.808,23 5.925,5.925 0 0 0 22.665,22.376 c -0.316,0.3 -0.61,0.573 -0.906,0.848 -0.46,0.428 -0.918,0.858 -1.382,1.281 a 1.931,1.931 0 0 1 -2.148,0.419 1.973,1.973 0 0 1 -1.29,-1.75 1.04,1.04 0 0 0 -0.043,-0.146 c -0.353,0.3 -0.691,0.576 -1.026,0.86 l -6.963,5.9 c -0.048,0.041 -0.1,0.092 -0.145,0.132 h 9.283 L 18.031,29.911 C 17.981,29.876 18.007,29.692 18.05,29.6 Z"
         style="fill:#ffcebf"
         id="path66" />
      <path
         d="m 8.337,29.6 a 1.239,1.239 0 0 1 0.295,-0.276 l 9.636,-8.175 q 0.986,-0.837 1.963,-1.683 a 0.523,0.523 0 0 0 0.182,-0.224 5.364,5.364 0 0 0 0.065,-2.069 c -0.1,0.07 -0.154,0.1 -0.2,0.149 -0.789,0.706 -1.574,1.418 -2.367,2.12 a 1.762,1.762 0 0 1 -2.048,0.329 1.889,1.889 0 0 1 -1.08,-1.807 c 0,-0.085 0,-0.169 0,-0.324 -0.145,0.106 -0.251,0.177 -0.35,0.257 Q 8.648,22.529 2.865,27.154 C 2.691,27.293 2.483,27.603 2.255,27.302 2.027,27.001 2.374,26.877 2.549,26.737 Q 8.714,21.79 14.885,16.852 c 0.67,-0.537 0.714,-0.762 0.278,-1.615 l -0.26,0.244 c -0.713,0.663 -1.434,1.317 -2.136,1.991 A 2.121,2.121 0 0 1 9.182,16.135 c -0.133,0.1 -0.248,0.173 -0.357,0.258 l -6.1,4.728 a 1.485,1.485 0 0 1 -0.356,0.258 0.446,0.446 0 0 1 -0.3,-0.015 v 8.561 H 8.325 A 0.365,0.365 0 0 1 8.337,29.6 Z"
         style="fill:#ffcebf"
         id="path68" />
      <path
         d="m 25.237,2.423 c -0.17,0.557 -0.335,1.115 -0.484,1.678 a 1.688,1.688 0 0 0 0.9,2.09 7.122,7.122 0 0 0 3.818,0.8 V 2.518 a 0.73,0.73 0 0 1 0.016,-0.294 0.666,0.666 0 0 1 0.105,-0.149 h -4.359 c 0.067,0.078 0.044,0.215 0.004,0.348 z"
         style="fill:#ff6196"
         id="path70" />
      <path
         d="m 16.482,12.032 a 2.422,2.422 0 0 1 -0.5,1.376 22.671,22.671 0 0 1 -3.726,3.792 1.442,1.442 0 0 1 -1.684,0.2 1.393,1.393 0 0 1 -0.843,-1.368 1.624,1.624 0 0 1 0.417,-0.947 35.848,35.848 0 0 1 5.019,-3.993 0.71,0.71 0 0 1 0.829,-0.034 1.041,1.041 0 0 1 0.488,0.974 z"
         style="fill:#ff87af"
         id="path72" />
      <path
         d="m 15.284,18.093 a 1.437,1.437 0 0 1 0.448,-1.2 38.336,38.336 0 0 1 4.87,-3.813 c 0.052,-0.033 0.1,-0.066 0.157,-0.1 a 0.837,0.837 0 0 1 1.025,0.035 0.861,0.861 0 0 1 0.242,0.979 4.39,4.39 0 0 1 -1.168,1.908 c -1.105,1.1 -2.252,2.164 -3.4,3.22 a 1.124,1.124 0 0 1 -1.364,0.192 1.512,1.512 0 0 1 -0.81,-1.221 z"
         style="fill:#ff87af"
         id="path74" />
      <path
         d="m 22.5,18.754 c -0.28,0.3 -0.568,0.586 -0.837,0.893 a 1.89,1.89 0 0 0 -0.2,0.38 c 0.148,0.044 0.321,0.16 0.441,0.119 0.611,-0.205 1.207,-0.451 1.878,-0.71 -0.146,0.336 -0.256,0.646 -0.411,0.93 A 12.189,12.189 0 0 1 21,23.238 q -0.532,0.513 -1.105,0.981 a 1.484,1.484 0 0 1 -2.415,-0.92 1.1,1.1 0 0 1 0.238,-0.813 22.187,22.187 0 0 1 4.623,-3.823 0.193,0.193 0 0 1 0.065,-0.013 z"
         style="fill:#ff87af"
         id="path76" />
      <path
         d="m 24.794,14.771 1.711,-7.6 1.2,0.281 -0.619,1.881 c -0.578,1.75 -1.163,3.5 -1.727,5.252 -0.11,0.324 -0.254,0.384 -0.565,0.186 z"
         style="fill:#ff6196"
         id="path78" />
      <path
         d="m 22.862,19.241 c 0.181,-0.691 0.361,-1.33 0.513,-1.976 a 4.468,4.468 0 0 1 0.826,-1.721 c 0.243,-0.319 0.516,-0.192 0.795,-0.123 0.258,0.063 0.323,0.252 0.334,0.5 a 2.845,2.845 0 0 1 -0.588,1.907 4.8,4.8 0 0 1 -1.88,1.413 z"
         style="fill:#ff6196"
         id="path80" />
      <path
         d="M 29.993,2.894 A 3.623,3.623 0 0 0 29.976,2.226 0.291,0.291 0 0 0 29.86,2.075 0.381,0.381 0 0 0 29.708,2 c -0.032,-0.006 -0.077,0.027 -0.12,0.074 a 0.666,0.666 0 0 0 -0.105,0.149 0.73,0.73 0 0 0 -0.016,0.294 v 4.472 a 7.122,7.122 0 0 1 -3.818,-0.8 1.688,1.688 0 0 1 -0.9,-2.09 c 0.149,-0.563 0.314,-1.121 0.484,-1.678 0.04,-0.133 0.063,-0.27 0,-0.348 a 0.2,0.2 0 0 0 -0.135,-0.064 0.3,0.3 0 0 0 -0.182,0.064 0.434,0.434 0 0 0 -0.171,0.19 c -0.2,0.6 -0.376,1.206 -0.529,1.818 a 2.148,2.148 0 0 0 -0.046,0.737 2.339,2.339 0 0 0 1.542,2 c 0.189,0.079 0.3,0.157 0.247,0.406 -0.073,0.316 -0.144,0.632 -0.216,0.949 q -0.735,3.222 -1.462,6.447 a 0.483,0.483 0 0 1 -0.121,0.257 3.228,3.228 0 0 0 -0.791,0.92 4.8,4.8 0 0 0 -0.53,1.5 0.981,0.981 0 0 1 -0.558,0.785 c -0.417,0.211 -0.8,0.484 -1.263,0.768 A 12.639,12.639 0 0 0 21,17.179 a 1.062,1.062 0 0 1 0.284,-0.96 4.75,4.75 0 0 0 1.258,-2.194 1.294,1.294 0 0 0 -1.208,-1.7 1.7,1.7 0 0 0 -0.929,0.264 c -0.957,0.646 -1.888,1.332 -2.812,2.026 -0.547,0.412 -1.062,0.868 -1.592,1.3 A 0.418,0.418 0 0 1 15.942,15.834 0.842,0.842 0 0 0 15.883,15.62 C 15.44,14.936 15.747,14.439 16.228,13.928 A 2.793,2.793 0 0 0 17,11.977 1.568,1.568 0 0 0 16.673,10.951 1.459,1.459 0 0 0 16.235,10.588 1.337,1.337 0 0 0 14.718,10.75 l -0.279,0.2 c -0.637,0.456 -1.282,0.9 -1.895,1.388 -0.895,0.712 -1.769,1.454 -2.626,2.214 -0.4,0.353 -0.692,0.835 -1.107,1.163 -2.164,1.709 -4.351,3.387 -6.53,5.076 A 1.022,1.022 0 0 0 2.076,20.952 0.164,0.164 0 0 0 2.06,20.981 C 2.014,21.088 1.975,21.265 2.029,21.33 a 0.141,0.141 0 0 0 0.047,0.033 0.446,0.446 0 0 0 0.3,0.015 1.485,1.485 0 0 0 0.356,-0.258 l 6.1,-4.728 C 8.941,16.307 9.056,16.23 9.189,16.134 a 2.121,2.121 0 0 0 3.585,1.337 c 0.7,-0.674 1.423,-1.328 2.136,-1.991 l 0.26,-0.244 c 0.436,0.853 0.392,1.078 -0.278,1.615 Q 8.716,21.793 2.549,26.737 c -0.175,0.14 -0.521,0.267 -0.294,0.565 0.227,0.298 0.436,-0.009 0.61,-0.148 Q 8.651,22.533 14.429,17.9 c 0.1,-0.08 0.205,-0.151 0.35,-0.257 0,0.155 0,0.239 0,0.324 a 1.889,1.889 0 0 0 1.08,1.807 1.762,1.762 0 0 0 2.048,-0.329 c 0.793,-0.7 1.578,-1.414 2.367,-2.12 0.05,-0.045 0.108,-0.079 0.2,-0.149 a 5.364,5.364 0 0 1 -0.065,2.069 0.523,0.523 0 0 1 -0.182,0.224 q -0.978,0.845 -1.963,1.683 l -9.632,8.176 a 1.239,1.239 0 0 0 -0.295,0.276 0.365,0.365 0 0 0 -0.012,0.321 v 0 a 0.376,0.376 0 0 0 0.32,0.063 0.294,0.294 0 0 0 0.116,-0.065 c 0.05,-0.04 0.1,-0.091 0.145,-0.132 l 6.963,-5.9 c 0.335,-0.284 0.673,-0.564 1.026,-0.86 a 1.04,1.04 0 0 1 0.043,0.146 1.973,1.973 0 0 0 1.29,1.75 1.931,1.931 0 0 0 2.148,-0.419 c 0.464,-0.423 0.922,-0.853 1.382,-1.281 0.3,-0.275 0.59,-0.551 0.906,-0.848 a 5.925,5.925 0 0 1 0.143,0.624 3.2,3.2 0 0 1 -1.014,2.649 c -1.159,1.248 -2.344,2.469 -3.519,3.7 -0.077,0.08 -0.183,0.146 -0.225,0.241 -0.042,0.095 -0.069,0.281 -0.019,0.321 l 0.014,0.009 a 0.573,0.573 0 0 0 0.338,0.051 0.136,0.136 0 0 0 0.081,-0.051 c 0.028,-0.029 0.055,-0.065 0.082,-0.092 0.952,-0.984 1.909,-1.963 2.854,-2.954 a 13.982,13.982 0 0 0 1.074,-1.223 3.411,3.411 0 0 0 0.61,-3.616 0.516,0.516 0 0 1 0.074,-0.386 c 0.065,-0.112 0.137,-0.221 0.211,-0.329 a 4.632,4.632 0 0 0 0.587,-1 7.547,7.547 0 0 1 1.339,-2.4 2.792,2.792 0 0 0 0.5,-2.469 0.988,0.988 0 0 1 0,-0.489 c 0.506,-1.567 1.027,-3.129 1.543,-4.692 q 0.347,-1.05 0.69,-2.094 L 28.24,7.532 c 0.454,0 0.882,-0.009 1.308,0 0.354,0.01 0.462,-0.156 0.458,-0.5 C 29.985,5.652 29.993,4.273 29.993,2.894 Z M 12.256,17.2 a 1.442,1.442 0 0 1 -1.684,0.2 1.393,1.393 0 0 1 -0.843,-1.368 1.624,1.624 0 0 1 0.417,-0.947 35.848,35.848 0 0 1 5.019,-3.993 0.852,0.852 0 0 1 0.326,-0.14 0.656,0.656 0 0 1 0.238,0 0.763,0.763 0 0 1 0.265,0.106 1.041,1.041 0 0 1 0.488,0.975 2.422,2.422 0 0 1 -0.5,1.376 22.671,22.671 0 0 1 -3.726,3.791 z m 5.2,1.929 a 1.124,1.124 0 0 1 -1.364,0.192 1.512,1.512 0 0 1 -0.81,-1.224 1.437,1.437 0 0 1 0.448,-1.2 38.336,38.336 0 0 1 4.87,-3.813 c 0.052,-0.033 0.1,-0.066 0.157,-0.1 a 0.837,0.837 0 0 1 1.025,0.035 0.861,0.861 0 0 1 0.242,0.979 4.39,4.39 0 0 1 -1.168,1.908 c -1.103,1.102 -2.25,2.163 -3.398,3.219 z m 5.911,1.241 A 12.189,12.189 0 0 1 21,23.238 q -0.532,0.513 -1.105,0.981 a 1.484,1.484 0 0 1 -2.415,-0.92 1.1,1.1 0 0 1 0.238,-0.813 22.187,22.187 0 0 1 4.623,-3.823 0.193,0.193 0 0 1 0.065,-0.013 l 0.1,0.1 c -0.28,0.3 -0.568,0.586 -0.837,0.893 a 1.89,1.89 0 0 0 -0.2,0.38 c 0.148,0.044 0.321,0.16 0.441,0.119 0.483,-0.162 0.958,-0.35 1.467,-0.55 l 0.411,-0.16 c -0.154,0.34 -0.264,0.65 -0.419,0.934 z m 1.373,-2.535 a 4.363,4.363 0 0 1 -1.373,1.152 q -0.247,0.138 -0.507,0.258 c 0.178,-0.681 0.356,-1.312 0.507,-1.95 l 0.006,-0.026 a 4.468,4.468 0 0 1 0.826,-1.721 c 0.243,-0.319 0.516,-0.192 0.795,-0.123 0.258,0.063 0.323,0.252 0.334,0.5 a 2.845,2.845 0 0 1 -0.586,1.906 z m 2.34,-8.5 c -0.578,1.75 -1.163,3.5 -1.727,5.252 -0.106,0.329 -0.25,0.389 -0.561,0.191 l 1.483,-6.593 0.228,-1.012 1.2,0.281 c -0.082,0.247 -0.161,0.49 -0.241,0.731 z"
         id="path82" />
    </g>
  </g>
</svg>
