<?xml version="1.0" encoding="UTF-8" standalone="no"?>
<!-- Created with Inkscape (http://www.inkscape.org/) -->

<svg
   xmlns:dc="http://purl.org/dc/elements/1.1/"
   xmlns:cc="http://creativecommons.org/ns#"
   xmlns:rdf="http://www.w3.org/1999/02/22-rdf-syntax-ns#"
   xmlns:svg="http://www.w3.org/2000/svg"
   xmlns="http://www.w3.org/2000/svg"
   xmlns:sodipodi="http://sodipodi.sourceforge.net/DTD/sodipodi-0.dtd"
   xmlns:inkscape="http://www.inkscape.org/namespaces/inkscape"
   width="48.990623mm"
   height="4.1818976mm"
   viewBox="0 0 48.990624 4.1818977"
   version="1.1"
   id="svg1420"
   inkscape:version="0.92.3 (2405546, 2018-03-11)"
   sodipodi:docname="nahuel-uboldi-contact.svg">
  <defs
     id="defs1414" />
  <sodipodi:namedview
     id="base"
     pagecolor="#ffffff"
     bordercolor="#666666"
     borderopacity="1.0"
     inkscape:pageopacity="0.0"
     inkscape:pageshadow="2"
     inkscape:zoom="1.979899"
     inkscape:cx="83.15907"
     inkscape:cy="-111.68699"
     inkscape:document-units="mm"
     inkscape:current-layer="layer1"
     showgrid="false"
     fit-margin-top="0"
     fit-margin-left="0"
     fit-margin-right="0"
     fit-margin-bottom="0"
     inkscape:window-width="1920"
     inkscape:window-height="1031"
     inkscape:window-x="0"
     inkscape:window-y="25"
     inkscape:window-maximized="1" />
  <metadata
     id="metadata1417">
    <rdf:RDF>
      <cc:Work
         rdf:about="">
        <dc:format>image/svg+xml</dc:format>
        <dc:type
           rdf:resource="http://purl.org/dc/dcmitype/StillImage" />
        <dc:title></dc:title>
      </cc:Work>
    </rdf:RDF>
  </metadata>
  <g
     inkscape:label="Capa 1"
     inkscape:groupmode="layer"
     id="layer1"
     transform="translate(69.978225,9.3602448)">
    <g
       transform="matrix(1.2195602,0,0,1.2195602,-267.21272,-28.623053)"
       aria-label="nahueluboldi@gmail.com"
       style="font-style:normal;font-weight:normal;font-size:7.37164164px;line-height:1.25;font-family:sans-serif;letter-spacing:0px;word-spacing:0px;fill:#000000;fill-opacity:1;stroke:none;stroke-width:0.18429103"
       id="text5356">
      <path
         d="m 162.91128,16.694476 q 0.13406,0 0.22225,0.03528 0.0917,0.03528 0.1517,0.09878 0.067,0.07056 0.0952,0.176389 0.0282,0.105833 0.0282,0.28575 v 0.941917 q 0,0.148166 0.06,0.201083 0.0635,0.05292 0.20814,0.05292 v 0.07408 q -0.06,-0.0035 -0.18345,-0.0071 -0.12347,-0.0071 -0.23988,-0.0071 -0.11642,0 -0.22931,0.0071 -0.10936,0.0035 -0.16581,0.0071 v -0.07408 q 0.127,0 0.17992,-0.05292 0.0529,-0.05292 0.0529,-0.201083 V 17.21306 q 0,-0.109361 -0.0176,-0.201084 -0.0176,-0.09172 -0.0811,-0.148166 -0.06,-0.05645 -0.18697,-0.05645 -0.14817,0 -0.26106,0.08467 -0.10936,0.08467 -0.17286,0.232833 -0.06,0.144639 -0.06,0.324556 v 0.783167 q 0,0.148166 0.0529,0.201083 0.0529,0.05292 0.17991,0.05292 v 0.07408 q -0.0564,-0.0035 -0.16933,-0.0071 -0.10936,-0.0071 -0.22578,-0.0071 -0.11642,0 -0.23989,0.0071 -0.12347,0.0035 -0.18344,0.0071 v -0.07408 q 0.14464,0 0.20461,-0.05292 0.0635,-0.05292 0.0635,-0.201083 v -1.104195 q 0,-0.15875 -0.0564,-0.232833 -0.0564,-0.07761 -0.21166,-0.07761 v -0.07408 q 0.11289,0.01058 0.21872,0.01058 0.10231,0 0.19403,-0.01058 0.0952,-0.01411 0.17286,-0.0388 v 0.416278 q 0.0917,-0.239889 0.254,-0.331612 0.1658,-0.09525 0.34572,-0.09525 z"
         style="font-style:normal;font-variant:normal;font-weight:normal;font-stretch:normal;font-size:3.52777767px;font-family:'Playfair Display';-inkscape-font-specification:'Playfair Display';stroke-width:0.18429103"
         id="path5570"
         inkscape:connector-curvature="0" />
      <path
         d="m 164.33529,18.585365 q -0.14464,0 -0.25047,-0.05292 -0.10584,-0.05645 -0.16228,-0.155223 -0.0529,-0.09878 -0.0529,-0.229305 0,-0.155222 0.0706,-0.254 0.0741,-0.09878 0.18697,-0.15875 0.11289,-0.05997 0.23636,-0.09878 0.127,-0.04233 0.23989,-0.07761 0.11289,-0.03881 0.18345,-0.08819 0.0741,-0.04939 0.0741,-0.130528 v -0.218722 q 0,-0.148167 -0.0459,-0.225778 -0.0423,-0.07761 -0.11642,-0.102306 -0.0741,-0.02822 -0.1658,-0.02822 -0.0882,0 -0.1905,0.02469 -0.0988,0.02469 -0.15875,0.102306 0.067,0.01411 0.11641,0.07056 0.0494,0.05644 0.0494,0.144638 0,0.08819 -0.0564,0.141112 -0.0564,0.04939 -0.14464,0.04939 -0.10231,0 -0.1517,-0.0635 -0.0459,-0.06703 -0.0459,-0.148166 0,-0.09172 0.0459,-0.148167 0.0459,-0.05644 0.11642,-0.105833 0.0811,-0.05645 0.20814,-0.09525 0.13053,-0.04233 0.2928,-0.04233 0.14464,0 0.24695,0.03528 0.1023,0.03175 0.16933,0.09525 0.0917,0.08467 0.11995,0.208139 0.0282,0.119945 0.0282,0.289278 v 0.980722 q 0,0.0882 0.0247,0.127 0.0282,0.03881 0.0847,0.03881 0.0388,0 0.0741,-0.01764 0.0353,-0.01764 0.0847,-0.05645 l 0.0388,0.05997 q -0.0741,0.05644 -0.14112,0.09525 -0.067,0.03528 -0.17991,0.03528 -0.10231,0 -0.16934,-0.03528 -0.067,-0.03528 -0.1023,-0.102306 -0.0318,-0.07056 -0.0318,-0.176389 -0.0952,0.15875 -0.22931,0.236361 -0.13052,0.07761 -0.29633,0.07761 z m 0.127,-0.141111 q 0.11642,0 0.21519,-0.06703 0.10231,-0.06703 0.18345,-0.201083 v -0.691444 q -0.0423,0.05997 -0.12347,0.102305 -0.0811,0.03881 -0.17639,0.08114 -0.0952,0.03881 -0.18345,0.09525 -0.0847,0.05292 -0.14111,0.141111 -0.0564,0.0882 -0.0564,0.229306 0,0.141111 0.0741,0.225778 0.0776,0.08467 0.20814,0.08467 z"
         style="font-style:normal;font-variant:normal;font-weight:normal;font-stretch:normal;font-size:3.52777767px;font-family:'Playfair Display';-inkscape-font-specification:'Playfair Display';stroke-width:0.18429103"
         id="path5572"
         inkscape:connector-curvature="0" />
      <path
         d="m 166.14521,15.798421 v 1.319389 q 0.0917,-0.239889 0.254,-0.331611 0.1658,-0.09172 0.34572,-0.09172 0.13405,0 0.22225,0.03528 0.0917,0.03528 0.15169,0.09878 0.067,0.07056 0.0953,0.176389 0.0282,0.105833 0.0282,0.28575 v 0.941917 q 0,0.148166 0.06,0.201083 0.0635,0.05292 0.20814,0.05292 v 0.07408 q -0.06,-0.0035 -0.18345,-0.0071 -0.12347,-0.0071 -0.23989,-0.0071 -0.11641,0 -0.2293,0.0071 -0.10936,0.0035 -0.16581,0.0071 v -0.07408 q 0.127,0 0.17992,-0.05292 0.0529,-0.05292 0.0529,-0.201083 V 17.21306 q 0,-0.109361 -0.0176,-0.201084 -0.0176,-0.09172 -0.0811,-0.148166 -0.06,-0.05645 -0.18698,-0.05645 -0.14463,0 -0.25752,0.08114 -0.10936,0.08114 -0.17286,0.225778 -0.0635,0.144639 -0.0635,0.331611 v 0.786695 q 0,0.148166 0.0529,0.201083 0.0529,0.05292 0.17992,0.05292 v 0.07408 q -0.0565,-0.0035 -0.16933,-0.0071 -0.10937,-0.0071 -0.22578,-0.0071 -0.11642,0 -0.23989,0.0071 -0.12347,0.0035 -0.18345,0.0071 v -0.07408 q 0.14464,0 0.20462,-0.05292 0.0635,-0.05292 0.0635,-0.201083 V 16.22175 q 0,-0.15875 -0.0564,-0.232833 -0.0564,-0.07761 -0.21167,-0.07761 v -0.07408 q 0.11289,0.01058 0.21873,0.01058 0.1023,0 0.19402,-0.01058 0.0952,-0.01411 0.17287,-0.0388 z"
         style="font-style:normal;font-variant:normal;font-weight:normal;font-stretch:normal;font-size:3.52777767px;font-family:'Playfair Display';-inkscape-font-specification:'Playfair Display';stroke-width:0.18429103"
         id="path5574"
         inkscape:connector-curvature="0" />
      <path
         d="m 169.2669,16.70506 v 1.474611 q 0,0.15875 0.0565,0.236361 0.06,0.07408 0.21166,0.07408 v 0.07408 q -0.10936,-0.01058 -0.21872,-0.01058 -0.1023,0 -0.19755,0.01058 -0.0917,0.01058 -0.16934,0.0388 v -0.416278 q -0.0882,0.229306 -0.25047,0.328084 -0.15875,0.09525 -0.32808,0.09525 -0.12347,0 -0.2152,-0.03528 -0.0917,-0.03528 -0.15169,-0.09878 -0.067,-0.07055 -0.0917,-0.183444 -0.0247,-0.112889 -0.0247,-0.278695 v -0.885472 q 0,-0.15875 -0.0564,-0.232833 -0.0564,-0.07761 -0.21167,-0.07761 v -0.07408 q 0.11289,0.01058 0.21872,0.01058 0.10231,0 0.19403,-0.01058 0.0952,-0.01411 0.17286,-0.0388 v 1.386416 q 0,0.109362 0.0141,0.201084 0.0141,0.09172 0.0706,0.148166 0.0564,0.05645 0.18344,0.05645 0.13759,0 0.24342,-0.08467 0.10936,-0.08467 0.16933,-0.229305 0.0635,-0.144639 0.0635,-0.324556 v -0.73025 q 0,-0.15875 -0.0564,-0.232833 -0.0564,-0.07761 -0.21167,-0.07761 v -0.07408 q 0.11289,0.01058 0.21872,0.01058 0.10231,0 0.19403,-0.01058 0.0952,-0.01411 0.17286,-0.0388 z"
         style="font-style:normal;font-variant:normal;font-weight:normal;font-stretch:normal;font-size:3.52777767px;font-family:'Playfair Display';-inkscape-font-specification:'Playfair Display';stroke-width:0.18429103"
         id="path5576"
         inkscape:connector-curvature="0" />
      <path
         d="m 170.56893,16.694476 q 0.31044,0 0.4833,0.1905 0.17639,0.186973 0.17639,0.585612 h -1.2453 l -0.004,-0.06703 h 0.91017 q 0.007,-0.172861 -0.0282,-0.3175 -0.0353,-0.148167 -0.11288,-0.236361 -0.0741,-0.0882 -0.19403,-0.0882 -0.16228,0 -0.28928,0.162278 -0.12347,0.162278 -0.14817,0.515056 l 0.0106,0.01411 q -0.007,0.05292 -0.0106,0.116416 -0.004,0.0635 -0.004,0.127 0,0.239889 0.0776,0.41275 0.0776,0.172861 0.20108,0.264584 0.127,0.08819 0.26106,0.08819 0.10583,0 0.20108,-0.03175 0.0952,-0.03528 0.17639,-0.112889 0.0811,-0.07761 0.14111,-0.208139 l 0.0705,0.02822 q -0.0388,0.116416 -0.127,0.225777 -0.0882,0.109361 -0.22225,0.179917 -0.13405,0.06703 -0.31044,0.06703 -0.254,0 -0.43744,-0.116417 -0.17992,-0.116417 -0.2787,-0.321028 -0.0952,-0.208139 -0.0952,-0.47625 0,-0.310444 0.0988,-0.532694 0.0988,-0.225778 0.27869,-0.345722 0.17992,-0.123473 0.41981,-0.123473 z"
         style="font-style:normal;font-variant:normal;font-weight:normal;font-stretch:normal;font-size:3.52777767px;font-family:'Playfair Display';-inkscape-font-specification:'Playfair Display';stroke-width:0.18429103"
         id="path5578"
         inkscape:connector-curvature="0" />
      <path
         d="m 172.05715,15.794893 v 2.437695 q 0,0.148166 0.06,0.201083 0.0635,0.05292 0.20814,0.05292 v 0.07408 q -0.06,-0.0035 -0.18345,-0.0071 -0.11994,-0.0071 -0.24342,-0.0071 -0.11994,0 -0.24341,0.0071 -0.12347,0.0035 -0.18345,0.0071 v -0.07408 q 0.14464,0 0.20461,-0.05292 0.0635,-0.05292 0.0635,-0.201083 v -2.014362 q 0,-0.15875 -0.0564,-0.232833 -0.0564,-0.07761 -0.21167,-0.07761 v -0.07408 q 0.11289,0.01058 0.21873,0.01058 0.1023,0 0.19402,-0.01058 0.0952,-0.01411 0.17286,-0.03881 z"
         style="font-style:normal;font-variant:normal;font-weight:normal;font-stretch:normal;font-size:3.52777767px;font-family:'Playfair Display';-inkscape-font-specification:'Playfair Display';stroke-width:0.18429103"
         id="path5580"
         inkscape:connector-curvature="0" />
      <path
         d="m 174.10382,16.70506 v 1.474611 q 0,0.15875 0.0564,0.236361 0.06,0.07408 0.21167,0.07408 v 0.07408 q -0.10936,-0.01058 -0.21872,-0.01058 -0.10231,0 -0.19756,0.01058 -0.0917,0.01058 -0.16933,0.0388 v -0.416278 q -0.0882,0.229306 -0.25048,0.328084 -0.15875,0.09525 -0.32808,0.09525 -0.12347,0 -0.21519,-0.03528 -0.0917,-0.03528 -0.1517,-0.09878 -0.067,-0.07055 -0.0917,-0.183444 -0.0247,-0.112889 -0.0247,-0.278695 v -0.885472 q 0,-0.15875 -0.0564,-0.232833 -0.0564,-0.07761 -0.21167,-0.07761 v -0.07408 q 0.11289,0.01058 0.21873,0.01058 0.1023,0 0.19402,-0.01058 0.0952,-0.01411 0.17287,-0.0388 v 1.386416 q 0,0.109362 0.0141,0.201084 0.0141,0.09172 0.0705,0.148166 0.0564,0.05645 0.18345,0.05645 0.13758,0 0.24341,-0.08467 0.10936,-0.08467 0.16934,-0.229305 0.0635,-0.144639 0.0635,-0.324556 v -0.73025 q 0,-0.15875 -0.0564,-0.232833 -0.0564,-0.07761 -0.21166,-0.07761 v -0.07408 q 0.11288,0.01058 0.21872,0.01058 0.1023,0 0.19403,-0.01058 0.0952,-0.01411 0.17286,-0.0388 z"
         style="font-style:normal;font-variant:normal;font-weight:normal;font-stretch:normal;font-size:3.52777767px;font-family:'Playfair Display';-inkscape-font-specification:'Playfair Display';stroke-width:0.18429103"
         id="path5582"
         inkscape:connector-curvature="0" />
      <path
         d="m 175.59634,16.694476 q 0.28928,0 0.47978,0.239889 0.1905,0.236361 0.1905,0.719667 0,0.3175 -0.10936,0.532694 -0.10583,0.211667 -0.28575,0.3175 -0.17992,0.105834 -0.39158,0.105834 -0.17639,0 -0.3422,-0.09878 -0.16228,-0.102306 -0.24342,-0.299861 l 0.0706,0.0388 q 0.0882,0.141112 0.21872,0.211667 0.13053,0.06703 0.26811,0.06703 0.23636,0 0.35278,-0.211667 0.11995,-0.215194 0.11995,-0.663222 0,-0.28575 -0.0459,-0.47625 -0.0459,-0.1905 -0.14111,-0.282222 -0.0952,-0.09525 -0.24341,-0.09525 -0.16228,0 -0.30339,0.148166 -0.13759,0.144639 -0.16934,0.426862 l -0.0423,-0.04939 q 0.0388,-0.299861 0.20814,-0.465667 0.17286,-0.165806 0.40922,-0.165806 z m -0.55033,-0.896055 v 2.578805 q -0.0459,0.03881 -0.0952,0.08114 -0.0459,0.03881 -0.0917,0.07761 -0.0459,0.03881 -0.0952,0.08114 l -0.06,-0.02469 q 0.0141,-0.04939 0.0176,-0.09878 0.007,-0.05292 0.007,-0.105833 v -2.166056 q 0,-0.15875 -0.0565,-0.232833 -0.0564,-0.07761 -0.21166,-0.07761 v -0.07408 q 0.11289,0.01058 0.21872,0.01058 0.10231,0 0.19403,-0.01058 0.0952,-0.01411 0.17286,-0.0388 z"
         style="font-style:normal;font-variant:normal;font-weight:normal;font-stretch:normal;font-size:3.52777767px;font-family:'Playfair Display';-inkscape-font-specification:'Playfair Display';stroke-width:0.18429103"
         id="path5584"
         inkscape:connector-curvature="0" />
      <path
         d="m 177.39727,16.694476 q 0.22578,0 0.4057,0.09878 0.17991,0.09878 0.28575,0.310445 0.10936,0.211666 0.10936,0.550333 0,0.338667 -0.10936,0.550333 -0.10584,0.208139 -0.28575,0.306917 -0.17992,0.09878 -0.4057,0.09878 -0.22225,0 -0.40569,-0.09878 -0.17992,-0.09878 -0.28928,-0.306917 -0.10583,-0.211666 -0.10583,-0.550333 0,-0.338667 0.10583,-0.550333 0.10936,-0.211667 0.28928,-0.310445 0.18344,-0.09878 0.40569,-0.09878 z m 0,0.07056 q -0.20108,0 -0.33161,0.208139 -0.127,0.208139 -0.127,0.680861 0,0.472722 0.127,0.680861 0.13053,0.204611 0.33161,0.204611 0.20109,0 0.32809,-0.204611 0.13052,-0.208139 0.13052,-0.680861 0,-0.472722 -0.13052,-0.680861 -0.127,-0.208139 -0.32809,-0.208139 z"
         style="font-style:normal;font-variant:normal;font-weight:normal;font-stretch:normal;font-size:3.52777767px;font-family:'Playfair Display';-inkscape-font-specification:'Playfair Display';stroke-width:0.18429103"
         id="path5586"
         inkscape:connector-curvature="0" />
      <path
         d="m 178.99558,15.794893 v 2.437695 q 0,0.148166 0.06,0.201083 0.0635,0.05292 0.20814,0.05292 v 0.07408 q -0.06,-0.0035 -0.18345,-0.0071 -0.11994,-0.0071 -0.24341,-0.0071 -0.11995,0 -0.24342,0.0071 -0.12347,0.0035 -0.18344,0.0071 v -0.07408 q 0.14464,0 0.20461,-0.05292 0.0635,-0.05292 0.0635,-0.201083 v -2.014362 q 0,-0.15875 -0.0564,-0.232833 -0.0564,-0.07761 -0.21166,-0.07761 v -0.07408 q 0.11289,0.01058 0.21872,0.01058 0.1023,0 0.19403,-0.01058 0.0952,-0.01411 0.17286,-0.03881 z"
         style="font-style:normal;font-variant:normal;font-weight:normal;font-stretch:normal;font-size:3.52777767px;font-family:'Playfair Display';-inkscape-font-specification:'Playfair Display';stroke-width:0.18429103"
         id="path5588"
         inkscape:connector-curvature="0" />
      <path
         d="m 181.01132,15.794893 v 2.38125 q 0,0.15875 0.0564,0.236361 0.06,0.07408 0.21167,0.07408 v 0.07408 q -0.10936,-0.01058 -0.21873,-0.01058 -0.1023,0 -0.19755,0.01058 -0.0917,0.01058 -0.16933,0.0388 v -2.38125 q 0,-0.15875 -0.0564,-0.232833 -0.0564,-0.07761 -0.21167,-0.07761 v -0.07408 q 0.11289,0.01058 0.21873,0.01058 0.1023,0 0.19402,-0.01058 0.0952,-0.01411 0.17287,-0.03881 z m -0.74084,0.899583 q 0.15522,0 0.28928,0.07408 0.13758,0.07408 0.18344,0.254 l -0.0459,0.03528 q -0.0494,-0.148167 -0.15522,-0.215195 -0.1023,-0.06703 -0.24342,-0.06703 -0.20813,0 -0.34925,0.215195 -0.13758,0.215194 -0.13405,0.663222 0,0.28575 0.0529,0.47625 0.0564,0.186972 0.16227,0.282222 0.10936,0.09172 0.26459,0.09172 0.14816,0 0.26811,-0.127 0.11994,-0.127 0.14464,-0.373944 l 0.0423,0.04939 q -0.0282,0.268111 -0.17286,0.41275 -0.14111,0.144639 -0.38453,0.144639 -0.21872,0 -0.38453,-0.105834 -0.16227,-0.105833 -0.25047,-0.3175 -0.0847,-0.211666 -0.0847,-0.532694 0,-0.321028 0.10937,-0.532694 0.11288,-0.215195 0.2928,-0.321028 0.18345,-0.105834 0.39511,-0.105834 z"
         style="font-style:normal;font-variant:normal;font-weight:normal;font-stretch:normal;font-size:3.52777767px;font-family:'Playfair Display';-inkscape-font-specification:'Playfair Display';stroke-width:0.18429103"
         id="path5590"
         inkscape:connector-curvature="0" />
      <path
         d="m 181.85473,15.861921 q 0.0917,0 0.15875,0.06703 0.067,0.06703 0.067,0.15875 0,0.09172 -0.067,0.15875 -0.067,0.06703 -0.15875,0.06703 -0.0917,0 -0.15875,-0.06703 -0.067,-0.06703 -0.067,-0.15875 0,-0.09172 0.067,-0.15875 0.067,-0.06703 0.15875,-0.06703 z m 0.18344,0.843139 v 1.527528 q 0,0.148166 0.06,0.201083 0.0635,0.05292 0.20814,0.05292 v 0.07408 q -0.06,-0.0035 -0.18345,-0.0071 -0.11994,-0.0071 -0.24342,-0.0071 -0.11994,0 -0.24341,0.0071 -0.12347,0.0035 -0.18345,0.0071 v -0.07408 q 0.14464,0 0.20461,-0.05292 0.0635,-0.05292 0.0635,-0.201083 v -1.104195 q 0,-0.15875 -0.0564,-0.232833 -0.0564,-0.07761 -0.21167,-0.07761 v -0.07408 q 0.11289,0.01058 0.21873,0.01058 0.1023,0 0.19402,-0.01058 0.0952,-0.01411 0.17286,-0.0388 z"
         style="font-style:normal;font-variant:normal;font-weight:normal;font-stretch:normal;font-size:3.52777767px;font-family:'Playfair Display';-inkscape-font-specification:'Playfair Display';stroke-width:0.18429103"
         id="path5592"
         inkscape:connector-curvature="0" />
      <path
         d="m 184.26056,16.204115 q 0.30692,0 0.55387,0.09878 0.25047,0.09878 0.39863,0.313972 0.14817,0.211667 0.14817,0.557389 0,0.296334 -0.0952,0.536222 -0.0953,0.239889 -0.25047,0.409223 -0.1517,0.169333 -0.33161,0.261055 -0.17639,0.08819 -0.34572,0.08819 -0.14112,0 -0.19756,-0.05997 -0.0564,-0.05997 -0.0564,-0.144638 0,-0.08819 0.0212,-0.169334 0.0212,-0.08114 0.0317,-0.119944 l 0.2152,-1.051278 q 0.0811,0 0.1658,-0.01058 0.0847,-0.01058 0.1517,-0.03881 l -0.29634,1.294695 q -0.0212,0.07761 -0.0212,0.127 0,0.04586 0.0247,0.06703 0.0282,0.01764 0.0776,0.01764 0.10231,0 0.24342,-0.07761 0.14111,-0.08114 0.27517,-0.232833 0.13758,-0.155222 0.22577,-0.381 0.0917,-0.225778 0.0917,-0.518584 0,-0.328083 -0.14112,-0.525638 -0.14111,-0.197556 -0.37394,-0.28575 -0.23283,-0.09172 -0.51153,-0.09172 -0.25753,0 -0.50094,0.09172 -0.24342,0.09172 -0.45156,0.261055 -0.20461,0.165806 -0.35983,0.391583 -0.1517,0.22225 -0.23989,0.486834 -0.0847,0.264583 -0.0847,0.550333 0,0.363361 0.13759,0.585611 0.13758,0.225778 0.37747,0.328084 0.23989,0.102305 0.54328,0.102305 0.1905,0 0.37041,-0.04586 0.18345,-0.04233 0.35631,-0.144639 l 0.0247,0.04586 q -0.13052,0.09172 -0.32455,0.148167 -0.19403,0.05997 -0.43039,0.05997 -0.32808,0 -0.58208,-0.112889 -0.254,-0.112889 -0.39864,-0.34925 -0.14464,-0.236361 -0.14464,-0.610305 0,-0.28575 0.0847,-0.553861 0.0847,-0.271639 0.23989,-0.504473 0.15875,-0.236361 0.37042,-0.41275 0.21167,-0.179916 0.46567,-0.278694 0.25752,-0.102306 0.54327,-0.102306 z m -0.1905,0.670278 q 0.0811,0 0.14112,0.03175 0.0635,0.03175 0.0952,0.102306 0.0353,0.06703 0.0247,0.186972 l -0.0282,0.01411 q 0,-0.09172 -0.0247,-0.148167 -0.0247,-0.05644 -0.0741,-0.08114 -0.0494,-0.02469 -0.11994,-0.02469 -0.11642,0 -0.21873,0.09525 -0.0988,0.09525 -0.17639,0.254 -0.0741,0.155222 -0.11641,0.342194 -0.0423,0.186973 -0.0423,0.373945 0,0.172861 0.0459,0.257528 0.0494,0.08467 0.13758,0.08467 0.13758,0 0.27869,-0.215194 0.14464,-0.215195 0.23284,-0.592667 l 0.0282,0.05645 q -0.0776,0.292805 -0.16933,0.483305 -0.0917,0.1905 -0.21167,0.282222 -0.11642,0.09172 -0.2787,0.09172 -0.13405,0 -0.21519,-0.05645 -0.0776,-0.05644 -0.11289,-0.151694 -0.0353,-0.09878 -0.0353,-0.218722 0,-0.201084 0.0741,-0.405695 0.0741,-0.208139 0.19402,-0.377472 0.12348,-0.172861 0.27164,-0.278695 0.14817,-0.105833 0.29986,-0.105833 z"
         style="font-style:normal;font-variant:normal;font-weight:normal;font-stretch:normal;font-size:3.52777767px;font-family:'Playfair Display';-inkscape-font-specification:'Playfair Display';stroke-width:0.18429103"
         id="path5594"
         inkscape:connector-curvature="0" />
      <path
         d="m 186.23579,19.223893 q -0.18697,0 -0.35278,-0.0388 -0.1658,-0.03881 -0.26811,-0.123473 -0.0988,-0.08114 -0.0988,-0.208139 0,-0.123472 0.0988,-0.211666 0.0988,-0.08819 0.26811,-0.134056 l 0.0212,0.05645 q -0.0776,0.02469 -0.12347,0.09878 -0.0459,0.07408 -0.0459,0.165806 0,0.162278 0.14816,0.246944 0.1517,0.08819 0.39159,0.08819 0.15875,0 0.31044,-0.04233 0.15169,-0.03881 0.25047,-0.134056 0.0988,-0.09525 0.0988,-0.250472 0,-0.116417 -0.0847,-0.1905 -0.0811,-0.07761 -0.32455,-0.07761 h -0.26106 q -0.11289,0 -0.21872,-0.01764 -0.10583,-0.01764 -0.17286,-0.07408 -0.067,-0.05644 -0.067,-0.172861 0,-0.119944 0.0988,-0.229305 0.0988,-0.112889 0.36336,-0.229306 l 0.0423,0.03175 q -0.11994,0.0635 -0.20814,0.130528 -0.0882,0.0635 -0.0882,0.151694 0,0.112889 0.16933,0.112889 h 0.44098 q 0.14816,0 0.27163,0.04233 0.127,0.04233 0.20462,0.134055 0.0776,0.09172 0.0776,0.239889 0,0.165806 -0.10584,0.310445 -0.10583,0.144638 -0.3175,0.232833 -0.20814,0.09172 -0.51858,0.09172 z m 0.0176,-1.414639 q -0.17286,0 -0.31397,-0.05644 -0.14111,-0.05997 -0.22225,-0.183445 -0.0811,-0.123472 -0.0811,-0.3175 0,-0.194027 0.0811,-0.3175 0.0811,-0.123472 0.22225,-0.179916 0.14111,-0.05997 0.31397,-0.05997 0.17639,0 0.31397,0.05997 0.14111,0.05644 0.22225,0.179916 0.0811,0.123473 0.0811,0.3175 0,0.194028 -0.0811,0.3175 -0.0811,0.123473 -0.22225,0.183445 -0.13758,0.05644 -0.31397,0.05644 z m 0,-0.0635 q 0.13405,0 0.20814,-0.105833 0.0776,-0.105833 0.0776,-0.388056 0,-0.282222 -0.0776,-0.388055 -0.0741,-0.105834 -0.20814,-0.105834 -0.13053,0 -0.20814,0.105834 -0.0776,0.105833 -0.0776,0.388055 0,0.282223 0.0776,0.388056 0.0776,0.105833 0.20814,0.105833 z m 0.508,-0.758472 -0.0635,-0.02469 q 0.0494,-0.119945 0.16933,-0.211667 0.11995,-0.09172 0.25047,-0.09172 0.0917,0 0.14817,0.05292 0.0565,0.04939 0.0565,0.151695 0,0.109361 -0.06,0.155222 -0.0564,0.04233 -0.11641,0.04233 -0.0529,0 -0.0988,-0.03528 -0.0459,-0.03881 -0.0529,-0.119945 -0.007,-0.08114 0.0494,-0.208139 l 0.0459,0.01058 q -0.14816,0.05644 -0.21166,0.119944 -0.0635,0.05997 -0.11642,0.15875 z"
         style="font-style:normal;font-variant:normal;font-weight:normal;font-stretch:normal;font-size:3.52777767px;font-family:'Playfair Display';-inkscape-font-specification:'Playfair Display';stroke-width:0.18429103"
         id="path5596"
         inkscape:connector-curvature="0" />
      <path
         d="m 188.6112,16.694476 q 0.12347,0 0.21519,0.03528 0.0917,0.03528 0.1517,0.09878 0.067,0.07056 0.0917,0.183444 0.0247,0.112889 0.0247,0.278695 v 0.941917 q 0,0.148166 0.06,0.201083 0.0635,0.05292 0.20814,0.05292 v 0.07408 q -0.06,-0.0035 -0.18344,-0.0071 -0.12347,-0.0071 -0.23989,-0.0071 -0.11642,0 -0.22931,0.0071 -0.10936,0.0035 -0.1658,0.0071 v -0.07408 q 0.127,0 0.17992,-0.05292 0.0529,-0.05292 0.0529,-0.201083 V 17.21306 q 0,-0.109361 -0.0141,-0.201084 -0.0141,-0.09172 -0.0705,-0.148166 -0.0565,-0.05645 -0.18345,-0.05645 -0.13758,0 -0.24694,0.08467 -0.10584,0.08467 -0.16934,0.232833 -0.06,0.144639 -0.06,0.324556 v 0.783167 q 0,0.148166 0.0529,0.201083 0.0529,0.05292 0.17991,0.05292 v 0.07408 q -0.0564,-0.0035 -0.16933,-0.0071 -0.10936,-0.0071 -0.22578,-0.0071 -0.11641,0 -0.23989,0.0071 -0.12347,0.0035 -0.18344,0.0071 v -0.07408 q 0.14464,0 0.20461,-0.05292 0.0635,-0.05292 0.0635,-0.201083 v -1.104195 q 0,-0.15875 -0.0564,-0.232833 -0.0565,-0.07761 -0.21167,-0.07761 v -0.07408 q 0.11289,0.01058 0.21872,0.01058 0.10231,0 0.19403,-0.01058 0.0952,-0.01411 0.17286,-0.0388 v 0.416278 q 0.0917,-0.229306 0.25047,-0.328084 0.15875,-0.09878 0.32809,-0.09878 z m 1.06186,0 q 0.12347,0 0.21519,0.03528 0.0917,0.03528 0.1517,0.09878 0.067,0.07056 0.0917,0.183444 0.0247,0.112889 0.0247,0.278695 v 0.941917 q 0,0.148166 0.06,0.201083 0.0635,0.05292 0.20813,0.05292 v 0.07408 q -0.06,-0.0035 -0.18344,-0.0071 -0.12347,-0.0071 -0.23989,-0.0071 -0.11642,0 -0.2293,0.0071 -0.10937,0.0035 -0.16581,0.0071 v -0.07408 q 0.127,0 0.17992,-0.05292 0.0529,-0.05292 0.0529,-0.201083 V 17.21306 q 0,-0.109361 -0.0141,-0.201084 -0.0141,-0.09172 -0.0705,-0.148166 -0.0564,-0.05645 -0.18345,-0.05645 -0.13758,0 -0.24694,0.08467 -0.10584,0.08467 -0.16934,0.229306 -0.06,0.144638 -0.06,0.324555 l -0.0106,-0.328083 q 0.0952,-0.243417 0.25753,-0.331611 0.16227,-0.09172 0.33161,-0.09172 z"
         style="font-style:normal;font-variant:normal;font-weight:normal;font-stretch:normal;font-size:3.52777767px;font-family:'Playfair Display';-inkscape-font-specification:'Playfair Display';stroke-width:0.18429103"
         id="path5598"
         inkscape:connector-curvature="0" />
      <path
         d="m 191.08301,18.585365 q -0.14464,0 -0.25047,-0.05292 -0.10583,-0.05645 -0.16228,-0.155223 -0.0529,-0.09878 -0.0529,-0.229305 0,-0.155222 0.0706,-0.254 0.0741,-0.09878 0.18697,-0.15875 0.11289,-0.05997 0.23636,-0.09878 0.127,-0.04233 0.23989,-0.07761 0.11289,-0.03881 0.18345,-0.08819 0.0741,-0.04939 0.0741,-0.130528 v -0.218722 q 0,-0.148167 -0.0459,-0.225778 -0.0423,-0.07761 -0.11642,-0.102306 -0.0741,-0.02822 -0.1658,-0.02822 -0.0882,0 -0.1905,0.02469 -0.0988,0.02469 -0.15875,0.102306 0.067,0.01411 0.11641,0.07056 0.0494,0.05644 0.0494,0.144638 0,0.08819 -0.0564,0.141112 -0.0565,0.04939 -0.14464,0.04939 -0.10231,0 -0.1517,-0.0635 -0.0459,-0.06703 -0.0459,-0.148166 0,-0.09172 0.0459,-0.148167 0.0459,-0.05644 0.11642,-0.105833 0.0811,-0.05645 0.20814,-0.09525 0.13053,-0.04233 0.29281,-0.04233 0.14463,0 0.24694,0.03528 0.10231,0.03175 0.16933,0.09525 0.0917,0.08467 0.11995,0.208139 0.0282,0.119945 0.0282,0.289278 v 0.980722 q 0,0.0882 0.0247,0.127 0.0282,0.03881 0.0847,0.03881 0.0388,0 0.0741,-0.01764 0.0353,-0.01764 0.0847,-0.05645 l 0.0388,0.05997 q -0.0741,0.05644 -0.14111,0.09525 -0.067,0.03528 -0.17992,0.03528 -0.10231,0 -0.16933,-0.03528 -0.067,-0.03528 -0.10231,-0.102306 -0.0317,-0.07056 -0.0317,-0.176389 -0.0953,0.15875 -0.22931,0.236361 -0.13052,0.07761 -0.29633,0.07761 z m 0.127,-0.141111 q 0.11642,0 0.2152,-0.06703 0.1023,-0.06703 0.18344,-0.201083 v -0.691444 q -0.0423,0.05997 -0.12347,0.102305 -0.0811,0.03881 -0.17639,0.08114 -0.0952,0.03881 -0.18345,0.09525 -0.0847,0.05292 -0.14111,0.141111 -0.0564,0.0882 -0.0564,0.229306 0,0.141111 0.0741,0.225778 0.0776,0.08467 0.20814,0.08467 z"
         style="font-style:normal;font-variant:normal;font-weight:normal;font-stretch:normal;font-size:3.52777767px;font-family:'Playfair Display';-inkscape-font-specification:'Playfair Display';stroke-width:0.18429103"
         id="path5600"
         inkscape:connector-curvature="0" />
      <path
         d="m 192.74123,15.861921 q 0.0917,0 0.15875,0.06703 0.067,0.06703 0.067,0.15875 0,0.09172 -0.067,0.15875 -0.067,0.06703 -0.15875,0.06703 -0.0917,0 -0.15875,-0.06703 -0.067,-0.06703 -0.067,-0.15875 0,-0.09172 0.067,-0.15875 0.067,-0.06703 0.15875,-0.06703 z m 0.18345,0.843139 v 1.527528 q 0,0.148166 0.06,0.201083 0.0635,0.05292 0.20814,0.05292 v 0.07408 q -0.06,-0.0035 -0.18345,-0.0071 -0.11994,-0.0071 -0.24341,-0.0071 -0.11995,0 -0.24342,0.0071 -0.12347,0.0035 -0.18345,0.0071 v -0.07408 q 0.14464,0 0.20462,-0.05292 0.0635,-0.05292 0.0635,-0.201083 v -1.104195 q 0,-0.15875 -0.0565,-0.232833 -0.0564,-0.07761 -0.21167,-0.07761 v -0.07408 q 0.11289,0.01058 0.21873,0.01058 0.1023,0 0.19402,-0.01058 0.0952,-0.01411 0.17287,-0.0388 z"
         style="font-style:normal;font-variant:normal;font-weight:normal;font-stretch:normal;font-size:3.52777767px;font-family:'Playfair Display';-inkscape-font-specification:'Playfair Display';stroke-width:0.18429103"
         id="path5602"
         inkscape:connector-curvature="0" />
      <path
         d="m 193.93351,15.794893 v 2.437695 q 0,0.148166 0.06,0.201083 0.0635,0.05292 0.20814,0.05292 v 0.07408 q -0.06,-0.0035 -0.18344,-0.0071 -0.11995,-0.0071 -0.24342,-0.0071 -0.11994,0 -0.24342,0.0071 -0.12347,0.0035 -0.18344,0.0071 v -0.07408 q 0.14464,0 0.20461,-0.05292 0.0635,-0.05292 0.0635,-0.201083 v -2.014362 q 0,-0.15875 -0.0564,-0.232833 -0.0565,-0.07761 -0.21167,-0.07761 v -0.07408 q 0.11289,0.01058 0.21872,0.01058 0.10231,0 0.19403,-0.01058 0.0952,-0.01411 0.17286,-0.03881 z"
         style="font-style:normal;font-variant:normal;font-weight:normal;font-stretch:normal;font-size:3.52777767px;font-family:'Playfair Display';-inkscape-font-specification:'Playfair Display';stroke-width:0.18429103"
         id="path5604"
         inkscape:connector-curvature="0" />
      <path
         d="m 194.72076,18.158504 q 0.0917,0 0.15875,0.06703 0.067,0.06703 0.067,0.15875 0,0.09172 -0.067,0.15875 -0.067,0.06703 -0.15875,0.06703 -0.0917,0 -0.15875,-0.06703 -0.067,-0.06703 -0.067,-0.15875 0,-0.09172 0.067,-0.15875 0.067,-0.06703 0.15875,-0.06703 z"
         style="font-style:normal;font-variant:normal;font-weight:normal;font-stretch:normal;font-size:3.52777767px;font-family:'Playfair Display';-inkscape-font-specification:'Playfair Display';stroke-width:0.18429103"
         id="path5606"
         inkscape:connector-curvature="0" />
      <path
         d="m 196.14934,16.694476 q 0.11289,0 0.21872,0.02822 0.10584,0.02822 0.1905,0.08467 0.0811,0.05292 0.12348,0.123473 0.0423,0.06703 0.0423,0.148166 0,0.09525 -0.0529,0.148167 -0.0529,0.04939 -0.13405,0.04939 -0.0776,0 -0.13759,-0.04586 -0.0564,-0.04586 -0.0564,-0.130528 0,-0.08114 0.0423,-0.130528 0.0459,-0.04939 0.10584,-0.0635 -0.0353,-0.0635 -0.127,-0.105833 -0.0882,-0.04233 -0.1905,-0.04233 -0.0882,0 -0.17639,0.04233 -0.0882,0.04233 -0.16228,0.141111 -0.0741,0.09525 -0.11994,0.264583 -0.0459,0.165806 -0.0459,0.416278 0,0.310444 0.0706,0.493889 0.0706,0.183444 0.18344,0.264583 0.11642,0.07761 0.254,0.07761 0.0917,0 0.18698,-0.03528 0.0952,-0.03528 0.17991,-0.112889 0.0847,-0.08114 0.14464,-0.215195 l 0.067,0.0247 q -0.0353,0.112889 -0.11642,0.229305 -0.0811,0.112889 -0.21166,0.186972 -0.13053,0.07408 -0.32103,0.07408 -0.21872,0 -0.39511,-0.112889 -0.17639,-0.112889 -0.28222,-0.321028 -0.10231,-0.211667 -0.10231,-0.500944 0,-0.289278 0.10231,-0.508 0.10583,-0.22225 0.2928,-0.345723 0.18697,-0.127 0.42686,-0.127 z"
         style="font-style:normal;font-variant:normal;font-weight:normal;font-stretch:normal;font-size:3.52777767px;font-family:'Playfair Display';-inkscape-font-specification:'Playfair Display';stroke-width:0.18429103"
         id="path5608"
         inkscape:connector-curvature="0" />
      <path
         d="m 197.84736,16.694476 q 0.22578,0 0.40569,0.09878 0.17992,0.09878 0.28575,0.310445 0.10937,0.211666 0.10937,0.550333 0,0.338667 -0.10937,0.550333 -0.10583,0.208139 -0.28575,0.306917 -0.17991,0.09878 -0.40569,0.09878 -0.22225,0 -0.40569,-0.09878 -0.17992,-0.09878 -0.28928,-0.306917 -0.10584,-0.211666 -0.10584,-0.550333 0,-0.338667 0.10584,-0.550333 0.10936,-0.211667 0.28928,-0.310445 0.18344,-0.09878 0.40569,-0.09878 z m 0,0.07056 q -0.20108,0 -0.33161,0.208139 -0.127,0.208139 -0.127,0.680861 0,0.472722 0.127,0.680861 0.13053,0.204611 0.33161,0.204611 0.20108,0 0.32808,-0.204611 0.13053,-0.208139 0.13053,-0.680861 0,-0.472722 -0.13053,-0.680861 -0.127,-0.208139 -0.32808,-0.208139 z"
         style="font-style:normal;font-variant:normal;font-weight:normal;font-stretch:normal;font-size:3.52777767px;font-family:'Playfair Display';-inkscape-font-specification:'Playfair Display';stroke-width:0.18429103"
         id="path5610"
         inkscape:connector-curvature="0" />
      <path
         d="m 200.08336,16.694476 q 0.12348,0 0.2152,0.03528 0.0917,0.03528 0.15169,0.09878 0.067,0.07056 0.0917,0.183444 0.0247,0.112889 0.0247,0.278695 v 0.941917 q 0,0.148166 0.06,0.201083 0.0635,0.05292 0.20814,0.05292 v 0.07408 q -0.06,-0.0035 -0.18344,-0.0071 -0.12348,-0.0071 -0.23989,-0.0071 -0.11642,0 -0.22931,0.0071 -0.10936,0.0035 -0.1658,0.0071 v -0.07408 q 0.127,0 0.17991,-0.05292 0.0529,-0.05292 0.0529,-0.201083 V 17.21306 q 0,-0.109361 -0.0141,-0.201084 -0.0141,-0.09172 -0.0706,-0.148166 -0.0564,-0.05645 -0.18344,-0.05645 -0.13759,0 -0.24695,0.08467 -0.10583,0.08467 -0.16933,0.232833 -0.06,0.144639 -0.06,0.324556 v 0.783167 q 0,0.148166 0.0529,0.201083 0.0529,0.05292 0.17992,0.05292 v 0.07408 q -0.0564,-0.0035 -0.16933,-0.0071 -0.10936,-0.0071 -0.22578,-0.0071 -0.11642,0 -0.23989,0.0071 -0.12347,0.0035 -0.18344,0.0071 v -0.07408 q 0.14464,0 0.20461,-0.05292 0.0635,-0.05292 0.0635,-0.201083 v -1.104195 q 0,-0.15875 -0.0564,-0.232833 -0.0564,-0.07761 -0.21166,-0.07761 v -0.07408 q 0.11289,0.01058 0.21872,0.01058 0.1023,0 0.19403,-0.01058 0.0952,-0.01411 0.17286,-0.0388 v 0.416278 q 0.0917,-0.229306 0.25047,-0.328084 0.15875,-0.09878 0.32808,-0.09878 z m 1.06186,0 q 0.12348,0 0.2152,0.03528 0.0917,0.03528 0.15169,0.09878 0.067,0.07056 0.0917,0.183444 0.0247,0.112889 0.0247,0.278695 v 0.941917 q 0,0.148166 0.06,0.201083 0.0635,0.05292 0.20814,0.05292 v 0.07408 q -0.06,-0.0035 -0.18344,-0.0071 -0.12348,-0.0071 -0.23989,-0.0071 -0.11642,0 -0.22931,0.0071 -0.10936,0.0035 -0.1658,0.0071 v -0.07408 q 0.127,0 0.17991,-0.05292 0.0529,-0.05292 0.0529,-0.201083 V 17.21306 q 0,-0.109361 -0.0141,-0.201084 -0.0141,-0.09172 -0.0706,-0.148166 -0.0564,-0.05645 -0.18344,-0.05645 -0.13758,0 -0.24695,0.08467 -0.10583,0.08467 -0.16933,0.229306 -0.06,0.144638 -0.06,0.324555 l -0.0106,-0.328083 q 0.0952,-0.243417 0.25752,-0.331611 0.16228,-0.09172 0.33161,-0.09172 z"
         style="font-style:normal;font-variant:normal;font-weight:normal;font-stretch:normal;font-size:3.52777767px;font-family:'Playfair Display';-inkscape-font-specification:'Playfair Display';stroke-width:0.18429103"
         id="path5612"
         inkscape:connector-curvature="0" />
    </g>
  </g>
</svg>
