<?xml version="1.0" encoding="UTF-8" standalone="no"?>
<svg
   xmlns:dc="http://purl.org/dc/elements/1.1/"
   xmlns:cc="http://creativecommons.org/ns#"
   xmlns:rdf="http://www.w3.org/1999/02/22-rdf-syntax-ns#"
   xmlns:svg="http://www.w3.org/2000/svg"
   xmlns="http://www.w3.org/2000/svg"
   width="116.28242mm"
   height="27.339689mm"
   viewBox="0 0 116.28242 27.339689"
   version="1.1"
   id="svg647">
  <defs
     id="defs641" />
  <metadata
     id="metadata644">
    <rdf:RDF>
      <cc:Work
         rdf:about="">
        <dc:format>image/svg+xml</dc:format>
        <dc:type
           rdf:resource="http://purl.org/dc/dcmitype/StillImage" />
        <dc:title></dc:title>
      </cc:Work>
    </rdf:RDF>
  </metadata>
  <path
     id="path4191"
     d="M 7.156892,27.267217 C 6.782008,27.203797 5.018345,27.146518 3.237642,27.139954 L 0,27.128024 0,13.564016 0,5.8e-6 l 4.347712,0 c 3.838787,0 4.357396,0.025262 4.430454,0.2156341 0.0455,0.1185934 0.08274,2.3502243 0.08274,4.959169 l 0,4.74354 1.013629,0.1507591 c 3.405249,0.506466 5.982468,2.67664 7.129803,6.00372 0.304526,0.88308 0.357104,1.266379 0.357104,2.60325 0,1.35571 -0.05073,1.714997 -0.375135,2.656967 -1.222206,3.548839 -4.228355,5.833265 -7.88788,5.994128 -0.692964,0.03048 -1.566659,0.0033 -1.941543,-0.05994 z m 3.325824,-1.166724 c 4.04731,-0.954037 6.622298,-5.12694 5.666305,-9.182553 -1.363254,-5.783339 -8.607319,-7.8382821 -12.824236,-3.637886 -2.464286,2.454637 -2.98435,5.833014 -1.385652,9.001408 0.866802,1.717886 2.976303,3.363201 4.914053,3.832739 0.982695,0.23812 2.5869,0.232062 3.62953,-0.01372 z M 3.733873,26.061653 C 3.771983,26.000003 3.430854,25.621849 2.975826,25.221316 2.520798,24.820783 1.932182,24.191971 1.667792,23.823959 1.317021,23.335713 1.156176,23.203585 1.072752,23.335158 c -0.180479,0.284659 -0.143369,2.486545 0.04507,2.675003 0.186503,0.186503 2.504403,0.232125 2.616036,0.05149 z M 2.686177,12.444345 C 3.768134,11.369594 5.260498,10.538455 6.679765,10.220211 7.092137,10.127741 7.506214,9.9912639 7.599937,9.9169259 7.729847,9.8138809 7.77034,8.7525928 7.77034,5.4507464 7.77034,1.6271801 7.74508,1.110034 7.554706,1.0369807 7.123921,0.8716734 1.290729,0.9449297 1.117838,1.1178207 0.995375,1.2402832 0.954256,2.848144 0.954256,7.5137904 c 0,3.4278156 0.04183,6.3414556 0.09301,6.4747616 0.08121,0.211645 0.128253,0.191454 0.371,-0.159255 0.152898,-0.220894 0.723458,-0.844123 1.267914,-1.384952 z m 23.804176,14.811544 c -3.160439,-0.549876 -5.727664,-2.784366 -6.804831,-5.922865 -0.512199,-1.492374 -0.543437,-3.587718 -0.0762,-5.110759 0.84792,-2.76393 2.859956,-4.824216 5.679666,-5.81587 l 1.089266,-0.383081 5.112067,-0.0019 5.112063,-0.0019 0.03512,8.540037 0.03512,8.540031 -3.783948,0.08448 c -2.081172,0.04647 -4.213357,0.109232 -4.738198,0.139499 -0.524836,0.03024 -1.271875,-2.75e-4 -1.660081,-0.06778 z m 3.301382,-1.153246 c 1.411703,-0.360408 2.503582,-0.984246 3.554021,-2.030575 1.536803,-1.530779 2.27664,-3.284322 2.27664,-5.396011 0,-2.111685 -0.739837,-3.865228 -2.27664,-5.396007 -4.938442,-4.9190972 -13.362455,-1.15731 -12.999434,5.804973 0.210311,4.033491 3.496569,7.179536 7.53691,7.215338 0.602806,0.0054 1.461633,-0.08363 1.908503,-0.197718 z m 5.76097,-0.09248 c 0.188454,-0.188458 0.22557,-2.390344 0.04507,-2.675003 -0.08342,-0.131573 -0.244269,4.83e-4 -0.59504,0.488801 -0.264386,0.368012 -0.853006,0.996824 -1.308035,1.397357 -0.455028,0.400533 -0.796153,0.778688 -0.758047,0.840337 0.111638,0.180633 2.429533,0.135011 2.616036,-0.05149 z m 0.161496,-13.355192 c 9.64e-4,-0.649916 -0.03516,-1.2787 -0.08066,-1.397294 -0.06845,-0.178368 -0.339372,-0.215634 -1.567702,-0.215634 -0.816721,0 -1.484954,0.05429 -1.484954,0.120642 0,0.06635 0.167186,0.230187 0.371522,0.364074 0.614433,0.402596 1.680441,1.453696 2.11582,2.086239 0.527169,0.765901 0.643231,0.593773 0.64597,-0.958027 z m 31.96953,14.612242 c -0.374885,-0.06342 -2.138547,-0.1207 -3.91925,-0.127264 l -3.237642,-0.01193 0,-13.564009 0,-13.56401 4.347712,0 c 3.838786,0 4.357391,0.025263 4.430454,0.2156341 0.0455,0.1185935 0.08274,2.3502244 0.08274,4.9591691 l 0,4.7435397 1.013633,0.1507591 c 3.388921,0.504037 5.974193,2.665995 7.115032,5.950007 0.330044,0.950057 0.377908,1.289618 0.374521,2.656964 -0.0033,1.348358 -0.05628,1.720101 -0.378405,2.656966 -1.222074,3.554336 -4.220331,5.832937 -7.887256,5.994128 -0.692964,0.03048 -1.566658,0.0033 -1.941542,-0.05994 z m 3.325823,-1.166725 c 3.377189,-0.796076 5.871858,-3.950356 5.871858,-7.424431 0,-4.17413 -3.469438,-7.634014 -7.655102,-7.634014 -2.077033,0 -3.882718,0.751884 -5.374686,2.238007 -1.536802,1.530779 -2.27664,3.284322 -2.27664,5.396007 0,2.111689 0.739838,3.865232 2.27664,5.396011 1.914619,1.907117 4.529249,2.648056 7.15793,2.02842 z m -6.748842,-0.03884 c 0.03811,-0.06165 -0.30302,-0.439802 -0.758048,-0.840335 -0.455028,-0.400533 -1.043648,-1.029347 -1.308034,-1.397357 -0.350771,-0.488247 -0.511616,-0.620374 -0.59504,-0.488802 -0.180484,0.284659 -0.143367,2.486545 0.04507,2.675004 0.186503,0.186502 2.504398,0.232125 2.616036,0.05149 z m -1.05529,-13.609983 c 1.13085,-1.123566 2.457438,-1.855965 4.031564,-2.225796 l 0.992032,-0.2330771 0.03599,-4.407805 c 0.02806,-3.435534 -0.0019,-4.4319374 -0.136321,-4.5171969 -0.29201,-0.1853626 -6.294948,-0.1390497 -6.48402,0.050022 -0.122463,0.1224625 -0.163583,1.7303234 -0.163583,6.3959698 0,3.4278162 0.04183,6.3414562 0.09301,6.4747622 0.08121,0.211645 0.128254,0.191453 0.371,-0.159255 0.152898,-0.220894 0.720043,-0.840824 1.260321,-1.377624 z m 23.81177,14.804217 c -3.159845,-0.54977 -5.724197,-2.781333 -6.806126,-5.922867 -0.324407,-0.941971 -0.375135,-1.301257 -0.375135,-2.656967 0,-1.355705 0.05073,-1.714997 0.375135,-2.656963 0.487348,-1.415079 1.132314,-2.460766 2.138151,-3.466607 0.999775,-0.999775 2.042327,-1.64519 3.466607,-2.146092 l 1.089266,-0.38308 5.112061,-0.0019 5.112062,-0.0019 0.03512,8.540037 0.03512,8.540033 -3.783943,0.08447 c -2.081172,0.04647 -4.213361,0.109232 -4.738196,0.139499 -0.52484,0.03024 -1.271875,-2.75e-4 -1.660081,-0.06778 z m 3.301381,-1.153249 c 1.411701,-0.360407 2.503575,-0.984245 3.55402,-2.030574 3.104552,-3.092394 3.063007,-7.930086 -0.09367,-10.907935 -1.4963,-1.411544 -3.2715,-2.124505 -5.278759,-2.120075 -4.913088,0.01082 -8.574979,4.625246 -7.451801,9.390126 0.634678,2.692489 2.932459,5.013282 5.603845,5.659958 1.069133,0.258812 2.671372,0.262526 3.666369,0.0085 z m 5.760963,-0.09248 c 0.19383,-0.19383 0.229434,-2.642385 0.04014,-2.759384 -0.0679,-0.04198 -0.336609,0.220382 -0.597122,0.582997 -0.260512,0.362616 -0.845959,0.987009 -1.300987,1.387542 -0.455029,0.400533 -0.796149,0.778687 -0.758047,0.840336 0.111637,0.180634 2.429533,0.135012 2.616035,-0.05149 z m 0.161501,-13.355194 c 9.27e-4,-0.649916 -0.03516,-1.2787 -0.08066,-1.397294 -0.06845,-0.178368 -0.339372,-0.215634 -1.567698,-0.215634 -0.816725,0 -1.484953,0.05429 -1.484953,0.120642 0,0.06635 0.167181,0.230188 0.371518,0.364074 0.614437,0.402595 1.680445,1.453697 2.115819,2.086239 0.527169,0.765901 0.643231,0.593774 0.645975,-0.958027 z m -55.584109,5.918848 0.03512,-8.55419 4.975741,0.005 c 4.323037,0.0044 5.088953,0.03652 5.838751,0.245143 3.750851,1.043527 6.034669,3.750227 6.257249,7.415876 l 0.07645,1.258944 -4.143637,0.03613 -4.143636,0.03613 -0.07334,4.021493 c -0.04033,2.211817 -0.08635,4.036824 -0.102244,4.055571 -0.01589,0.01874 -1.992396,0.03405 -4.392222,0.03405 l -4.363321,0 0.03512,-8.554186 z m 7.568068,7.486824 c 0.135181,-0.08582 0.164105,-1.683402 0.13632,-7.529684 l -0.03526,-7.420756 -3.262122,-0.03661 c -2.518805,-0.02826 -3.287121,0.0029 -3.371868,0.13632 -0.188778,0.297416 -0.140765,14.609837 0.04965,14.800247 0.188782,0.188787 6.191801,0.235525 6.483285,0.05048 z m 8.460308,-8.589663 c 0.024,-0.250422 -0.08123,-0.86642 -0.233854,-1.368882 -0.552895,-1.820273 -1.953763,-3.436539 -3.694235,-4.262239 -0.930542,-0.441465 -2.728113,-0.878926 -3.070972,-0.747359 -0.170099,0.06528 -0.201458,0.594292 -0.201458,3.398747 0,1.826794 0.04192,3.36335 0.09313,3.414571 0.05122,0.05122 1.661521,0.07678 3.578439,0.0568 l 3.485315,-0.03632 0.04362,-0.455308 z m 49.781946,9.390961 c -4.49938,-0.640145 -7.361369,-3.902189 -7.361369,-8.390365 0,-4.961246 3.532019,-8.426906 8.588269,-8.426906 5.05624,0 8.58827,3.46566 8.58827,8.426906 0,4.064246 -2.3853,7.191621 -6.22573,8.162622 -1.02977,0.260363 -2.64143,0.362619 -3.58944,0.227743 z m 3.00546,-1.154764 c 2.68587,-0.56939 4.78638,-2.487599 5.51927,-5.040217 0.30466,-1.061163 0.30904,-3.141828 0.009,-4.303698 -0.96865,-3.751527 -4.95723,-6.00245 -9.08545,-5.127283 -1.99934,0.42385 -3.77283,1.663709 -4.76033,3.327993 -0.69125,1.16499 -0.99406,2.355354 -0.99406,3.907604 0,1.552249 0.30281,2.742613 0.99406,3.907608 1.07267,1.807806 2.76807,2.91791 5.24384,3.433521 0.61284,0.127625 2.23682,0.07187 3.07362,-0.105528 z m -5.86137,-2.592421 c -0.0896,-0.107927 -0.1431,-0.368643 -0.11894,-0.579365 0.0422,-0.367904 0.0791,-0.385839 0.93002,-0.451289 0.48736,-0.03748 0.96278,-0.117792 1.0565,-0.178446 0.12411,-0.08033 0.1704,-0.677841 0.1704,-2.199553 0,-2.078119 -0.002,-2.090451 -0.3408,-2.312563 -0.39185,-0.256754 -0.45114,-0.768818 -0.12659,-1.093376 0.1292,-0.129191 0.44998,-0.214218 0.8082,-0.214218 1.01188,0 1.02241,0.03357 1.02241,3.261117 0,3.041158 -0.0858,3.562372 -0.62665,3.808824 -0.51165,0.233125 -2.5723,0.202578 -2.77455,-0.04111 z m 5.65051,-1.867996 c -0.58737,-0.215987 -1.31365,-0.943768 -1.26628,-1.268894 0.0249,-0.171187 0.19937,-0.315975 0.47569,-0.394873 0.37541,-0.107188 0.49698,-0.07353 0.87091,0.241114 0.50089,0.421468 1.28951,0.446334 1.53866,0.04852 0.21861,-0.349023 -0.012,-0.502539 -1.08843,-0.724694 -1.11502,-0.23011 -1.69062,-0.728984 -1.68729,-1.462358 0.005,-1.011068 0.76019,-1.638577 1.973,-1.638577 1.41728,0 2.45708,1.11023 1.40998,1.505464 -0.37475,0.14145 -0.49279,0.12552 -0.89031,-0.120158 -0.54674,-0.337904 -1.13145,-0.260117 -1.13145,0.150526 0,0.198173 0.14576,0.300821 0.57937,0.408 1.36406,0.337175 1.5997,0.43893 1.93253,0.834473 0.59881,0.711633 0.36224,1.807526 -0.48471,2.245513 -0.53875,0.278588 -1.70291,0.370373 -2.23167,0.175943 z m -3.62015,-6.230145 c -0.6557,-0.530952 -0.21915,-1.657102 0.64237,-1.657102 0.50862,0 1.04753,0.609492 0.94019,1.063352 -0.18251,0.771784 -0.98902,1.074373 -1.58256,0.59375 z"
     style="fill:#3661db" />
</svg>
