<?xml version="1.0" encoding="UTF-8" standalone="no"?>
<svg
   xmlns:dc="http://purl.org/dc/elements/1.1/"
   xmlns:cc="http://creativecommons.org/ns#"
   xmlns:rdf="http://www.w3.org/1999/02/22-rdf-syntax-ns#"
   xmlns:svg="http://www.w3.org/2000/svg"
   xmlns="http://www.w3.org/2000/svg"
   id="svg2969"
   version="1.1"
   viewBox="0 0 19.999999 30"
   height="30mm"
   width="20mm">
  <defs
     id="defs2963" />
  <metadata
     id="metadata2966">
    <rdf:RDF>
      <cc:Work
         rdf:about="">
        <dc:format>image/svg+xml</dc:format>
        <dc:type
           rdf:resource="http://purl.org/dc/dcmitype/StillImage" />
        <dc:title></dc:title>
      </cc:Work>
    </rdf:RDF>
  </metadata>
  <g
     transform="translate(79.65616,-65.363084)"
     id="layer1">
    <g
       transform="matrix(3.9062501,0,0,3.9062501,-84.65616,65.363084)"
       id="g1176">
      <path
         style="fill:#0acf83"
         d="M 2.56,7.68 A 1.28,1.28 0 0 0 3.84,6.4 V 5.12 H 2.56 a 1.28,1.28 0 0 0 0,2.56 z"
         id="path1153" />
      <path
         style="fill:#a259ff"
         d="M 1.28,3.84 A 1.28,1.28 0 0 1 2.56,2.56 H 3.84 V 5.12 H 2.56 A 1.28,1.28 0 0 1 1.28,3.84 Z"
         id="path1155" />
      <path
         style="fill:#f24e1e"
         d="M 1.28,1.28 A 1.28,1.28 0 0 1 2.559,0 h 1.28 V 2.56 H 2.56 A 1.28,1.28 0 0 1 1.28,1.28 Z"
         id="path1157" />
      <path
         style="fill:#ff7262"
         d="m 3.84,0 h 1.28 a 1.28,1.28 0 0 1 0,2.56 H 3.84 Z"
         id="path1159" />
      <path
         style="fill:#1abcfe"
         d="m 6.4,3.84 a 1.28,1.28 0 0 1 -2.56,0 1.28,1.28 0 0 1 2.56,0 z"
         id="path1161" />
    </g>
  </g>
</svg>
