<?xml version="1.0" encoding="UTF-8" standalone="no"?>
<svg
   xmlns:dc="http://purl.org/dc/elements/1.1/"
   xmlns:cc="http://creativecommons.org/ns#"
   xmlns:rdf="http://www.w3.org/1999/02/22-rdf-syntax-ns#"
   xmlns:svg="http://www.w3.org/2000/svg"
   xmlns="http://www.w3.org/2000/svg"
   id="svg2969"
   version="1.1"
   viewBox="0 0 29.999999 30"
   height="30mm"
   width="30mm">
  <defs
     id="defs2963" />
  <metadata
     id="metadata2966">
    <rdf:RDF>
      <cc:Work
         rdf:about="">
        <dc:format>image/svg+xml</dc:format>
        <dc:type
           rdf:resource="http://purl.org/dc/dcmitype/StillImage" />
        <dc:title></dc:title>
      </cc:Work>
    </rdf:RDF>
  </metadata>
  <g
     transform="translate(96.114493,-93.45237)"
     id="layer1">
    <g
       transform="matrix(0.46874999,0,0,0.46874999,-96.114493,93.45237)"
       data-name="14-linkedin"
       id="_14-linkedin">
      <rect
         style="fill:#007fb5"
         y="0"
         x="0"
         class="cls-1"
         height="64"
         rx="11.2"
         ry="11.2"
         width="64"
         id="rect1132" />
      <rect
         style="fill:#ffffff"
         class="cls-2"
         height="32.720001"
         width="9.0299997"
         x="8.9899998"
         y="23.540001"
         id="rect1134" />
      <path
         style="fill:#ffffff"
         class="cls-2"
         d="M 48.2,23.54 C 41.54,21 36.72,25.3 34.66,27.7 v -4.16 h -9 v 32.72 h 9 V 39 a 8.45,8.45 0 0 1 2.23,-5.92 4.75,4.75 0 0 1 3.41,-1.67 5.42,5.42 0 0 1 3.94,1.59 6.13,6.13 0 0 1 1.7,4.35 V 56.26 H 56.1 V 36 c 0,0 1.13,-9.08 -7.9,-12.46 z"
         id="path1136" />
      <circle
         style="fill:#ffffff"
         class="cls-2"
         cx="13.5"
         cy="13.38"
         r="5.6399999"
         id="circle1138" />
    </g>
  </g>
</svg>
