<?xml version="1.0" encoding="UTF-8" standalone="no"?>
<svg
   xmlns:dc="http://purl.org/dc/elements/1.1/"
   xmlns:cc="http://creativecommons.org/ns#"
   xmlns:rdf="http://www.w3.org/1999/02/22-rdf-syntax-ns#"
   xmlns:svg="http://www.w3.org/2000/svg"
   xmlns="http://www.w3.org/2000/svg"
   id="svg225"
   version="1.1"
   viewBox="0 0 26.51342 29.897917"
   height="29.897917mm"
   width="26.51342mm">
  <defs
     id="defs219" />
  <metadata
     id="metadata222">
    <rdf:RDF>
      <cc:Work
         rdf:about="">
        <dc:format>image/svg+xml</dc:format>
        <dc:type
           rdf:resource="http://purl.org/dc/dcmitype/StillImage" />
        <dc:title></dc:title>
      </cc:Work>
    </rdf:RDF>
  </metadata>
  <g
     transform="translate(175.49118,-121.61905)"
     id="layer1">
    <g
       transform="matrix(1.0677975,0,0,1.0677975,-179.31923,119.48304)"
       id="g158">
      <path
         d="M 16,30 A 2.151,2.151 0 0 1 14.924,29.712 L 11.5,27.685 c -0.511,-0.286 -0.262,-0.387 -0.093,-0.446 a 6.828,6.828 0 0 0 1.549,-0.7 0.263,0.263 0 0 1 0.255,0.019 l 2.631,1.563 a 0.34,0.34 0 0 0 0.318,0 l 10.26,-5.922 a 0.323,0.323 0 0 0 0.157,-0.278 V 10.075 A 0.331,0.331 0 0 0 26.418,9.792 L 16.158,3.875 a 0.323,0.323 0 0 0 -0.317,0 L 5.587,9.794 A 0.33,0.33 0 0 0 5.425,10.075 V 21.916 A 0.315,0.315 0 0 0 5.586,22.19 L 8.4,23.814 c 1.525,0.762 2.459,-0.136 2.459,-1.038 V 11.085 a 0.3,0.3 0 0 1 0.3,-0.3 h 1.3 a 0.3,0.3 0 0 1 0.3,0.3 v 11.692 c 0,2.035 -1.108,3.2 -3.038,3.2 A 4.389,4.389 0 0 1 7.358,25.335 L 4.661,23.788 A 2.166,2.166 0 0 1 3.585,21.916 V 10.075 A 2.162,2.162 0 0 1 4.661,8.2 L 14.922,2.276 a 2.246,2.246 0 0 1 2.156,0 L 27.338,8.2 a 2.165,2.165 0 0 1 1.077,1.87 v 11.846 a 2.171,2.171 0 0 1 -1.077,1.872 l -10.26,5.924 A 2.152,2.152 0 0 1 16,30 Z"
         style="fill:#83cd29"
         id="path144" />
      <path
         d="m 14.054,17.953 a 0.3,0.3 0 0 1 0.3,-0.3 h 1.327 a 0.3,0.3 0 0 1 0.295,0.251 c 0.2,1.351 0.8,2.032 3.513,2.032 2.161,0 3.082,-0.489 3.082,-1.636 0,-0.661 -0.261,-1.152 -3.62,-1.481 -2.808,-0.278 -4.544,-0.9 -4.544,-3.144 0,-2.07 1.745,-3.305 4.67,-3.305 3.287,0 4.914,1.141 5.12,3.589 a 0.3,0.3 0 0 1 -0.295,0.323 H 22.566 A 0.3,0.3 0 0 1 22.278,14.05 c -0.319,-1.421 -1.1,-1.875 -3.2,-1.875 -2.36,0 -2.634,0.822 -2.634,1.438 0,0.746 0.324,0.964 3.51,1.385 3.153,0.417 4.651,1.007 4.651,3.223 0,2.236 -1.864,3.516 -5.115,3.516 -4.495,0.006 -5.436,-2.055 -5.436,-3.784 z"
         style="fill:#83cd29"
         id="path146" />
    </g>
  </g>
</svg>
