<?xml version="1.0" encoding="UTF-8" standalone="no"?>
<svg
   xmlns:dc="http://purl.org/dc/elements/1.1/"
   xmlns:cc="http://creativecommons.org/ns#"
   xmlns:rdf="http://www.w3.org/1999/02/22-rdf-syntax-ns#"
   xmlns:svg="http://www.w3.org/2000/svg"
   xmlns="http://www.w3.org/2000/svg"
   id="svg225"
   version="1.1"
   viewBox="0 0 29.897915 29.897914"
   height="29.897915mm"
   width="29.897915mm">
  <defs
     id="defs219" />
  <metadata
     id="metadata222">
    <rdf:RDF>
      <cc:Work
         rdf:about="">
        <dc:format>image/svg+xml</dc:format>
        <dc:type
           rdf:resource="http://purl.org/dc/dcmitype/StillImage" />
        <dc:title></dc:title>
      </cc:Work>
    </rdf:RDF>
  </metadata>
  <g
     transform="translate(264.35338,-34.488293)"
     id="layer1">
    <g
       transform="matrix(1.0677827,0,0,1.0677827,-266.48895,32.352728)"
       id="g31">
      <polygon
         points="16,2 2,2 2,16 2,30 16,30 30,30 30,16 30,2 "
         style="fill:#007acc"
         id="polygon17" />
      <path
         d="m 24.564,14.884 a 3.485,3.485 0 0 1 1.751,1.009 4.611,4.611 0 0 1 0.671,0.9 c 0.009,0.036 -1.209,0.853 -1.947,1.311 -0.027,0.018 -0.133,-0.1 -0.253,-0.276 A 1.587,1.587 0 0 0 23.47,17.037 c -0.849,-0.058 -1.4,0.387 -1.391,1.129 a 1.027,1.027 0 0 0 0.12,0.524 c 0.187,0.387 0.533,0.618 1.622,1.089 2,0.862 2.862,1.431 3.4,2.24 a 4.063,4.063 0 0 1 0.324,3.413 3.753,3.753 0 0 1 -3.1,2.218 8.584,8.584 0 0 1 -2.133,-0.022 5.145,5.145 0 0 1 -2.849,-1.484 4.947,4.947 0 0 1 -0.729,-1.08 2.092,2.092 0 0 1 0.258,-0.164 c 0.124,-0.071 0.6,-0.342 1.04,-0.6 l 0.8,-0.467 L 21,24.08 a 3.759,3.759 0 0 0 1.067,1.02 2.6,2.6 0 0 0 2.724,-0.138 1.217,1.217 0 0 0 0.156,-1.551 C 24.729,23.1 24.285,22.838 23.023,22.291 a 6.93,6.93 0 0 1 -2.636,-1.622 3.692,3.692 0 0 1 -0.769,-1.4 5.606,5.606 0 0 1 -0.049,-1.787 3.413,3.413 0 0 1 2.871,-2.658 7.092,7.092 0 0 1 2.124,0.06 z M 17.991,16.053 18,17.2 H 14.356 V 27.556 H 11.778 V 17.2 H 8.133 V 16.076 A 11.018,11.018 0 0 1 8.164,14.92 c 0.013,-0.018 2.231,-0.027 4.92,-0.022 l 4.893,0.013 z"
         style="fill:#ffffff"
         id="path19" />
    </g>
  </g>
</svg>
